<svg viewBox="0 0 560 191" fill="none" xmlns="http://www.w3.org/2000/svg">
  <rect width="560" height="191" fill="white"/>
  <rect width="560" height="191" fill="#096B6A"/>
  <path d="M172 163C172 167.418 175.582 171 180 171H356C360.418 171 364 167.418 364 163V57C364 52.5817 360.418 49 356 49H180C175.582 49 172 52.5817 172 57V163Z" fill="#E2E5E9"/>
  <rect x="161" y="159" width="214.689" height="12.4951" rx="4" fill="#BCC0C7"/>
  <path fill-rule="evenodd" clip-rule="evenodd" d="M288.228 159C286.033 161.996 282.488 163.941 278.49 163.941H257.738C253.74 163.941 250.195 161.996 248 159H288.228Z" fill="#3C3F48"/>
  <ellipse cx="473.5" cy="127.5" rx="21.4155" ry="21.4155" transform="rotate(-0.226464 473.5 127.5)" fill="#0A8281"/>
  <path d="M473.414 111.094C469.56 111.109 465.831 112.46 462.862 114.917C459.893 117.373 457.867 120.783 457.131 124.566C456.394 128.348 456.991 132.269 458.821 135.66C460.651 139.052 463.6 141.704 467.166 143.164C470.733 144.625 474.695 144.804 478.378 143.671C482.061 142.537 485.237 140.162 487.366 136.949C489.494 133.737 490.442 129.886 490.049 126.052C489.657 122.219 487.947 118.64 485.211 115.926L473.48 127.75L473.414 111.094Z" fill="#089695"/>
  <path fill-rule="evenodd" clip-rule="evenodd" d="M78.533 38.4594C73.0255 39.2214 67.4379 37.8124 62.954 34.5309C59.1448 38.576 53.9084 40.9818 48.3545 41.2383C47.8011 44.0477 47.8189 46.9394 48.4068 49.7415C48.9947 52.5436 50.1407 55.1989 51.7767 57.5497C53.4127 59.9006 55.5053 61.8989 57.9301 63.4259C60.355 64.9529 63.0627 65.9776 65.8922 66.4389C68.5899 65.4686 71.0649 63.9668 73.1701 62.0226C75.2754 60.0784 76.9678 57.7315 78.147 55.1215C79.3262 52.5115 79.968 49.6915 80.0343 46.8292C80.1006 43.9668 79.5901 41.1205 78.533 38.4594ZM70.3346 45.6216C70.6557 44.8567 70.2959 43.9763 69.531 43.6552C68.7662 43.3341 67.8858 43.6939 67.5647 44.4588L63.6016 53.8993L60.5931 50.8808C60.0075 50.2933 59.0565 50.2917 58.469 50.8773C57.8814 51.4629 57.8799 52.4139 58.4655 53.0015L63.0555 57.6067C63.409 57.9615 63.9161 58.1166 64.4076 58.0205C64.8991 57.9244 65.3104 57.5896 65.5043 57.1278L70.3346 45.6216Z" fill="#0A8281"/>
  <rect x="116" y="93" width="64" height="64" rx="10" transform="rotate(-12 116 93)" fill="#705FF4"/>
  <path fill-rule="evenodd" clip-rule="evenodd" d="M132.914 103.309L145.435 100.648C145.867 100.556 146.291 100.832 146.383 101.264L149.045 113.784C149.136 114.216 148.861 114.641 148.428 114.733L135.908 117.394C135.476 117.486 135.051 117.21 134.959 116.778L132.298 104.258C132.206 103.826 132.482 103.401 132.914 103.309ZM129.95 104.757C129.583 103.028 130.687 101.329 132.415 100.961L144.936 98.3C146.664 97.9326 148.363 99.0361 148.731 100.765L151.392 113.285C151.76 115.014 150.656 116.713 148.927 117.08L136.407 119.742C134.678 120.109 132.979 119.006 132.612 117.277L129.95 104.757ZM150.092 122.558L137.571 125.219C137.139 125.311 136.863 125.736 136.955 126.168L139.617 138.688C139.708 139.121 140.133 139.397 140.565 139.305L153.086 136.643C153.518 136.552 153.794 136.127 153.702 135.695L151.041 123.174C150.949 122.742 150.524 122.466 150.092 122.558ZM137.072 122.872C135.344 123.239 134.24 124.938 134.608 126.667L137.269 139.187C137.636 140.916 139.336 142.02 141.064 141.652L153.585 138.991C155.313 138.624 156.417 136.924 156.049 135.196L153.388 122.675C153.021 120.947 151.321 119.843 149.593 120.211L137.072 122.872ZM143.265 128.916C142.832 129.008 142.556 129.433 142.648 129.865L143.314 132.995C143.406 133.428 143.83 133.703 144.262 133.612L147.393 132.946C147.825 132.854 148.101 132.43 148.009 131.997L147.343 128.867C147.252 128.435 146.827 128.159 146.395 128.251L143.265 128.916ZM138.607 107.006C138.175 107.098 137.899 107.523 137.991 107.955L138.656 111.085C138.748 111.517 139.173 111.793 139.605 111.701L142.735 111.036C143.168 110.944 143.443 110.519 143.352 110.087L142.686 106.957C142.594 106.525 142.17 106.249 141.737 106.341L138.607 107.006ZM154.825 98.6516L167.345 95.9903C167.777 95.8985 168.202 96.1744 168.294 96.6065L170.955 109.127C171.047 109.559 170.771 109.984 170.339 110.076L157.819 112.737C157.386 112.829 156.962 112.553 156.87 112.121L154.209 99.6005C154.117 99.1683 154.393 98.7435 154.825 98.6516ZM151.861 100.099C151.494 98.3708 152.597 96.6715 154.326 96.3041L166.846 93.6428C168.575 93.2753 170.274 94.3789 170.641 96.1075L173.303 108.628C173.67 110.357 172.567 112.056 170.838 112.423L158.318 115.084C156.589 115.452 154.89 114.348 154.522 112.62L151.861 100.099ZM160.518 102.349C160.086 102.441 159.81 102.865 159.902 103.298L160.567 106.428C160.659 106.86 161.084 107.136 161.516 107.044L164.646 106.379C165.078 106.287 165.354 105.862 165.262 105.43L164.597 102.3C164.505 101.867 164.08 101.592 163.648 101.683L160.518 102.349ZM164.559 125.208C164.467 124.776 164.743 124.351 165.175 124.259L168.305 123.594C168.737 123.502 169.162 123.778 169.254 124.21L169.919 127.34C170.011 127.772 169.735 128.197 169.303 128.289L166.173 128.954C165.741 129.046 165.316 128.77 165.224 128.338L164.559 125.208ZM169.488 117.617C169.056 117.709 168.78 118.134 168.872 118.566L169.537 121.696C169.629 122.128 170.054 122.404 170.486 122.312L173.616 121.647C174.049 121.555 174.324 121.13 174.233 120.698L173.567 117.568C173.475 117.136 173.051 116.86 172.618 116.952L169.488 117.617ZM171.201 129.521C171.109 129.089 171.385 128.664 171.817 128.573L174.947 127.907C175.379 127.815 175.804 128.091 175.896 128.523L176.561 131.654C176.653 132.086 176.377 132.511 175.945 132.602L172.815 133.268C172.383 133.36 171.958 133.084 171.866 132.651L171.201 129.521ZM158.533 119.946C158.101 120.038 157.825 120.463 157.917 120.895L158.582 124.025C158.674 124.457 159.099 124.733 159.531 124.641L162.661 123.976C163.093 123.884 163.369 123.459 163.277 123.027L162.612 119.897C162.52 119.465 162.095 119.189 161.663 119.281L158.533 119.946ZM160.246 131.85C160.154 131.418 160.43 130.993 160.862 130.901L163.992 130.236C164.424 130.144 164.849 130.42 164.941 130.852L165.606 133.982C165.698 134.414 165.422 134.839 164.99 134.931L161.86 135.596C161.428 135.688 161.003 135.412 160.911 134.98L160.246 131.85Z" fill="white"/>
  <rect x="347" y="18" width="64" height="64" rx="10" transform="rotate(12 347 18)" fill="white"/>
  <path d="M365.056 64.0267C364.167 63.8379 363.682 63.091 363.879 62.1671L366.605 49.3393L366.546 49.3267L363.378 50.6589C363.037 50.8092 362.782 50.8417 362.451 50.7712C361.811 50.6353 361.447 50.0751 361.591 49.4C361.692 48.9262 361.957 48.6111 362.541 48.3641L366.557 46.6549C367.428 46.283 367.925 46.2771 368.564 46.4131C369.642 46.6422 370.155 47.4321 369.931 48.4863L366.887 62.8066C366.691 63.7305 365.944 64.2155 365.056 64.0267Z" fill="#705FF4"/>
  <path d="M370.822 65.0048C369.875 64.8034 369.488 64.1765 369.652 63.4066C369.777 62.8144 370.054 62.5018 370.837 62.0244L377.161 57.9585C379.798 56.266 380.527 55.5172 380.804 54.2142C381.129 52.6863 380.19 51.3354 378.544 50.9855C377.004 50.6582 375.76 51.2108 374.828 52.6222C374.39 53.1727 373.966 53.417 373.267 53.2685C372.438 53.0922 372.049 52.4771 372.21 51.7191C372.258 51.494 372.339 51.2884 372.441 51.0996C373.296 49.35 375.76 47.8312 379.088 48.5387C382.512 49.2663 384.438 51.7927 383.829 54.6592C383.403 56.6609 382.157 57.8073 378.737 59.9773L373.996 63.0053L373.983 63.0645L380.806 64.5147C381.611 64.6859 382.003 65.2891 381.842 66.0472C381.683 66.7934 381.08 67.1851 380.274 67.0139L370.822 65.0048Z" fill="#705FF4"/>
  <path fill-rule="evenodd" clip-rule="evenodd" d="M353.515 37.3777C354.342 33.4881 358.165 31.0052 362.054 31.832L390.225 37.8198C394.115 38.6466 396.597 42.4699 395.771 46.3595L389.783 74.5301C388.956 78.4197 385.133 80.9026 381.243 80.0758L353.073 74.088C349.183 73.2612 346.7 69.4379 347.527 65.5483L353.515 37.3777ZM361.522 34.336L389.693 40.3239C392.199 40.8567 393.799 43.3206 393.267 45.8272L392.102 51.3076C389.427 50.8067 387.352 51.6428 386.218 53.1242C385.916 53.4935 385.753 53.8549 385.662 54.2813C385.496 55.0631 385.84 55.6562 386.693 55.8375C387.404 55.9885 387.794 55.7866 388.281 55.1227C389.092 53.9658 390.104 53.4888 391.585 53.738L390.509 58.8024C390.496 58.7999 390.484 58.7974 390.472 58.7948L389.572 58.6034C388.814 58.4423 388.265 58.8086 388.122 59.4837C387.978 60.1589 388.33 60.7165 389.088 60.8776L390.025 61.0768L388.856 66.5785C387.178 66.1437 386.383 65.1849 386.081 63.841C385.895 63.1453 385.574 62.7923 384.946 62.6589C384.093 62.4776 383.476 62.8786 383.305 63.6841C383.219 64.0868 383.231 64.4978 383.368 64.9602C383.876 66.8135 385.481 68.4084 388.324 69.081L387.279 73.9979C386.746 76.5045 384.282 78.1046 381.775 77.5718L353.605 71.5839C351.098 71.0511 349.498 68.5872 350.031 66.0806L356.019 37.9099C356.552 35.4033 359.016 33.8032 361.522 34.336Z" fill="#705FF4"/>
  <rect x="240" y="93" width="25" height="34" rx="3" fill="white"/>
  <rect x="272" y="93" width="25" height="34" rx="3" fill="white"/>
  <rect x="304" y="93" width="25" height="34" rx="3" fill="white"/>
  <rect x="208" y="93" width="25" height="34" rx="3" fill="white"/>
  <path d="M240 123H265V124C265 125.657 263.657 127 262 127H243C241.343 127 240 125.657 240 124V123Z" fill="#31BDBB"/>
  <path d="M272 123H297V124C297 125.657 295.657 127 294 127H275C273.343 127 272 125.657 272 124V123Z" fill="#31BDBB"/>
  <path d="M304 123H329V124C329 125.657 327.657 127 326 127H307C305.343 127 304 125.657 304 124V123Z" fill="#31BDBB"/>
  <path d="M208 123H233V124C233 125.657 231.657 127 230 127H211C209.343 127 208 125.657 208 124V123Z" fill="#31BDBB"/>
  </svg>
