<svg width="560" height="191" viewBox="0 0 560 191" fill="none" xmlns="http://www.w3.org/2000/svg">
  <rect width="560" height="191" fill="#096B6A"/>
  <path d="M172 163C172 167.418 175.582 171 180 171H356C360.418 171 364 167.418 364 163V57C364 52.5817 360.418 49 356 49H180C175.582 49 172 52.5817 172 57V163Z" fill="#E2E5E9"/>
  <rect x="161" y="159" width="214.689" height="12.4951" rx="4" fill="#BCC0C7"/>
  <path fill-rule="evenodd" clip-rule="evenodd" d="M288.228 159C286.033 161.996 282.488 163.941 278.49 163.941H257.738C253.74 163.941 250.195 161.996 248 159H288.228Z" fill="#3C3F48"/>
  <rect x="116" y="93" width="64" height="64" rx="10" transform="rotate(-12 116 93)" fill="white"/>
  <path fill-rule="evenodd" clip-rule="evenodd" d="M132.946 112.15L131.938 107.404C131.386 104.81 133.048 102.252 135.642 101.7L140.388 100.692C140.98 100.566 141.358 99.9831 141.233 99.3906C141.107 98.798 140.524 98.4198 139.932 98.5457L135.186 99.5544C131.409 100.357 128.989 104.083 129.792 107.861L130.801 112.606C130.927 113.199 131.509 113.577 132.102 113.451C132.694 113.325 133.072 112.742 132.946 112.15ZM148.457 138.656C149.05 138.53 149.632 138.908 149.758 139.501C149.884 140.093 149.506 140.676 148.913 140.802L144.168 141.81C140.391 142.613 136.665 140.193 135.862 136.416L134.853 131.671C134.727 131.078 135.105 130.496 135.698 130.37C136.29 130.244 136.873 130.622 136.999 131.215L138.008 135.96C138.559 138.554 141.118 140.216 143.712 139.665L148.457 138.656ZM177.109 122.689L178.118 127.435C178.921 131.212 176.501 134.938 172.724 135.741L167.978 136.749C167.386 136.875 166.803 136.497 166.677 135.905C166.551 135.312 166.929 134.729 167.522 134.604L172.267 133.595C174.861 133.043 176.523 130.485 175.972 127.891L174.963 123.145C174.837 122.553 175.215 121.97 175.808 121.844C176.401 121.718 176.983 122.096 177.109 122.689ZM172.048 98.8787L173.057 103.624C173.183 104.217 172.804 104.799 172.212 104.925C171.619 105.051 171.037 104.673 170.911 104.08L169.902 99.3348C169.351 96.7409 166.792 95.0791 164.198 95.6305L159.452 96.6392C158.86 96.7651 158.277 96.3869 158.151 95.7943C158.025 95.2018 158.404 94.6193 158.996 94.4934L163.742 93.4847C167.519 92.6818 171.245 95.1016 172.048 98.8787ZM163.506 126.177C163.87 125.663 163.748 124.953 163.234 124.589C162.721 124.226 162.01 124.348 161.647 124.861C160.354 126.689 158.435 127.952 156.244 128.418C154.053 128.884 151.786 128.51 149.862 127.366C149.321 127.045 148.622 127.223 148.301 127.763C147.979 128.304 148.157 129.003 148.698 129.325C151.116 130.762 153.964 131.231 156.718 130.646C159.471 130.061 161.882 128.474 163.506 126.177ZM155.078 111.974L156.762 119.897C157.096 121.467 156.09 123.016 154.52 123.35L153.612 123.543C152.997 123.674 152.392 123.281 152.261 122.666C152.13 122.05 152.523 121.445 153.138 121.315L154.046 121.122C154.388 121.049 154.606 120.712 154.534 120.371L152.85 112.448C152.719 111.833 153.112 111.228 153.727 111.097C154.342 110.966 154.947 111.359 155.078 111.974ZM163.416 113.459L162.74 110.281C162.617 109.7 162.045 109.329 161.464 109.452C160.883 109.576 160.512 110.147 160.636 110.728L161.311 113.906C161.435 114.487 162.006 114.858 162.587 114.734C163.168 114.611 163.539 114.04 163.416 113.459ZM143.856 117.616C143.979 118.197 144.551 118.568 145.132 118.445C145.713 118.321 146.084 117.75 145.96 117.169L145.285 113.991C145.161 113.41 144.59 113.039 144.009 113.163C143.428 113.286 143.057 113.858 143.18 114.439L143.856 117.616Z" fill="#6552F4"/>
  <path d="M131.938 107.404L132.28 107.332L131.938 107.404ZM132.946 112.15L132.604 112.223L132.946 112.15ZM135.642 101.7L135.715 102.043L135.642 101.7ZM140.388 100.692L140.315 100.349L140.388 100.692ZM129.792 107.861L129.45 107.933L129.792 107.861ZM130.801 112.606L131.143 112.533L130.801 112.606ZM135.862 136.416L135.519 136.489L135.862 136.416ZM134.853 131.671L135.195 131.598L134.853 131.671ZM178.118 127.435L178.46 127.362L178.118 127.435ZM177.109 122.689L176.767 122.762L177.109 122.689ZM175.972 127.891L175.63 127.963L175.972 127.891ZM174.963 123.145L175.306 123.072L174.963 123.145ZM163.234 124.589L163.436 124.303L163.436 124.303L163.234 124.589ZM163.506 126.177L163.792 126.379L163.792 126.379L163.506 126.177ZM161.647 124.861L161.361 124.659L161.361 124.659L161.647 124.861ZM149.862 127.366L150.041 127.065L150.041 127.065L149.862 127.366ZM148.301 127.763L148 127.585L148 127.585L148.301 127.763ZM148.698 129.325L148.519 129.625L148.519 129.625L148.698 129.325ZM156.762 119.897L157.104 119.825L156.762 119.897ZM155.078 111.974L154.736 112.047L155.078 111.974ZM154.52 123.35L154.593 123.692L154.52 123.35ZM153.612 123.543L153.539 123.201L153.612 123.543ZM153.138 121.315L153.211 121.657L153.138 121.315ZM154.046 121.122L153.974 120.779L154.046 121.122ZM162.74 110.281L162.398 110.354L162.74 110.281ZM163.416 113.459L163.758 113.386L163.416 113.459ZM160.636 110.728L160.293 110.801L160.636 110.728ZM161.311 113.906L161.653 113.833L161.311 113.906ZM143.856 117.616L143.513 117.689L143.856 117.616ZM143.18 114.439L143.523 114.366L143.18 114.439ZM131.595 107.477L132.604 112.223L133.289 112.077L132.28 107.332L131.595 107.477ZM135.569 101.358C132.786 101.949 131.004 104.694 131.595 107.477L132.28 107.332C131.769 104.927 133.31 102.554 135.715 102.043L135.569 101.358ZM140.315 100.349L135.569 101.358L135.715 102.043L140.46 101.034L140.315 100.349ZM140.89 99.4633C140.976 99.8668 140.718 100.263 140.315 100.349L140.46 101.034C141.242 100.868 141.741 100.099 141.575 99.3178L140.89 99.4633ZM140.004 98.8881C140.408 98.8023 140.804 99.0599 140.89 99.4633L141.575 99.3178C141.409 98.5362 140.64 98.0372 139.859 98.2034L140.004 98.8881ZM135.259 99.8968L140.004 98.8881L139.859 98.2034L135.113 99.2121L135.259 99.8968ZM130.134 107.788C129.372 104.2 131.671 100.659 135.259 99.8968L135.113 99.2121C131.147 100.055 128.607 103.967 129.45 107.933L130.134 107.788ZM131.143 112.533L130.134 107.788L129.45 107.933L130.458 112.679L131.143 112.533ZM132.029 113.109C131.625 113.194 131.229 112.937 131.143 112.533L130.458 112.679C130.624 113.46 131.393 113.959 132.174 113.793L132.029 113.109ZM132.604 112.223C132.69 112.626 132.432 113.023 132.029 113.109L132.174 113.793C132.956 113.627 133.455 112.859 133.289 112.077L132.604 112.223ZM150.101 139.428C149.934 138.646 149.166 138.147 148.384 138.314L148.53 138.998C148.933 138.912 149.33 139.17 149.416 139.573L150.101 139.428ZM148.986 141.144C149.768 140.978 150.267 140.21 150.101 139.428L149.416 139.573C149.502 139.977 149.244 140.374 148.841 140.459L148.986 141.144ZM144.241 142.153L148.986 141.144L148.841 140.459L144.095 141.468L144.241 142.153ZM135.519 136.489C136.362 140.455 140.274 142.996 144.241 142.153L144.095 141.468C140.507 142.231 136.967 139.932 136.204 136.344L135.519 136.489ZM134.511 131.744L135.519 136.489L136.204 136.344L135.195 131.598L134.511 131.744ZM135.625 130.027C134.843 130.194 134.345 130.962 134.511 131.744L135.195 131.598C135.11 131.195 135.367 130.798 135.771 130.712L135.625 130.027ZM137.341 131.142C137.175 130.36 136.407 129.861 135.625 130.027L135.771 130.712C136.174 130.626 136.571 130.884 136.656 131.287L137.341 131.142ZM138.35 135.887L137.341 131.142L136.656 131.287L137.665 136.033L138.35 135.887ZM143.639 139.322C141.234 139.833 138.861 138.292 138.35 135.887L137.665 136.033C138.257 138.816 141.001 140.598 143.784 140.007L143.639 139.322ZM148.384 138.314L143.639 139.322L143.784 140.007L148.53 138.998L148.384 138.314ZM178.46 127.362L177.451 122.616L176.767 122.762L177.775 127.507L178.46 127.362ZM172.796 136.083C176.763 135.24 179.303 131.328 178.46 127.362L177.775 127.507C178.538 131.095 176.239 134.636 172.651 135.398L172.796 136.083ZM168.051 137.092L172.796 136.083L172.651 135.398L167.905 136.407L168.051 137.092ZM166.335 135.977C166.501 136.759 167.269 137.258 168.051 137.092L167.905 136.407C167.502 136.493 167.105 136.235 167.019 135.832L166.335 135.977ZM167.449 134.261C166.668 134.427 166.169 135.196 166.335 135.977L167.019 135.832C166.934 135.428 167.191 135.032 167.595 134.946L167.449 134.261ZM172.195 133.252L167.449 134.261L167.595 134.946L172.34 133.937L172.195 133.252ZM175.63 127.963C176.141 130.368 174.6 132.741 172.195 133.252L172.34 133.937C175.123 133.346 176.906 130.601 176.314 127.818L175.63 127.963ZM174.621 123.218L175.63 127.963L176.314 127.818L175.306 123.072L174.621 123.218ZM175.735 121.502C174.954 121.668 174.455 122.436 174.621 123.218L175.306 123.072C175.22 122.669 175.477 122.272 175.881 122.186L175.735 121.502ZM177.451 122.616C177.285 121.835 176.517 121.336 175.735 121.502L175.881 122.186C176.284 122.101 176.681 122.358 176.767 122.762L177.451 122.616ZM173.399 103.552L172.39 98.806L171.706 98.9515L172.714 103.697L173.399 103.552ZM172.285 105.268C173.066 105.101 173.565 104.333 173.399 103.552L172.714 103.697C172.8 104.101 172.542 104.497 172.139 104.583L172.285 105.268ZM170.568 104.153C170.735 104.935 171.503 105.434 172.285 105.268L172.139 104.583C171.736 104.669 171.339 104.411 171.253 104.008L170.568 104.153ZM169.56 99.4076L170.568 104.153L171.253 104.008L170.244 99.2621L169.56 99.4076ZM164.271 95.9728C166.676 95.4617 169.049 97.0027 169.56 99.4076L170.244 99.2621C169.653 96.479 166.908 94.6966 164.125 95.2881L164.271 95.9728ZM159.525 96.9815L164.271 95.9728L164.125 95.2881L159.38 96.2968L159.525 96.9815ZM157.809 95.8671C157.975 96.6487 158.744 97.1477 159.525 96.9815L159.38 96.2968C158.976 96.3826 158.58 96.125 158.494 95.7216L157.809 95.8671ZM158.924 94.151C158.142 94.3172 157.643 95.0855 157.809 95.8671L158.494 95.7216C158.408 95.3181 158.666 94.9215 159.069 94.8357L158.924 94.151ZM163.669 93.1423L158.924 94.151L159.069 94.8357L163.815 93.827L163.669 93.1423ZM172.39 98.806C171.547 94.8397 167.635 92.2993 163.669 93.1423L163.815 93.827C167.403 93.0644 170.943 95.3634 171.706 98.9515L172.39 98.806ZM163.032 124.875C163.388 125.127 163.472 125.619 163.221 125.975L163.792 126.379C164.267 125.708 164.108 124.778 163.436 124.303L163.032 124.875ZM161.932 125.064C162.184 124.708 162.676 124.623 163.032 124.875L163.436 124.303C162.765 123.829 161.836 123.988 161.361 124.659L161.932 125.064ZM156.317 128.76C158.594 128.276 160.589 126.963 161.932 125.064L161.361 124.659C160.119 126.415 158.276 127.628 156.171 128.075L156.317 128.76ZM149.683 127.667C151.683 128.856 154.04 129.244 156.317 128.76L156.171 128.075C154.066 128.523 151.889 128.164 150.041 127.065L149.683 127.667ZM148.602 127.942C148.824 127.568 149.309 127.445 149.683 127.667L150.041 127.065C149.334 126.645 148.42 126.878 148 127.585L148.602 127.942ZM148.877 129.024C148.502 128.801 148.379 128.317 148.602 127.942L148 127.585C147.58 128.291 147.812 129.205 148.519 129.625L148.877 129.024ZM156.645 130.304C153.978 130.871 151.219 130.416 148.877 129.024L148.519 129.625C151.013 131.108 153.951 131.592 156.79 130.988L156.645 130.304ZM163.221 125.975C161.647 128.2 159.312 129.737 156.645 130.304L156.79 130.988C159.63 130.385 162.117 128.748 163.792 126.379L163.221 125.975ZM157.104 119.825L155.42 111.902L154.736 112.047L156.42 119.97L157.104 119.825ZM154.593 123.692C156.352 123.318 157.478 121.584 157.104 119.825L156.42 119.97C156.713 121.351 155.828 122.714 154.447 123.008L154.593 123.692ZM153.685 123.885L154.593 123.692L154.447 123.008L153.539 123.201L153.685 123.885ZM151.919 122.738C152.09 123.543 152.88 124.056 153.685 123.885L153.539 123.201C153.113 123.291 152.694 123.019 152.603 122.593L151.919 122.738ZM153.066 120.972C152.261 121.143 151.748 121.934 151.919 122.738L152.603 122.593C152.513 122.167 152.785 121.748 153.211 121.657L153.066 120.972ZM153.974 120.779L153.066 120.972L153.211 121.657L154.119 121.464L153.974 120.779ZM154.191 120.444C154.224 120.596 154.126 120.747 153.974 120.779L154.119 121.464C154.649 121.351 154.989 120.829 154.876 120.298L154.191 120.444ZM152.507 112.521L154.191 120.444L154.876 120.298L153.192 112.375L152.507 112.521ZM153.654 110.755C152.85 110.926 152.336 111.716 152.507 112.521L153.192 112.375C153.101 111.949 153.373 111.53 153.8 111.439L153.654 110.755ZM155.42 111.902C155.249 111.097 154.459 110.584 153.654 110.755L153.8 111.439C154.226 111.349 154.645 111.621 154.736 112.047L155.42 111.902ZM162.398 110.354L163.073 113.531L163.758 113.386L163.083 110.208L162.398 110.354ZM161.537 109.795C161.929 109.711 162.315 109.962 162.398 110.354L163.083 110.208C162.919 109.438 162.162 108.946 161.392 109.11L161.537 109.795ZM160.978 110.656C160.895 110.264 161.145 109.878 161.537 109.795L161.392 109.11C160.621 109.274 160.13 110.031 160.293 110.801L160.978 110.656ZM161.653 113.833L160.978 110.656L160.293 110.801L160.969 113.979L161.653 113.833ZM162.514 114.392C162.122 114.475 161.737 114.225 161.653 113.833L160.969 113.979C161.132 114.749 161.89 115.241 162.66 115.077L162.514 114.392ZM163.073 113.531C163.157 113.923 162.906 114.309 162.514 114.392L162.66 115.077C163.43 114.913 163.922 114.156 163.758 113.386L163.073 113.531ZM145.059 118.102C144.667 118.186 144.281 117.935 144.198 117.543L143.513 117.689C143.677 118.459 144.434 118.951 145.204 118.787L145.059 118.102ZM145.618 117.242C145.701 117.634 145.451 118.019 145.059 118.102L145.204 118.787C145.975 118.623 146.466 117.866 146.303 117.096L145.618 117.242ZM144.943 114.064L145.618 117.242L146.303 117.096L145.627 113.919L144.943 114.064ZM144.082 113.505C144.474 113.422 144.859 113.672 144.943 114.064L145.627 113.919C145.464 113.148 144.706 112.657 143.936 112.82L144.082 113.505ZM143.523 114.366C143.439 113.974 143.69 113.588 144.082 113.505L143.936 112.82C143.166 112.984 142.674 113.741 142.838 114.511L143.523 114.366ZM144.198 117.543L143.523 114.366L142.838 114.511L143.513 117.689L144.198 117.543Z" fill="#6552F4"/>
  <rect x="347" y="18" width="64" height="64" rx="10" transform="rotate(12 347 18)" fill="#705FF4"/>
  <path d="M386.225 42.6091C386.05 42.5719 385.884 42.4911 385.75 42.3712C382.015 39.317 378.584 37.6287 374.237 36.7047C369.912 35.7853 365.586 35.9391 361.414 37.1985C360.83 37.3711 360.216 37.0352 360.022 36.4459C359.849 35.8612 360.19 35.2258 360.774 35.0533C365.307 33.7105 370.004 33.5218 374.701 34.5202C379.354 35.5092 383.199 37.3996 387.168 40.6406C387.654 41.0407 387.711 41.7378 387.316 42.2017C387.036 42.5532 386.618 42.6927 386.225 42.6091ZM352.526 47.4332C352.308 47.3868 352.103 47.2748 351.934 47.102C351.506 46.6456 351.541 45.9452 351.997 45.5171C354.81 42.9184 358.073 41.1005 361.708 40.1149C369.319 38.034 378.106 39.8788 384.235 44.8804C387.154 47.259 389.401 50.2252 390.918 53.7214C391.165 54.2763 390.907 54.9521 390.331 55.1948C389.754 55.4375 389.1 55.1844 388.857 54.6076C387.476 51.4372 385.445 48.7452 382.817 46.611C377.23 42.0671 369.212 40.363 362.278 42.2681C358.982 43.1658 356.027 44.821 353.476 47.1556C353.236 47.4243 352.876 47.5075 352.526 47.4332ZM360.575 76.7026C360.291 76.6422 360.03 76.4727 359.88 76.2124C358.383 73.9079 357.617 72.4663 356.715 69.5119C355.779 66.5046 355.689 63.0606 356.436 59.5435C357.816 53.0555 364.488 48.9483 371.304 50.397C378.119 51.8458 382.544 58.3117 381.165 64.7998C381.035 65.4115 380.453 65.7899 379.841 65.6599C379.229 65.5299 378.851 64.9471 378.981 64.3355C380.104 59.0489 376.454 53.7749 370.839 52.5816C365.225 51.3882 359.745 54.7213 358.621 60.0079C357.952 63.1536 358.034 66.2076 358.865 68.8501C359.729 71.6595 360.463 72.9342 361.783 74.9957C362.105 75.5208 361.961 76.198 361.453 76.5467C361.166 76.7141 360.859 76.763 360.575 76.7026ZM377.097 75.9905C374.497 75.438 372.343 74.295 370.738 72.6068C367.952 69.7086 366.77 65.7127 367.578 61.9116C367.708 61.3 368.29 60.9215 368.902 61.0515C369.514 61.1816 369.892 61.7643 369.762 62.376C369.107 65.4562 370.063 68.6959 372.347 71.0537C373.675 72.432 375.382 73.3198 377.566 73.7841C378.09 73.8956 378.978 74.0158 379.884 74.0486C380.497 74.0647 380.982 74.5787 380.961 75.2136C380.945 75.8266 380.431 76.311 379.796 76.2902C378.5 76.2658 377.403 76.0555 377.097 75.9905ZM371.75 79.5573C371.662 79.5388 371.558 79.4937 371.475 79.4533C368.206 77.7538 366.208 75.982 364.324 73.1384C361.911 69.4519 361.088 65.0529 362.007 60.7276C362.759 57.1886 366.387 54.9458 370.101 55.7352C373.814 56.5246 376.216 60.0489 375.464 63.5879C374.967 65.9253 376.595 68.2577 379.107 68.7917C381.619 69.3257 384.055 67.857 384.551 65.5195C386.302 57.2838 380.623 49.0901 371.885 47.2328C365.681 45.914 359.267 48.1583 355.574 52.9671C354.346 54.5555 353.468 56.538 352.985 58.8099C352.623 60.5138 352.204 63.2333 352.772 67.0071C352.87 67.6215 352.451 68.1947 351.842 68.2706C351.227 68.3683 350.659 67.9278 350.578 67.3399C350.116 64.2506 350.195 61.2993 350.822 58.3502C351.379 55.7287 352.388 53.4544 353.812 51.588C358.013 46.1108 365.298 43.5266 372.354 45.0264C382.294 47.1391 388.746 56.5248 386.741 65.962C385.988 69.501 382.361 71.7437 378.647 70.9544C374.933 70.165 372.532 66.6406 373.284 63.1017C373.781 60.7643 372.153 58.4319 369.641 57.8979C367.129 57.3639 364.693 58.8326 364.196 61.1701C363.402 64.9056 364.101 68.7073 366.187 71.8906C367.826 74.3852 369.572 75.9437 372.471 77.4504C373.029 77.7287 373.226 78.41 372.953 78.9454C372.737 79.4247 372.208 79.6548 371.75 79.5573Z" fill="white" stroke="white" stroke-width="0.2"/>
  <rect width="8.0678" height="32.0994" transform="matrix(0.948431 -0.316985 -0.316985 -0.948431 66.7617 67.0015)" fill="#0A8281"/>
  <rect width="8.0678" height="32.0994" transform="matrix(-0.316985 -0.948431 -0.948431 0.316985 82 49.2397)" fill="#0A8281"/>
  <rect width="8.0678" height="32.0994" transform="matrix(0.4465 -0.894784 -0.894784 -0.4465 78.0625 61.2775)" fill="#0A8281"/>
  <rect width="8.0678" height="32.0995" transform="matrix(-0.894784 -0.4465 -0.4465 0.894784 76.2773 37.9404)" fill="#0A8281"/>
  <path d="M450.909 142.565C446.502 136.12 448.202 127.442 454.692 123.004C459.501 119.715 465.663 119.595 470.47 122.787L487.793 110.939C488.312 110.585 488.885 110.426 489.544 110.545L494.648 111.564C495.307 111.683 495.904 112.364 495.741 113.2L493.914 122.613C493.745 123.48 492.982 123.976 492.144 123.824L486.758 122.816L485.284 130.406C485.116 131.196 484.377 131.727 483.508 131.569L476.092 130.24C477.432 137.072 475.343 142.803 470.498 146.116C464.026 150.542 455.292 148.974 450.909 142.565ZM461.779 135.131C460.607 133.419 458.241 132.99 456.507 134.176C454.755 135.374 454.302 137.705 455.486 139.435C456.657 141.148 459.023 141.577 460.757 140.391C462.491 139.205 462.95 136.844 461.779 135.131Z" fill="#0A8281"/>
  <rect x="251" y="99.4313" width="34.7473" height="26.0604" rx="4" transform="rotate(-0.11275 251 99.4313)" fill="#31BDBB"/>
  <path d="M256.798 102.315L261.781 102.305L261.766 94.6859C261.763 93.0573 262.053 91.678 262.635 90.5481C263.233 89.4182 264.031 88.5539 265.029 87.9553C266.028 87.3567 267.135 87.0562 268.35 87.0538C269.565 87.0514 270.673 87.3476 271.674 87.9422C272.675 88.5369 273.469 89.398 274.056 90.5256C274.658 91.6532 274.961 93.0313 274.964 94.6599L274.973 99.2072C274.975 100.175 275.215 100.916 275.692 101.431C276.17 101.93 276.771 102.179 277.494 102.177C278.186 102.176 278.77 101.925 279.246 101.424C279.721 100.923 279.958 100.181 279.956 99.1974L279.948 95.0129C279.944 92.8199 279.617 90.9097 278.968 89.2824C278.334 87.655 277.462 86.3022 276.353 85.224C275.243 84.1458 273.996 83.342 272.61 82.8126C271.24 82.2832 269.817 82.0199 268.34 82.0228C266.864 82.0257 265.434 82.2946 264.05 82.8294C262.667 83.3643 261.423 84.173 260.317 85.2556C259.227 86.3381 258.361 87.6943 257.718 89.3242C257.091 90.9541 256.779 92.8655 256.783 95.0585L256.798 102.315Z" fill="#31BDBB"/>
  </svg>
