<svg viewBox="0 0 578 398" fill="none" xmlns="http://www.w3.org/2000/svg">
<g clip-path="url(#clip0_6149_58000)">
<mask id="mask0_6149_58000" style="mask-type:luminance" maskUnits="userSpaceOnUse" x="0" y="0" width="578" height="398">
<path d="M562 0H16C7.16344 0 0 7.16344 0 16V382C0 390.837 7.16344 398 16 398H562C570.837 398 578 390.837 578 382V16C578 7.16344 570.837 0 562 0Z" fill="white"/>
</mask>
<g mask="url(#mask0_6149_58000)">
<path d="M562 0H16C7.16344 0 0 7.16344 0 16V382C0 390.837 7.16344 398 16 398H562C570.837 398 578 390.837 578 382V16C578 7.16344 570.837 0 562 0Z" fill="#F8F8F8"/>
<path d="M694 170H58C52.4772 170 48 174.477 48 180V232C48 237.523 52.4772 242 58 242H694C699.523 242 704 237.523 704 232V180C704 174.477 699.523 170 694 170Z" fill="white"/>
<path fill-rule="evenodd" clip-rule="evenodd" d="M87 220H89C93.714 220 96.0711 220 97.5355 218.536C99 217.071 99 214.714 99 210V203.006C99 201.519 99 200.776 98.7444 200.096C98.4888 199.416 97.9994 198.856 97.0206 197.738L94.3905 194.732C93.2139 193.387 92.6256 192.715 91.8378 192.357C91.05 192 90.1566 192 88.3699 192H87C82.286 192 79.9289 192 78.4645 193.464C77 194.929 77 197.286 77 202V210C77 214.714 77 217.071 78.4645 218.536C79.9289 220 82.286 220 87 220ZM89 218H87C84.5864 218 82.9775 217.996 81.7801 217.835C80.6403 217.682 80.1774 217.42 79.8787 217.121C79.58 216.823 79.3185 216.36 79.1652 215.22C79.0042 214.023 79 212.414 79 210V202C79 199.586 79.0042 197.977 79.1652 196.78C79.3185 195.64 79.58 195.177 79.8787 194.879C80.1774 194.58 80.6403 194.318 81.7801 194.165C82.9775 194.004 84.5864 194 87 194H88.3699C88.6011 194 88.8103 194.001 89 194.002V195.071C89 196.425 88.9999 197.541 89.1188 198.425C89.2435 199.353 89.5155 200.172 90.1716 200.828C90.8277 201.485 91.6471 201.757 92.5749 201.881C93.4587 202 94.5753 202 95.9294 202H96.9937C96.9981 202.265 97 202.593 97 203.006V210C97 212.414 96.9958 214.023 96.8348 215.22C96.6815 216.36 96.42 216.823 96.1213 217.121C95.8226 217.42 95.3597 217.682 94.2199 217.835C93.0225 217.996 91.4136 218 89 218ZM96.3272 200C96.1368 199.77 95.8764 199.467 95.5155 199.055L92.8853 196.049C91.59 194.569 91.3132 194.316 91.0114 194.179C91.0076 194.177 91.0038 194.175 91 194.174V195C91 196.442 91.0021 197.424 91.1009 198.159C91.1958 198.865 91.3632 199.192 91.5858 199.414C91.8084 199.637 92.1354 199.804 92.8414 199.899C93.5763 199.998 94.5575 200 96 200H96.3272Z" fill="#59C698"/>
<path fill-rule="evenodd" clip-rule="evenodd" d="M85.3599 208.43C84.1326 208.43 83.1378 207.439 83.1378 206.215C83.1378 204.992 84.1326 204 85.3599 204C86.5871 204 87.582 204.992 87.582 206.215C87.582 207.439 86.5871 208.43 85.3599 208.43ZM94.8772 213.552L91.8447 207.506C91.5212 206.861 90.64 206.759 90.1769 207.313L86.7507 211.412C86.396 211.836 85.7635 211.894 85.3379 211.54L84.4853 210.832C84.048 210.468 83.3955 210.54 83.0483 210.99L81.1945 213.39C80.6866 214.047 81.1569 215 81.9894 215H93.98C94.7257 215 95.2107 214.217 94.8772 213.552Z" fill="#59C698"/>
<path d="M123.858 201.149C123.241 201.149 122.691 200.992 122.207 200.677C121.727 200.359 121.349 199.906 121.074 199.32C120.802 198.73 120.666 198.022 120.666 197.197C120.666 196.371 120.804 195.665 121.079 195.079C121.357 194.492 121.738 194.043 122.222 193.732C122.706 193.42 123.255 193.264 123.868 193.264C124.342 193.264 124.723 193.344 125.011 193.503C125.303 193.659 125.528 193.841 125.688 194.05C125.85 194.259 125.976 194.442 126.065 194.602H126.155V190.818H127.641V201H126.19V199.812H126.065C125.976 199.974 125.847 200.16 125.678 200.369C125.512 200.577 125.283 200.76 124.991 200.915C124.7 201.071 124.322 201.149 123.858 201.149ZM124.186 199.881C124.614 199.881 124.975 199.769 125.27 199.543C125.568 199.315 125.794 198.998 125.946 198.594C126.102 198.189 126.18 197.719 126.18 197.182C126.18 196.652 126.103 196.187 125.951 195.79C125.799 195.392 125.575 195.082 125.28 194.86C124.985 194.638 124.62 194.527 124.186 194.527C123.739 194.527 123.366 194.643 123.067 194.875C122.769 195.107 122.544 195.424 122.391 195.825C122.242 196.226 122.168 196.678 122.168 197.182C122.168 197.692 122.244 198.151 122.396 198.559C122.549 198.967 122.774 199.29 123.072 199.528C123.374 199.764 123.745 199.881 124.186 199.881ZM132.914 201.154C132.162 201.154 131.514 200.993 130.97 200.672C130.43 200.347 130.012 199.891 129.717 199.305C129.426 198.715 129.28 198.024 129.28 197.232C129.28 196.449 129.426 195.76 129.717 195.163C130.012 194.567 130.423 194.101 130.95 193.766C131.481 193.432 132.1 193.264 132.81 193.264C133.241 193.264 133.658 193.335 134.063 193.478C134.467 193.621 134.83 193.844 135.151 194.149C135.473 194.454 135.726 194.85 135.912 195.337C136.098 195.821 136.19 196.41 136.19 197.102V197.629H130.12V196.516H134.734C134.734 196.125 134.654 195.778 134.495 195.477C134.336 195.172 134.112 194.931 133.824 194.756C133.539 194.58 133.204 194.492 132.82 194.492C132.402 194.492 132.037 194.595 131.726 194.8C131.418 195.003 131.179 195.268 131.01 195.596C130.844 195.921 130.761 196.274 130.761 196.655V197.525C130.761 198.035 130.851 198.469 131.03 198.827C131.212 199.185 131.466 199.459 131.791 199.648C132.115 199.833 132.495 199.926 132.929 199.926C133.211 199.926 133.468 199.886 133.7 199.807C133.932 199.724 134.132 199.601 134.301 199.439C134.47 199.277 134.6 199.076 134.689 198.837L136.096 199.091C135.983 199.505 135.781 199.868 135.489 200.18C135.201 200.488 134.838 200.728 134.401 200.901C133.966 201.07 133.471 201.154 132.914 201.154ZM143.422 195.228L142.075 195.467C142.018 195.294 141.929 195.13 141.806 194.974C141.687 194.819 141.525 194.691 141.319 194.592C141.114 194.492 140.857 194.442 140.548 194.442C140.128 194.442 139.776 194.537 139.495 194.726C139.213 194.911 139.072 195.152 139.072 195.447C139.072 195.702 139.166 195.907 139.355 196.063C139.544 196.219 139.849 196.347 140.27 196.446L141.483 196.724C142.186 196.887 142.709 197.137 143.054 197.475C143.399 197.813 143.571 198.252 143.571 198.793C143.571 199.25 143.439 199.658 143.173 200.016C142.912 200.37 142.545 200.649 142.075 200.851C141.607 201.053 141.066 201.154 140.449 201.154C139.594 201.154 138.896 200.972 138.356 200.607C137.816 200.239 137.484 199.717 137.362 199.041L138.798 198.822C138.888 199.197 139.072 199.48 139.35 199.673C139.629 199.862 139.992 199.956 140.439 199.956C140.926 199.956 141.316 199.855 141.607 199.653C141.899 199.447 142.045 199.197 142.045 198.902C142.045 198.663 141.955 198.463 141.776 198.3C141.601 198.138 141.331 198.015 140.966 197.933L139.673 197.649C138.961 197.487 138.434 197.228 138.093 196.874C137.754 196.519 137.585 196.07 137.585 195.526C137.585 195.076 137.711 194.681 137.963 194.343C138.215 194.005 138.563 193.741 139.007 193.553C139.451 193.36 139.96 193.264 140.534 193.264C141.359 193.264 142.008 193.443 142.482 193.801C142.956 194.156 143.27 194.631 143.422 195.228ZM145.066 201V193.364H146.552V201H145.066ZM145.816 192.185C145.558 192.185 145.336 192.099 145.15 191.927C144.968 191.751 144.877 191.542 144.877 191.3C144.877 191.055 144.968 190.846 145.15 190.674C145.336 190.498 145.558 190.411 145.816 190.411C146.075 190.411 146.295 190.498 146.478 190.674C146.663 190.846 146.756 191.055 146.756 191.3C146.756 191.542 146.663 191.751 146.478 191.927C146.295 192.099 146.075 192.185 145.816 192.185ZM151.614 204.023C151.007 204.023 150.485 203.943 150.048 203.784C149.613 203.625 149.259 203.415 148.984 203.153C148.709 202.891 148.503 202.604 148.367 202.293L149.645 201.766C149.734 201.911 149.854 202.066 150.003 202.228C150.155 202.394 150.361 202.535 150.619 202.651C150.881 202.767 151.218 202.825 151.629 202.825C152.192 202.825 152.658 202.687 153.026 202.412C153.393 202.14 153.577 201.706 153.577 201.109V199.608H153.483C153.393 199.77 153.264 199.951 153.095 200.15C152.929 200.349 152.701 200.521 152.409 200.667C152.117 200.813 151.738 200.886 151.271 200.886C150.667 200.886 150.124 200.745 149.64 200.463C149.159 200.178 148.778 199.759 148.496 199.205C148.218 198.648 148.079 197.964 148.079 197.152C148.079 196.34 148.216 195.644 148.491 195.064C148.77 194.484 149.151 194.04 149.635 193.732C150.119 193.42 150.667 193.264 151.281 193.264C151.755 193.264 152.137 193.344 152.429 193.503C152.721 193.659 152.948 193.841 153.11 194.05C153.276 194.259 153.403 194.442 153.493 194.602H153.602V193.364H155.059V201.169C155.059 201.825 154.907 202.364 154.602 202.785C154.297 203.206 153.884 203.517 153.364 203.719C152.847 203.922 152.263 204.023 151.614 204.023ZM151.599 199.653C152.026 199.653 152.388 199.553 152.683 199.354C152.981 199.152 153.206 198.864 153.359 198.489C153.514 198.112 153.592 197.659 153.592 197.132C153.592 196.618 153.516 196.166 153.364 195.775C153.211 195.384 152.987 195.079 152.692 194.86C152.398 194.638 152.033 194.527 151.599 194.527C151.151 194.527 150.778 194.643 150.48 194.875C150.182 195.104 149.956 195.415 149.804 195.81C149.655 196.204 149.58 196.645 149.58 197.132C149.58 197.633 149.657 198.072 149.809 198.45C149.961 198.827 150.187 199.122 150.485 199.335C150.787 199.547 151.158 199.653 151.599 199.653ZM158.399 196.466V201H156.913V193.364H158.339V194.607H158.434C158.61 194.202 158.885 193.877 159.259 193.632C159.637 193.387 160.113 193.264 160.686 193.264C161.206 193.264 161.662 193.374 162.053 193.592C162.444 193.808 162.748 194.129 162.963 194.557C163.178 194.984 163.286 195.513 163.286 196.143V201H161.8V196.322C161.8 195.768 161.655 195.336 161.367 195.024C161.079 194.709 160.683 194.552 160.179 194.552C159.834 194.552 159.528 194.626 159.259 194.776C158.994 194.925 158.784 195.143 158.628 195.432C158.475 195.717 158.399 196.062 158.399 196.466ZM170.862 195.228L169.515 195.467C169.458 195.294 169.369 195.13 169.246 194.974C169.127 194.819 168.965 194.691 168.759 194.592C168.554 194.492 168.297 194.442 167.988 194.442C167.568 194.442 167.216 194.537 166.935 194.726C166.653 194.911 166.512 195.152 166.512 195.447C166.512 195.702 166.606 195.907 166.795 196.063C166.984 196.219 167.289 196.347 167.71 196.446L168.923 196.724C169.626 196.887 170.149 197.137 170.494 197.475C170.839 197.813 171.011 198.252 171.011 198.793C171.011 199.25 170.879 199.658 170.613 200.016C170.352 200.37 169.985 200.649 169.515 200.851C169.047 201.053 168.506 201.154 167.889 201.154C167.034 201.154 166.336 200.972 165.796 200.607C165.256 200.239 164.924 199.717 164.802 199.041L166.238 198.822C166.328 199.197 166.512 199.48 166.79 199.673C167.069 199.862 167.432 199.956 167.879 199.956C168.366 199.956 168.756 199.855 169.047 199.653C169.339 199.447 169.485 199.197 169.485 198.902C169.485 198.663 169.395 198.463 169.216 198.3C169.041 198.138 168.771 198.015 168.406 197.933L167.113 197.649C166.401 197.487 165.874 197.228 165.533 196.874C165.194 196.519 165.025 196.07 165.025 195.526C165.025 195.076 165.151 194.681 165.403 194.343C165.655 194.005 166.003 193.741 166.447 193.553C166.891 193.36 167.4 193.264 167.974 193.264C168.799 193.264 169.448 193.443 169.922 193.801C170.396 194.156 170.71 194.631 170.862 195.228ZM173.485 201.094C173.213 201.094 172.98 200.998 172.784 200.806C172.588 200.611 172.491 200.375 172.491 200.1C172.491 199.828 172.588 199.596 172.784 199.404C172.98 199.209 173.213 199.111 173.485 199.111C173.757 199.111 173.99 199.209 174.186 199.404C174.382 199.596 174.479 199.828 174.479 200.1C174.479 200.282 174.433 200.45 174.34 200.602C174.251 200.751 174.131 200.871 173.982 200.96C173.833 201.05 173.667 201.094 173.485 201.094ZM179.965 193.364V194.557H175.649V193.364H179.965ZM176.833 201V192.479C176.833 192.001 176.937 191.605 177.146 191.29C177.355 190.972 177.631 190.735 177.976 190.58C178.321 190.42 178.695 190.341 179.1 190.341C179.398 190.341 179.653 190.366 179.865 190.415C180.077 190.462 180.235 190.505 180.338 190.545L179.99 191.748C179.92 191.728 179.83 191.705 179.721 191.678C179.612 191.648 179.479 191.634 179.323 191.634C178.962 191.634 178.704 191.723 178.548 191.902C178.395 192.081 178.319 192.339 178.319 192.678V201H176.833ZM181.358 201V193.364H182.845V201H181.358ZM182.109 192.185C181.851 192.185 181.629 192.099 181.443 191.927C181.261 191.751 181.17 191.542 181.17 191.3C181.17 191.055 181.261 190.846 181.443 190.674C181.629 190.498 181.851 190.411 182.109 190.411C182.368 190.411 182.588 190.498 182.77 190.674C182.956 190.846 183.049 191.055 183.049 191.3C183.049 191.542 182.956 191.751 182.77 191.927C182.588 192.099 182.368 192.185 182.109 192.185ZM186.191 196.466V201H184.705V193.364H186.132V194.607H186.226C186.402 194.202 186.677 193.877 187.051 193.632C187.429 193.387 187.905 193.264 188.478 193.264C188.999 193.264 189.454 193.374 189.845 193.592C190.236 193.808 190.54 194.129 190.755 194.557C190.971 194.984 191.078 195.513 191.078 196.143V201H189.592V196.322C189.592 195.768 189.448 195.336 189.159 195.024C188.871 194.709 188.475 194.552 187.971 194.552C187.626 194.552 187.32 194.626 187.051 194.776C186.786 194.925 186.576 195.143 186.42 195.432C186.267 195.717 186.191 196.062 186.191 196.466ZM195.154 201.169C194.67 201.169 194.233 201.08 193.842 200.901C193.451 200.718 193.141 200.455 192.912 200.11C192.687 199.765 192.574 199.343 192.574 198.842C192.574 198.411 192.657 198.057 192.823 197.778C192.988 197.5 193.212 197.28 193.494 197.117C193.775 196.955 194.09 196.832 194.438 196.749C194.786 196.666 195.141 196.603 195.502 196.56C195.96 196.507 196.331 196.464 196.616 196.431C196.901 196.395 197.108 196.337 197.237 196.257C197.367 196.178 197.431 196.048 197.431 195.869V195.835C197.431 195.4 197.309 195.064 197.063 194.825C196.821 194.587 196.46 194.467 195.98 194.467C195.479 194.467 195.085 194.578 194.796 194.8C194.511 195.019 194.314 195.263 194.205 195.531L192.808 195.213C192.973 194.749 193.215 194.375 193.534 194.089C193.855 193.801 194.225 193.592 194.642 193.463C195.06 193.33 195.499 193.264 195.96 193.264C196.265 193.264 196.588 193.301 196.929 193.374C197.274 193.443 197.595 193.572 197.894 193.761C198.195 193.95 198.442 194.22 198.634 194.572C198.827 194.92 198.923 195.372 198.923 195.929V201H197.471V199.956H197.411C197.315 200.148 197.171 200.337 196.979 200.523C196.787 200.708 196.54 200.862 196.238 200.985C195.936 201.108 195.575 201.169 195.154 201.169ZM195.477 199.976C195.888 199.976 196.24 199.895 196.531 199.732C196.826 199.57 197.05 199.358 197.203 199.096C197.358 198.831 197.436 198.547 197.436 198.246V197.261C197.383 197.314 197.28 197.364 197.128 197.411C196.979 197.454 196.808 197.492 196.616 197.525C196.424 197.555 196.236 197.583 196.054 197.609C195.872 197.633 195.719 197.652 195.597 197.669C195.308 197.705 195.045 197.767 194.806 197.853C194.571 197.939 194.382 198.063 194.239 198.226C194.1 198.385 194.031 198.597 194.031 198.862C194.031 199.23 194.167 199.509 194.438 199.697C194.71 199.883 195.056 199.976 195.477 199.976ZM202.249 190.818V201H200.763V190.818H202.249ZM205.088 201.094C204.817 201.094 204.583 200.998 204.387 200.806C204.192 200.611 204.094 200.375 204.094 200.1C204.094 199.828 204.192 199.596 204.387 199.404C204.583 199.209 204.817 199.111 205.088 199.111C205.36 199.111 205.594 199.209 205.789 199.404C205.985 199.596 206.083 199.828 206.083 200.1C206.083 200.282 206.036 200.45 205.943 200.602C205.854 200.751 205.735 200.871 205.586 200.96C205.436 201.05 205.271 201.094 205.088 201.094ZM211.099 201.139C210.645 201.133 210.198 201.05 209.757 200.891C209.32 200.732 208.922 200.466 208.564 200.095C208.206 199.724 207.919 199.225 207.704 198.599C207.492 197.972 207.386 197.19 207.386 196.252C207.386 195.364 207.474 194.575 207.649 193.886C207.828 193.196 208.085 192.615 208.42 192.141C208.755 191.663 209.159 191.3 209.633 191.052C210.107 190.803 210.639 190.679 211.229 190.679C211.835 190.679 212.374 190.798 212.845 191.037C213.315 191.276 213.696 191.605 213.988 192.026C214.283 192.447 214.47 192.926 214.55 193.463H213.033C212.931 193.039 212.727 192.692 212.422 192.424C212.117 192.156 211.719 192.021 211.229 192.021C210.483 192.021 209.901 192.346 209.484 192.996C209.069 193.645 208.861 194.549 208.857 195.705H208.932C209.108 195.417 209.323 195.172 209.578 194.969C209.837 194.764 210.125 194.607 210.443 194.497C210.765 194.384 211.103 194.328 211.457 194.328C212.047 194.328 212.581 194.472 213.058 194.761C213.539 195.046 213.922 195.44 214.207 195.944C214.492 196.448 214.634 197.024 214.634 197.674C214.634 198.324 214.487 198.912 214.192 199.439C213.9 199.966 213.489 200.384 212.959 200.692C212.429 200.997 211.809 201.146 211.099 201.139ZM211.095 199.847C211.486 199.847 211.835 199.75 212.144 199.558C212.452 199.366 212.695 199.107 212.874 198.783C213.053 198.458 213.143 198.095 213.143 197.694C213.143 197.303 213.055 196.946 212.879 196.625C212.707 196.304 212.468 196.048 212.163 195.859C211.862 195.67 211.517 195.576 211.129 195.576C210.834 195.576 210.561 195.632 210.309 195.745C210.06 195.858 209.842 196.013 209.653 196.212C209.464 196.411 209.315 196.64 209.205 196.898C209.099 197.154 209.046 197.424 209.046 197.709C209.046 198.09 209.134 198.443 209.31 198.768C209.489 199.093 209.732 199.354 210.041 199.553C210.352 199.749 210.703 199.847 211.095 199.847ZM216.84 201.094C216.568 201.094 216.334 200.998 216.139 200.806C215.943 200.611 215.845 200.375 215.845 200.1C215.845 199.828 215.943 199.596 216.139 199.404C216.334 199.209 216.568 199.111 216.84 199.111C217.111 199.111 217.345 199.209 217.541 199.404C217.736 199.596 217.834 199.828 217.834 200.1C217.834 200.282 217.788 200.45 217.695 200.602C217.605 200.751 217.486 200.871 217.337 200.96C217.188 201.05 217.022 201.094 216.84 201.094ZM223.319 193.364V194.557H219.004V193.364H223.319ZM220.187 201V192.479C220.187 192.001 220.292 191.605 220.5 191.29C220.709 190.972 220.986 190.735 221.331 190.58C221.675 190.42 222.05 190.341 222.454 190.341C222.753 190.341 223.008 190.366 223.22 190.415C223.432 190.462 223.589 190.505 223.692 190.545L223.344 191.748C223.275 191.728 223.185 191.705 223.076 191.678C222.966 191.648 222.834 191.634 222.678 191.634C222.317 191.634 222.058 191.723 221.902 191.902C221.75 192.081 221.674 192.339 221.674 192.678V201H220.187ZM224.713 201V193.364H226.2V201H224.713ZM225.464 192.185C225.205 192.185 224.983 192.099 224.798 191.927C224.615 191.751 224.524 191.542 224.524 191.3C224.524 191.055 224.615 190.846 224.798 190.674C224.983 190.498 225.205 190.411 225.464 190.411C225.722 190.411 225.943 190.498 226.125 190.674C226.311 190.846 226.403 191.055 226.403 191.3C226.403 191.542 226.311 191.751 226.125 191.927C225.943 192.099 225.722 192.185 225.464 192.185ZM229.546 196.466V201H228.059V193.364H229.486V194.607H229.581C229.756 194.202 230.031 193.877 230.406 193.632C230.784 193.387 231.259 193.264 231.833 193.264C232.353 193.264 232.809 193.374 233.2 193.592C233.591 193.808 233.894 194.129 234.11 194.557C234.325 194.984 234.433 195.513 234.433 196.143V201H232.946V196.322C232.946 195.768 232.802 195.336 232.514 195.024C232.226 194.709 231.829 194.552 231.326 194.552C230.981 194.552 230.674 194.626 230.406 194.776C230.141 194.925 229.93 195.143 229.775 195.432C229.622 195.717 229.546 196.062 229.546 196.466ZM237.266 201.094C236.994 201.094 236.761 200.998 236.565 200.806C236.369 200.611 236.272 200.375 236.272 200.1C236.272 199.828 236.369 199.596 236.565 199.404C236.761 199.209 236.994 199.111 237.266 199.111C237.538 199.111 237.771 199.209 237.967 199.404C238.162 199.596 238.26 199.828 238.26 200.1C238.26 200.282 238.214 200.45 238.121 200.602C238.032 200.751 237.912 200.871 237.763 200.96C237.614 201.05 237.448 201.094 237.266 201.094ZM240.111 203.864V193.364H241.563V194.602H241.687C241.774 194.442 241.898 194.259 242.06 194.05C242.223 193.841 242.448 193.659 242.736 193.503C243.025 193.344 243.406 193.264 243.88 193.264C244.496 193.264 245.047 193.42 245.53 193.732C246.014 194.043 246.394 194.492 246.669 195.079C246.947 195.665 247.087 196.371 247.087 197.197C247.087 198.022 246.949 198.73 246.674 199.32C246.399 199.906 246.021 200.359 245.54 200.677C245.06 200.992 244.511 201.149 243.895 201.149C243.431 201.149 243.051 201.071 242.756 200.915C242.465 200.76 242.236 200.577 242.07 200.369C241.904 200.16 241.777 199.974 241.687 199.812H241.598V203.864H240.111ZM241.568 197.182C241.568 197.719 241.646 198.189 241.802 198.594C241.958 198.998 242.183 199.315 242.478 199.543C242.773 199.769 243.134 199.881 243.562 199.881C244.006 199.881 244.377 199.764 244.675 199.528C244.974 199.29 245.199 198.967 245.351 198.559C245.507 198.151 245.585 197.692 245.585 197.182C245.585 196.678 245.509 196.226 245.356 195.825C245.207 195.424 244.982 195.107 244.68 194.875C244.382 194.643 244.009 194.527 243.562 194.527C243.131 194.527 242.766 194.638 242.468 194.86C242.173 195.082 241.949 195.392 241.797 195.79C241.644 196.187 241.568 196.652 241.568 197.182ZM250.099 196.466V201H248.612V193.364H250.039V194.607H250.133C250.309 194.202 250.584 193.877 250.959 193.632C251.336 193.387 251.812 193.264 252.385 193.264C252.906 193.264 253.362 193.374 253.753 193.592C254.144 193.808 254.447 194.129 254.662 194.557C254.878 194.984 254.986 195.513 254.986 196.143V201H253.499V196.322C253.499 195.768 253.355 195.336 253.067 195.024C252.778 194.709 252.382 194.552 251.878 194.552C251.534 194.552 251.227 194.626 250.959 194.776C250.693 194.925 250.483 195.143 250.327 195.432C250.175 195.717 250.099 196.062 250.099 196.466ZM260.041 204.023C259.434 204.023 258.912 203.943 258.475 203.784C258.041 203.625 257.686 203.415 257.411 203.153C257.136 202.891 256.93 202.604 256.794 202.293L258.072 201.766C258.162 201.911 258.281 202.066 258.43 202.228C258.583 202.394 258.788 202.535 259.047 202.651C259.308 202.767 259.645 202.825 260.056 202.825C260.619 202.825 261.085 202.687 261.453 202.412C261.821 202.14 262.005 201.706 262.005 201.109V199.608H261.91C261.821 199.77 261.691 199.951 261.522 200.15C261.357 200.349 261.128 200.521 260.836 200.667C260.545 200.813 260.165 200.886 259.698 200.886C259.095 200.886 258.551 200.745 258.067 200.463C257.587 200.178 257.205 199.759 256.924 199.205C256.645 198.648 256.506 197.964 256.506 197.152C256.506 196.34 256.644 195.644 256.919 195.064C257.197 194.484 257.578 194.04 258.062 193.732C258.546 193.42 259.095 193.264 259.708 193.264C260.182 193.264 260.565 193.344 260.856 193.503C261.148 193.659 261.375 193.841 261.537 194.05C261.703 194.259 261.831 194.442 261.92 194.602H262.03V193.364H263.486V201.169C263.486 201.825 263.334 202.364 263.029 202.785C262.724 203.206 262.311 203.517 261.791 203.719C261.274 203.922 260.691 204.023 260.041 204.023ZM260.026 199.653C260.454 199.653 260.815 199.553 261.11 199.354C261.408 199.152 261.633 198.864 261.786 198.489C261.942 198.112 262.02 197.659 262.02 197.132C262.02 196.618 261.943 196.166 261.791 195.775C261.638 195.384 261.415 195.079 261.12 194.86C260.825 194.638 260.46 194.527 260.026 194.527C259.579 194.527 259.206 194.643 258.907 194.875C258.609 195.104 258.384 195.415 258.231 195.81C258.082 196.204 258.008 196.645 258.008 197.132C258.008 197.633 258.084 198.072 258.236 198.45C258.389 198.827 258.614 199.122 258.912 199.335C259.214 199.547 259.585 199.653 260.026 199.653Z" fill="#383C43"/>
<path d="M124.151 212.273V221H122.83V213.594H122.778L120.69 214.957V213.696L122.868 212.273H124.151ZM126.744 221.081C126.511 221.081 126.311 220.999 126.143 220.834C125.976 220.666 125.892 220.464 125.892 220.229C125.892 219.996 125.976 219.797 126.143 219.632C126.311 219.464 126.511 219.381 126.744 219.381C126.977 219.381 127.177 219.464 127.345 219.632C127.512 219.797 127.596 219.996 127.596 220.229C127.596 220.385 127.556 220.528 127.477 220.659C127.4 220.787 127.298 220.889 127.17 220.966C127.042 221.043 126.9 221.081 126.744 221.081ZM129.237 221L133.047 213.466V213.402H128.641V212.273H134.411V213.44L130.614 221H129.237ZM138.948 212.273H140.546L143.324 219.057H143.426L146.205 212.273H147.803V221H146.55V214.685H146.469L143.895 220.987H142.855L140.281 214.68H140.2V221H138.948V212.273ZM149.597 221V212.273H152.793C153.412 212.273 153.925 212.375 154.331 212.58C154.738 212.781 155.042 213.055 155.243 213.402C155.445 213.746 155.546 214.134 155.546 214.565C155.546 214.929 155.479 215.236 155.346 215.486C155.212 215.733 155.033 215.932 154.809 216.082C154.587 216.23 154.343 216.338 154.076 216.406V216.491C154.366 216.506 154.648 216.599 154.924 216.773C155.202 216.943 155.432 217.186 155.614 217.501C155.796 217.817 155.887 218.2 155.887 218.652C155.887 219.098 155.782 219.499 155.572 219.854C155.364 220.206 155.043 220.486 154.608 220.693C154.174 220.898 153.618 221 152.942 221H149.597ZM150.914 219.871H152.814C153.445 219.871 153.897 219.749 154.17 219.504C154.442 219.26 154.579 218.955 154.579 218.588C154.579 218.312 154.509 218.06 154.37 217.83C154.231 217.599 154.032 217.416 153.773 217.28C153.518 217.143 153.214 217.075 152.861 217.075H150.914V219.871ZM150.914 216.048H152.678C152.974 216.048 153.239 215.991 153.475 215.878C153.714 215.764 153.902 215.605 154.042 215.401C154.184 215.193 154.255 214.949 154.255 214.668C154.255 214.307 154.128 214.004 153.875 213.76C153.623 213.516 153.235 213.393 152.712 213.393H150.914V216.048Z" fill="#8A8C91"/>
<path d="M669 258H58C52.4772 258 48 262.477 48 268V320C48 325.523 52.4772 330 58 330H669C674.523 330 679 325.523 679 320V268C679 262.477 674.523 258 669 258Z" fill="white"/>
<path fill-rule="evenodd" clip-rule="evenodd" d="M87 308H89C93.714 308 96.0711 308 97.5355 306.536C99 305.071 99 302.714 99 298V291.006C99 289.519 99 288.776 98.7444 288.096C98.4888 287.416 97.9994 286.856 97.0206 285.738L94.3905 282.732C93.2139 281.387 92.6256 280.715 91.8378 280.357C91.05 280 90.1566 280 88.3699 280H87C82.286 280 79.9289 280 78.4645 281.464C77 282.929 77 285.286 77 290V298C77 302.714 77 305.071 78.4645 306.536C79.9289 308 82.286 308 87 308ZM89 306H87C84.5864 306 82.9775 305.996 81.7801 305.835C80.6403 305.682 80.1774 305.42 79.8787 305.121C79.58 304.823 79.3185 304.36 79.1652 303.22C79.0042 302.023 79 300.414 79 298V290C79 287.586 79.0042 285.977 79.1652 284.78C79.3185 283.64 79.58 283.177 79.8787 282.879C80.1774 282.58 80.6403 282.318 81.7801 282.165C82.9775 282.004 84.5864 282 87 282H88.3699C88.6011 282 88.8103 282.001 89 282.002V283.071C89 284.425 88.9999 285.541 89.1188 286.425C89.2435 287.353 89.5155 288.172 90.1716 288.828C90.8277 289.485 91.6471 289.757 92.5749 289.881C93.4587 290 94.5753 290 95.9294 290H96.9937C96.9981 290.265 97 290.593 97 291.006V298C97 300.414 96.9958 302.023 96.8348 303.22C96.6815 304.36 96.42 304.823 96.1213 305.121C95.8226 305.42 95.3597 305.682 94.2199 305.835C93.0225 305.996 91.4136 306 89 306ZM96.3272 288C96.1368 287.77 95.8764 287.467 95.5155 287.055L92.8853 284.049C91.59 282.569 91.3132 282.316 91.0114 282.179C91.0076 282.177 91.0038 282.175 91 282.174V283C91 284.442 91.0021 285.424 91.1009 286.159C91.1958 286.865 91.3632 287.192 91.5858 287.414C91.8084 287.637 92.1354 287.804 92.8414 287.899C93.5763 287.998 94.5575 288 96 288H96.3272Z" fill="#FF5167"/>
<path fill-rule="evenodd" clip-rule="evenodd" d="M87.2432 289.061C87.6746 288.929 88.0846 289.036 88.3656 289.147C89.1605 289.461 89.4003 290.238 89.4667 290.775C89.5379 291.352 89.4688 292.027 89.3351 292.706C89.3017 292.875 89.2635 293.049 89.2206 293.227C89.5131 293.826 89.8577 294.464 90.2338 295.096C90.6106 295.729 91.0048 296.333 91.3919 296.869C91.712 296.852 92.0177 296.85 92.3041 296.864C92.9687 296.898 93.7121 297.026 94.2618 297.437C94.5618 297.661 94.8117 297.976 94.9296 298.386C95.0446 298.786 95.0086 299.188 94.8985 299.554C94.7964 299.894 94.6206 300.255 94.3038 300.525C93.9597 300.819 93.5455 300.923 93.1488 300.889C92.4718 300.83 91.866 300.375 91.4227 299.968C91.1167 299.688 90.8007 299.347 90.4837 298.964C89.6852 299.074 88.7927 299.261 87.887 299.505C87.3441 299.651 86.8102 299.815 86.3036 299.988C85.9511 300.544 85.5864 301.05 85.2201 301.479C84.7756 301.999 84.2691 302.474 83.7186 302.749C83.1365 303.04 82.3759 303.154 81.6827 302.672C81.3897 302.469 81.0927 302.141 81.0174 301.665C80.9444 301.204 81.1141 300.817 81.287 300.558C81.6106 300.072 82.1835 299.673 82.739 299.357C83.354 299.006 84.1219 298.661 84.962 298.345C85.2961 297.771 85.623 297.141 85.927 296.485C86.4134 295.437 86.8223 294.366 87.1009 293.413C86.8423 292.832 86.6314 292.282 86.4887 291.798C86.3983 291.491 86.328 291.187 86.2945 290.902C86.263 290.633 86.2535 290.3 86.3522 289.977C86.463 289.615 86.7349 289.217 87.2432 289.061ZM87.4518 290.869C87.447 290.86 87.4455 290.854 87.4455 290.854C87.4455 290.854 87.4482 290.858 87.4518 290.869ZM88.3671 295.867C88.1745 296.356 87.9641 296.847 87.7413 297.327C87.7152 297.383 87.6888 297.44 87.6623 297.496C88.1599 297.368 88.6648 297.253 89.1634 297.157C88.9399 296.816 88.7227 296.468 88.5151 296.119C88.4654 296.035 88.416 295.951 88.3671 295.867ZM82.723 301.001C82.723 301.001 82.725 301 82.7285 301C82.7247 301.001 82.723 301.001 82.723 301.001Z" fill="#FF5167"/>
<path d="M122.486 284.466V289H120.999V278.818H122.466V282.607H122.56C122.739 282.196 123.013 281.869 123.381 281.627C123.749 281.385 124.229 281.264 124.822 281.264C125.346 281.264 125.804 281.372 126.195 281.587C126.589 281.803 126.894 282.124 127.109 282.552C127.328 282.976 127.438 283.506 127.438 284.143V289H125.951V284.322C125.951 283.762 125.807 283.327 125.518 283.019C125.23 282.708 124.829 282.552 124.315 282.552C123.964 282.552 123.649 282.626 123.371 282.776C123.096 282.925 122.879 283.143 122.719 283.432C122.564 283.717 122.486 284.062 122.486 284.466ZM132.498 289.154C131.782 289.154 131.157 288.99 130.623 288.662C130.09 288.334 129.676 287.875 129.381 287.285C129.086 286.695 128.938 286.005 128.938 285.217C128.938 284.424 129.086 283.732 129.381 283.138C129.676 282.545 130.09 282.085 130.623 281.756C131.157 281.428 131.782 281.264 132.498 281.264C133.214 281.264 133.838 281.428 134.372 281.756C134.906 282.085 135.32 282.545 135.615 283.138C135.91 283.732 136.057 284.424 136.057 285.217C136.057 286.005 135.91 286.695 135.615 287.285C135.32 287.875 134.906 288.334 134.372 288.662C133.838 288.99 133.214 289.154 132.498 289.154ZM132.503 287.906C132.967 287.906 133.351 287.784 133.656 287.538C133.961 287.293 134.186 286.967 134.332 286.559C134.481 286.151 134.556 285.702 134.556 285.212C134.556 284.724 134.481 284.277 134.332 283.869C134.186 283.458 133.961 283.129 133.656 282.88C133.351 282.631 132.967 282.507 132.503 282.507C132.035 282.507 131.648 282.631 131.339 282.88C131.034 283.129 130.807 283.458 130.658 283.869C130.512 284.277 130.44 284.724 130.44 285.212C130.44 285.702 130.512 286.151 130.658 286.559C130.807 286.967 131.034 287.293 131.339 287.538C131.648 287.784 132.035 287.906 132.503 287.906ZM139 289L136.753 281.364H138.289L139.785 286.972H139.86L141.361 281.364H142.898L144.389 286.947H144.464L145.95 281.364H147.486L145.244 289H143.728L142.177 283.487H142.062L140.511 289H139ZM153.256 284.053V285.341H148.742V284.053H153.256ZM158.662 281.364V282.557H154.491V281.364H158.662ZM155.61 279.534H157.096V286.758C157.096 287.046 157.139 287.263 157.225 287.409C157.312 287.552 157.423 287.649 157.558 287.702C157.698 287.752 157.848 287.777 158.011 287.777C158.13 287.777 158.235 287.769 158.324 287.752C158.414 287.736 158.483 287.722 158.533 287.712L158.801 288.94C158.715 288.973 158.593 289.007 158.433 289.04C158.274 289.076 158.075 289.096 157.837 289.099C157.446 289.106 157.081 289.036 156.743 288.891C156.405 288.745 156.132 288.519 155.923 288.214C155.714 287.91 155.61 287.527 155.61 287.066V279.534ZM163.301 289.154C162.585 289.154 161.96 288.99 161.427 288.662C160.893 288.334 160.479 287.875 160.184 287.285C159.889 286.695 159.741 286.005 159.741 285.217C159.741 284.424 159.889 283.732 160.184 283.138C160.479 282.545 160.893 282.085 161.427 281.756C161.96 281.428 162.585 281.264 163.301 281.264C164.017 281.264 164.642 281.428 165.175 281.756C165.709 282.085 166.123 282.545 166.418 283.138C166.713 283.732 166.861 284.424 166.861 285.217C166.861 286.005 166.713 286.695 166.418 287.285C166.123 287.875 165.709 288.334 165.175 288.662C164.642 288.99 164.017 289.154 163.301 289.154ZM163.306 287.906C163.77 287.906 164.155 287.784 164.459 287.538C164.764 287.293 164.99 286.967 165.136 286.559C165.285 286.151 165.359 285.702 165.359 285.212C165.359 284.724 165.285 284.277 165.136 283.869C164.99 283.458 164.764 283.129 164.459 282.88C164.155 282.631 163.77 282.507 163.306 282.507C162.839 282.507 162.451 282.631 162.143 282.88C161.838 283.129 161.611 283.458 161.462 283.869C161.316 284.277 161.243 284.724 161.243 285.212C161.243 285.702 161.316 286.151 161.462 286.559C161.611 286.967 161.838 287.293 162.143 287.538C162.451 287.784 162.839 287.906 163.306 287.906ZM172.879 284.053V285.341H168.365V284.053H172.879ZM174.84 289V278.818H176.326V282.602H176.416C176.502 282.442 176.626 282.259 176.789 282.05C176.951 281.841 177.176 281.659 177.465 281.503C177.753 281.344 178.134 281.264 178.608 281.264C179.225 281.264 179.775 281.42 180.259 281.732C180.743 282.043 181.122 282.492 181.397 283.079C181.676 283.665 181.815 284.371 181.815 285.197C181.815 286.022 181.677 286.73 181.402 287.32C181.127 287.906 180.749 288.359 180.269 288.677C179.788 288.992 179.24 289.149 178.623 289.149C178.159 289.149 177.78 289.071 177.485 288.915C177.193 288.76 176.964 288.577 176.799 288.369C176.633 288.16 176.505 287.974 176.416 287.812H176.291V289H174.84ZM176.296 285.182C176.296 285.719 176.374 286.189 176.53 286.594C176.686 286.998 176.911 287.315 177.206 287.543C177.501 287.769 177.863 287.881 178.29 287.881C178.734 287.881 179.105 287.764 179.404 287.528C179.702 287.29 179.927 286.967 180.08 286.559C180.236 286.151 180.314 285.692 180.314 285.182C180.314 284.678 180.237 284.226 180.085 283.825C179.936 283.424 179.71 283.107 179.409 282.875C179.11 282.643 178.738 282.527 178.29 282.527C177.859 282.527 177.495 282.638 177.196 282.86C176.901 283.082 176.678 283.392 176.525 283.79C176.373 284.187 176.296 284.652 176.296 285.182ZM186.635 289.154C185.883 289.154 185.235 288.993 184.691 288.672C184.151 288.347 183.734 287.891 183.439 287.305C183.147 286.715 183.001 286.024 183.001 285.232C183.001 284.449 183.147 283.76 183.439 283.163C183.734 282.567 184.145 282.101 184.672 281.766C185.202 281.432 185.822 281.264 186.531 281.264C186.962 281.264 187.379 281.335 187.784 281.478C188.188 281.621 188.551 281.844 188.873 282.149C189.194 282.454 189.448 282.85 189.633 283.337C189.819 283.821 189.912 284.41 189.912 285.102V285.629H183.841V284.516H188.455C188.455 284.125 188.375 283.778 188.216 283.477C188.057 283.172 187.833 282.931 187.545 282.756C187.26 282.58 186.925 282.492 186.541 282.492C186.123 282.492 185.759 282.595 185.447 282.8C185.139 283.003 184.9 283.268 184.731 283.596C184.565 283.921 184.483 284.274 184.483 284.655V285.525C184.483 286.035 184.572 286.469 184.751 286.827C184.933 287.185 185.187 287.459 185.512 287.648C185.837 287.833 186.216 287.926 186.65 287.926C186.932 287.926 187.189 287.886 187.421 287.807C187.653 287.724 187.853 287.601 188.022 287.439C188.191 287.277 188.321 287.076 188.41 286.837L189.817 287.091C189.704 287.505 189.502 287.868 189.211 288.18C188.922 288.488 188.559 288.728 188.122 288.901C187.688 289.07 187.192 289.154 186.635 289.154ZM195.92 284.053V285.341H191.406V284.053H195.92ZM203.484 283.228L202.136 283.467C202.08 283.294 201.991 283.13 201.868 282.974C201.749 282.819 201.586 282.691 201.381 282.592C201.175 282.492 200.918 282.442 200.61 282.442C200.189 282.442 199.838 282.537 199.556 282.726C199.274 282.911 199.134 283.152 199.134 283.447C199.134 283.702 199.228 283.907 199.417 284.063C199.606 284.219 199.911 284.347 200.332 284.446L201.545 284.724C202.247 284.887 202.771 285.137 203.116 285.475C203.46 285.813 203.633 286.252 203.633 286.793C203.633 287.25 203.5 287.658 203.235 288.016C202.973 288.37 202.607 288.649 202.136 288.851C201.669 289.053 201.127 289.154 200.511 289.154C199.656 289.154 198.958 288.972 198.418 288.607C197.877 288.239 197.546 287.717 197.423 287.041L198.86 286.822C198.95 287.197 199.134 287.48 199.412 287.673C199.69 287.862 200.053 287.956 200.501 287.956C200.988 287.956 201.377 287.855 201.669 287.653C201.961 287.447 202.107 287.197 202.107 286.902C202.107 286.663 202.017 286.463 201.838 286.3C201.662 286.138 201.392 286.015 201.028 285.933L199.735 285.649C199.023 285.487 198.496 285.228 198.154 284.874C197.816 284.519 197.647 284.07 197.647 283.526C197.647 283.076 197.773 282.681 198.025 282.343C198.277 282.005 198.625 281.741 199.069 281.553C199.513 281.36 200.022 281.264 200.595 281.264C201.42 281.264 202.07 281.443 202.544 281.801C203.018 282.156 203.331 282.631 203.484 283.228ZM207.35 289.169C206.866 289.169 206.428 289.08 206.037 288.901C205.646 288.718 205.336 288.455 205.107 288.11C204.882 287.765 204.769 287.343 204.769 286.842C204.769 286.411 204.852 286.057 205.018 285.778C205.184 285.5 205.407 285.28 205.689 285.117C205.971 284.955 206.286 284.832 206.634 284.749C206.982 284.666 207.336 284.603 207.698 284.56C208.155 284.507 208.526 284.464 208.811 284.431C209.096 284.395 209.303 284.337 209.433 284.257C209.562 284.178 209.627 284.048 209.627 283.869V283.835C209.627 283.4 209.504 283.064 209.259 282.825C209.017 282.587 208.655 282.467 208.175 282.467C207.674 282.467 207.28 282.578 206.992 282.8C206.707 283.019 206.509 283.263 206.4 283.531L205.003 283.213C205.169 282.749 205.411 282.375 205.729 282.089C206.05 281.801 206.42 281.592 206.837 281.463C207.255 281.33 207.694 281.264 208.155 281.264C208.46 281.264 208.783 281.301 209.124 281.374C209.469 281.443 209.791 281.572 210.089 281.761C210.391 281.95 210.637 282.22 210.83 282.572C211.022 282.92 211.118 283.372 211.118 283.929V289H209.666V287.956H209.607C209.511 288.148 209.366 288.337 209.174 288.523C208.982 288.708 208.735 288.862 208.433 288.985C208.132 289.108 207.77 289.169 207.35 289.169ZM207.673 287.976C208.084 287.976 208.435 287.895 208.727 287.732C209.022 287.57 209.245 287.358 209.398 287.096C209.554 286.831 209.632 286.547 209.632 286.246V285.261C209.578 285.314 209.476 285.364 209.323 285.411C209.174 285.454 209.003 285.492 208.811 285.525C208.619 285.555 208.432 285.583 208.249 285.609C208.067 285.633 207.915 285.652 207.792 285.669C207.504 285.705 207.24 285.767 207.002 285.853C206.766 285.939 206.577 286.063 206.435 286.226C206.296 286.385 206.226 286.597 206.226 286.862C206.226 287.23 206.362 287.509 206.634 287.697C206.905 287.883 207.252 287.976 207.673 287.976ZM216.592 281.364V282.557H212.277V281.364H216.592ZM213.46 289V280.479C213.46 280.001 213.564 279.605 213.773 279.29C213.982 278.972 214.259 278.735 214.604 278.58C214.948 278.42 215.323 278.341 215.727 278.341C216.025 278.341 216.281 278.366 216.493 278.415C216.705 278.462 216.862 278.505 216.965 278.545L216.617 279.748C216.547 279.728 216.458 279.705 216.349 279.678C216.239 279.648 216.107 279.634 215.951 279.634C215.59 279.634 215.331 279.723 215.175 279.902C215.023 280.081 214.947 280.339 214.947 280.678V289H213.46ZM220.976 289.154C220.224 289.154 219.576 288.993 219.032 288.672C218.492 288.347 218.075 287.891 217.78 287.305C217.488 286.715 217.342 286.024 217.342 285.232C217.342 284.449 217.488 283.76 217.78 283.163C218.075 282.567 218.486 282.101 219.013 281.766C219.543 281.432 220.163 281.264 220.872 281.264C221.303 281.264 221.72 281.335 222.125 281.478C222.529 281.621 222.892 281.844 223.214 282.149C223.535 282.454 223.789 282.85 223.974 283.337C224.16 283.821 224.253 284.41 224.253 285.102V285.629H218.182V284.516H222.796C222.796 284.125 222.716 283.778 222.557 283.477C222.398 283.172 222.174 282.931 221.886 282.756C221.601 282.58 221.266 282.492 220.882 282.492C220.464 282.492 220.1 282.595 219.788 282.8C219.48 283.003 219.241 283.268 219.072 283.596C218.907 283.921 218.824 284.274 218.824 284.655V285.525C218.824 286.035 218.913 286.469 219.092 286.827C219.274 287.185 219.528 287.459 219.853 287.648C220.178 287.833 220.557 287.926 220.991 287.926C221.273 287.926 221.53 287.886 221.762 287.807C221.994 287.724 222.194 287.601 222.363 287.439C222.532 287.277 222.662 287.076 222.751 286.837L224.158 287.091C224.045 287.505 223.843 287.868 223.552 288.18C223.263 288.488 222.9 288.728 222.463 288.901C222.029 289.07 221.533 289.154 220.976 289.154ZM230.261 284.053V285.341H225.747V284.053H230.261ZM235.319 289.154C234.603 289.154 233.978 288.99 233.445 288.662C232.911 288.334 232.497 287.875 232.202 287.285C231.907 286.695 231.759 286.005 231.759 285.217C231.759 284.424 231.907 283.732 232.202 283.138C232.497 282.545 232.911 282.085 233.445 281.756C233.978 281.428 234.603 281.264 235.319 281.264C236.035 281.264 236.66 281.428 237.193 281.756C237.727 282.085 238.141 282.545 238.436 283.138C238.731 283.732 238.879 284.424 238.879 285.217C238.879 286.005 238.731 286.695 238.436 287.285C238.141 287.875 237.727 288.334 237.193 288.662C236.66 288.99 236.035 289.154 235.319 289.154ZM235.324 287.906C235.788 287.906 236.172 287.784 236.477 287.538C236.782 287.293 237.008 286.967 237.154 286.559C237.303 286.151 237.377 285.702 237.377 285.212C237.377 284.724 237.303 284.277 237.154 283.869C237.008 283.458 236.782 283.129 236.477 282.88C236.172 282.631 235.788 282.507 235.324 282.507C234.857 282.507 234.469 282.631 234.161 282.88C233.856 283.129 233.629 283.458 233.48 283.869C233.334 284.277 233.261 284.724 233.261 285.212C233.261 285.702 233.334 286.151 233.48 286.559C233.629 286.967 233.856 287.293 234.161 287.538C234.469 287.784 234.857 287.906 235.324 287.906ZM241.884 284.466V289H240.398V281.364H241.825V282.607H241.919C242.095 282.202 242.37 281.877 242.745 281.632C243.122 281.387 243.598 281.264 244.171 281.264C244.692 281.264 245.147 281.374 245.539 281.592C245.93 281.808 246.233 282.129 246.448 282.557C246.664 282.984 246.772 283.513 246.772 284.143V289H245.285V284.322C245.285 283.768 245.141 283.336 244.853 283.024C244.564 282.709 244.168 282.552 243.664 282.552C243.32 282.552 243.013 282.626 242.745 282.776C242.479 282.925 242.269 283.143 242.113 283.432C241.961 283.717 241.884 284.062 241.884 284.466ZM250.112 278.818V289H248.625V278.818H250.112ZM251.971 289V281.364H253.458V289H251.971ZM252.722 280.185C252.464 280.185 252.242 280.099 252.056 279.927C251.874 279.751 251.783 279.542 251.783 279.3C251.783 279.055 251.874 278.846 252.056 278.674C252.242 278.498 252.464 278.411 252.722 278.411C252.981 278.411 253.201 278.498 253.383 278.674C253.569 278.846 253.662 279.055 253.662 279.3C253.662 279.542 253.569 279.751 253.383 279.927C253.201 280.099 252.981 280.185 252.722 280.185ZM256.804 284.466V289H255.318V281.364H256.745V282.607H256.839C257.015 282.202 257.29 281.877 257.664 281.632C258.042 281.387 258.518 281.264 259.091 281.264C259.612 281.264 260.067 281.374 260.458 281.592C260.85 281.808 261.153 282.129 261.368 282.557C261.584 282.984 261.691 283.513 261.691 284.143V289H260.205V284.322C260.205 283.768 260.061 283.336 259.772 283.024C259.484 282.709 259.088 282.552 258.584 282.552C258.239 282.552 257.933 282.626 257.664 282.776C257.399 282.925 257.189 283.143 257.033 283.432C256.881 283.717 256.804 284.062 256.804 284.466ZM266.836 289.154C266.084 289.154 265.436 288.993 264.892 288.672C264.352 288.347 263.934 287.891 263.639 287.305C263.348 286.715 263.202 286.024 263.202 285.232C263.202 284.449 263.348 283.76 263.639 283.163C263.934 282.567 264.345 282.101 264.872 281.766C265.403 281.432 266.022 281.264 266.732 281.264C267.163 281.264 267.58 281.335 267.985 281.478C268.389 281.621 268.752 281.844 269.073 282.149C269.395 282.454 269.648 282.85 269.834 283.337C270.02 283.821 270.112 284.41 270.112 285.102V285.629H264.042V284.516H268.656C268.656 284.125 268.576 283.778 268.417 283.477C268.258 283.172 268.034 282.931 267.746 282.756C267.461 282.58 267.126 282.492 266.742 282.492C266.324 282.492 265.96 282.595 265.648 282.8C265.34 283.003 265.101 283.268 264.932 283.596C264.766 283.921 264.683 284.274 264.683 284.655V285.525C264.683 286.035 264.773 286.469 264.952 286.827C265.134 287.185 265.388 287.459 265.713 287.648C266.037 287.833 266.417 287.926 266.851 287.926C267.133 287.926 267.39 287.886 267.622 287.807C267.854 287.724 268.054 287.601 268.223 287.439C268.392 287.277 268.522 287.076 268.611 286.837L270.018 287.091C269.905 287.505 269.703 287.868 269.411 288.18C269.123 288.488 268.76 288.728 268.323 288.901C267.889 289.07 267.393 289.154 266.836 289.154ZM272.601 289.094C272.329 289.094 272.096 288.998 271.9 288.806C271.705 288.611 271.607 288.375 271.607 288.1C271.607 287.828 271.705 287.596 271.9 287.404C272.096 287.209 272.329 287.111 272.601 287.111C272.873 287.111 273.107 287.209 273.302 287.404C273.498 287.596 273.596 287.828 273.596 288.1C273.596 288.282 273.549 288.45 273.456 288.602C273.367 288.751 273.247 288.871 273.098 288.96C272.949 289.05 272.783 289.094 272.601 289.094ZM275.447 291.864V281.364H276.898V282.602H277.023C277.109 282.442 277.233 282.259 277.395 282.05C277.558 281.841 277.783 281.659 278.072 281.503C278.36 281.344 278.741 281.264 279.215 281.264C279.832 281.264 280.382 281.42 280.866 281.732C281.35 282.043 281.729 282.492 282.004 283.079C282.283 283.665 282.422 284.371 282.422 285.197C282.422 286.022 282.284 286.73 282.009 287.32C281.734 287.906 281.356 288.359 280.876 288.677C280.395 288.992 279.846 289.149 279.23 289.149C278.766 289.149 278.386 289.071 278.092 288.915C277.8 288.76 277.571 288.577 277.405 288.369C277.24 288.16 277.112 287.974 277.023 287.812H276.933V291.864H275.447ZM276.903 285.182C276.903 285.719 276.981 286.189 277.137 286.594C277.293 286.998 277.518 287.315 277.813 287.543C278.108 287.769 278.469 287.881 278.897 287.881C279.341 287.881 279.712 287.764 280.011 287.528C280.309 287.29 280.534 286.967 280.687 286.559C280.842 286.151 280.92 285.692 280.92 285.182C280.92 284.678 280.844 284.226 280.692 283.825C280.543 283.424 280.317 283.107 280.016 282.875C279.717 282.643 279.344 282.527 278.897 282.527C278.466 282.527 278.101 282.638 277.803 282.86C277.508 283.082 277.284 283.392 277.132 283.79C276.98 284.187 276.903 284.652 276.903 285.182ZM286.806 289.149C286.189 289.149 285.639 288.992 285.155 288.677C284.675 288.359 284.297 287.906 284.022 287.32C283.75 286.73 283.614 286.022 283.614 285.197C283.614 284.371 283.752 283.665 284.027 283.079C284.305 282.492 284.686 282.043 285.17 281.732C285.654 281.42 286.203 281.264 286.816 281.264C287.29 281.264 287.671 281.344 287.959 281.503C288.251 281.659 288.476 281.841 288.635 282.05C288.798 282.259 288.924 282.442 289.013 282.602H289.103V278.818H290.589V289H289.138V287.812H289.013C288.924 287.974 288.795 288.16 288.626 288.369C288.46 288.577 288.231 288.76 287.939 288.915C287.648 289.071 287.27 289.149 286.806 289.149ZM287.134 287.881C287.562 287.881 287.923 287.769 288.218 287.543C288.516 287.315 288.742 286.998 288.894 286.594C289.05 286.189 289.128 285.719 289.128 285.182C289.128 284.652 289.051 284.187 288.899 283.79C288.746 283.392 288.523 283.082 288.228 282.86C287.933 282.638 287.568 282.527 287.134 282.527C286.687 282.527 286.314 282.643 286.015 282.875C285.717 283.107 285.492 283.424 285.339 283.825C285.19 284.226 285.116 284.678 285.116 285.182C285.116 285.692 285.192 286.151 285.344 286.559C285.497 286.967 285.722 287.29 286.02 287.528C286.322 287.764 286.693 287.881 287.134 287.881ZM296.205 281.364V282.557H291.89V281.364H296.205ZM293.073 289V280.479C293.073 280.001 293.177 279.605 293.386 279.29C293.595 278.972 293.872 278.735 294.217 278.58C294.561 278.42 294.936 278.341 295.34 278.341C295.638 278.341 295.894 278.366 296.106 278.415C296.318 278.462 296.475 278.505 296.578 278.545L296.23 279.748C296.16 279.728 296.071 279.705 295.962 279.678C295.852 279.648 295.72 279.634 295.564 279.634C295.203 279.634 294.944 279.723 294.788 279.902C294.636 280.081 294.56 280.339 294.56 280.678V289H293.073Z" fill="#383C43"/>
<path d="M123.886 309.119C123.497 309.114 123.114 309.043 122.736 308.906C122.361 308.77 122.02 308.543 121.713 308.224C121.406 307.906 121.161 307.479 120.976 306.942C120.794 306.405 120.703 305.734 120.703 304.93C120.703 304.169 120.778 303.493 120.929 302.902C121.082 302.311 121.303 301.812 121.589 301.406C121.876 300.997 122.223 300.686 122.629 300.473C123.036 300.26 123.491 300.153 123.997 300.153C124.517 300.153 124.979 300.256 125.382 300.46C125.786 300.665 126.112 300.947 126.362 301.308C126.615 301.669 126.776 302.08 126.844 302.54H125.544C125.456 302.176 125.281 301.879 125.02 301.649C124.759 301.419 124.418 301.304 123.997 301.304C123.358 301.304 122.859 301.582 122.501 302.139C122.146 302.696 121.967 303.47 121.964 304.462H122.028C122.179 304.214 122.364 304.004 122.582 303.831C122.804 303.655 123.051 303.52 123.324 303.426C123.599 303.33 123.889 303.281 124.193 303.281C124.699 303.281 125.156 303.405 125.565 303.652C125.977 303.896 126.305 304.234 126.55 304.666C126.794 305.098 126.916 305.592 126.916 306.149C126.916 306.706 126.79 307.21 126.537 307.662C126.287 308.114 125.935 308.472 125.48 308.736C125.026 308.997 124.494 309.125 123.886 309.119ZM123.882 308.011C124.217 308.011 124.517 307.929 124.781 307.764C125.045 307.599 125.254 307.378 125.408 307.099C125.561 306.821 125.638 306.51 125.638 306.166C125.638 305.831 125.563 305.526 125.412 305.25C125.264 304.974 125.06 304.756 124.798 304.594C124.54 304.432 124.244 304.351 123.912 304.351C123.659 304.351 123.425 304.399 123.209 304.496C122.996 304.592 122.808 304.726 122.646 304.896C122.484 305.067 122.357 305.263 122.263 305.484C122.172 305.703 122.126 305.935 122.126 306.179C122.126 306.506 122.202 306.808 122.352 307.087C122.506 307.365 122.714 307.589 122.979 307.76C123.246 307.928 123.547 308.011 123.882 308.011ZM128.806 309.081C128.574 309.081 128.373 308.999 128.206 308.834C128.038 308.666 127.954 308.464 127.954 308.229C127.954 307.996 128.038 307.797 128.206 307.632C128.373 307.464 128.574 307.381 128.806 307.381C129.039 307.381 129.24 307.464 129.407 307.632C129.575 307.797 129.659 307.996 129.659 308.229C129.659 308.385 129.619 308.528 129.539 308.659C129.463 308.787 129.36 308.889 129.233 308.966C129.105 309.043 128.963 309.081 128.806 309.081ZM133.485 300.273V309H132.164V301.594H132.113L130.025 302.957V301.696L132.202 300.273H133.485ZM138.901 300.273H140.499L143.277 307.057H143.379L146.158 300.273H147.756V309H146.503V302.685H146.422L143.848 308.987H142.808L140.234 302.68H140.154V309H138.901V300.273ZM149.55 309V300.273H152.746C153.366 300.273 153.878 300.375 154.285 300.58C154.691 300.781 154.995 301.055 155.197 301.402C155.398 301.746 155.499 302.134 155.499 302.565C155.499 302.929 155.432 303.236 155.299 303.486C155.165 303.733 154.986 303.932 154.762 304.082C154.54 304.23 154.296 304.338 154.029 304.406V304.491C154.319 304.506 154.601 304.599 154.877 304.773C155.155 304.943 155.385 305.186 155.567 305.501C155.749 305.817 155.84 306.2 155.84 306.652C155.84 307.098 155.735 307.499 155.525 307.854C155.317 308.206 154.996 308.486 154.562 308.693C154.127 308.898 153.572 309 152.895 309H149.55ZM150.867 307.871H152.768C153.398 307.871 153.85 307.749 154.123 307.504C154.395 307.26 154.532 306.955 154.532 306.588C154.532 306.312 154.462 306.06 154.323 305.83C154.184 305.599 153.985 305.416 153.726 305.28C153.471 305.143 153.167 305.075 152.814 305.075H150.867V307.871ZM150.867 304.048H152.631C152.927 304.048 153.192 303.991 153.428 303.878C153.667 303.764 153.856 303.605 153.995 303.401C154.137 303.193 154.208 302.949 154.208 302.668C154.208 302.307 154.081 302.004 153.829 301.76C153.576 301.516 153.188 301.393 152.665 301.393H150.867V304.048Z" fill="#8A8C91"/>
<path d="M701 346H58C52.4772 346 48 350.477 48 356V408C48 413.523 52.4772 418 58 418H701C706.523 418 711 413.523 711 408V356C711 350.477 706.523 346 701 346Z" fill="white"/>
<path fill-rule="evenodd" clip-rule="evenodd" d="M87 396H89C93.714 396 96.0711 396 97.5355 394.536C99 393.071 99 390.714 99 386V379.006C99 377.519 99 376.776 98.7444 376.096C98.4888 375.416 97.9994 374.856 97.0206 373.738L94.3905 370.732C93.2139 369.387 92.6256 368.715 91.8378 368.357C91.05 368 90.1566 368 88.3699 368H87C82.286 368 79.9289 368 78.4645 369.464C77 370.929 77 373.286 77 378V386C77 390.714 77 393.071 78.4645 394.536C79.9289 396 82.286 396 87 396ZM89 394H87C84.5864 394 82.9775 393.996 81.7801 393.835C80.6403 393.682 80.1774 393.42 79.8787 393.121C79.58 392.823 79.3185 392.36 79.1652 391.22C79.0042 390.023 79 388.414 79 386V378C79 375.586 79.0042 373.977 79.1652 372.78C79.3185 371.64 79.58 371.177 79.8787 370.879C80.1774 370.58 80.6403 370.318 81.7801 370.165C82.9775 370.004 84.5864 370 87 370H88.3699C88.6011 370 88.8103 370.001 89 370.002V371.071C89 372.425 88.9999 373.541 89.1188 374.425C89.2435 375.353 89.5155 376.172 90.1716 376.828C90.8277 377.485 91.6471 377.757 92.5749 377.881C93.4587 378 94.5753 378 95.9294 378H96.9937C96.9981 378.265 97 378.593 97 379.006V386C97 388.414 96.9958 390.023 96.8348 391.22C96.6815 392.36 96.42 392.823 96.1213 393.121C95.8226 393.42 95.3597 393.682 94.2199 393.835C93.0225 393.996 91.4136 394 89 394ZM96.3272 376C96.1368 375.77 95.8764 375.467 95.5155 375.055L92.8853 372.049C91.59 370.569 91.3132 370.316 91.0114 370.179C91.0076 370.177 91.0038 370.175 91 370.174V371C91 372.442 91.0021 373.424 91.1009 374.159C91.1958 374.865 91.3632 375.192 91.5858 375.414C91.8084 375.637 92.1354 375.804 92.8414 375.899C93.5763 375.998 94.5575 376 96 376H96.3272Z" fill="#FF7853"/>
<path fill-rule="evenodd" clip-rule="evenodd" d="M92.083 385.295C92.6403 385.295 93.1048 384.837 92.9782 384.294C92.6003 382.674 91.3252 381.399 89.7053 381.021C89.1624 380.894 88.7045 381.358 88.7045 381.915V384.285C88.7045 384.842 89.1554 385.295 89.7128 385.295H92.083ZM92.1063 387.394C92.2269 386.85 91.7643 386.392 91.2069 386.392H88.6158C88.0584 386.392 87.6077 385.941 87.6077 385.384V382.793C87.6077 382.236 87.1503 381.773 86.6061 381.894C84.543 382.351 83 384.191 83 386.392C83 388.937 85.0629 391 87.6077 391C89.8085 391 91.649 389.457 92.1063 387.394Z" fill="#FF7853"/>
<path d="M120.999 377V369.364H122.486V377H120.999ZM121.75 368.185C121.491 368.185 121.269 368.099 121.084 367.927C120.902 367.751 120.81 367.542 120.81 367.3C120.81 367.055 120.902 366.846 121.084 366.674C121.269 366.498 121.491 366.411 121.75 366.411C122.009 366.411 122.229 366.498 122.411 366.674C122.597 366.846 122.69 367.055 122.69 367.3C122.69 367.542 122.597 367.751 122.411 367.927C122.229 368.099 122.009 368.185 121.75 368.185ZM124.346 377V369.364H125.772V370.607H125.867C126.026 370.186 126.286 369.857 126.647 369.622C127.009 369.384 127.441 369.264 127.945 369.264C128.455 369.264 128.883 369.384 129.228 369.622C129.576 369.861 129.833 370.189 129.998 370.607H130.078C130.26 370.199 130.55 369.874 130.948 369.632C131.346 369.387 131.82 369.264 132.37 369.264C133.062 369.264 133.628 369.481 134.065 369.915C134.506 370.35 134.726 371.004 134.726 371.879V377H133.24V372.018C133.24 371.501 133.099 371.127 132.817 370.895C132.535 370.663 132.199 370.547 131.808 370.547C131.324 370.547 130.948 370.696 130.679 370.994C130.411 371.289 130.277 371.669 130.277 372.133V377H128.795V371.924C128.795 371.51 128.666 371.177 128.407 370.925C128.149 370.673 127.812 370.547 127.398 370.547C127.116 370.547 126.856 370.621 126.618 370.771C126.382 370.916 126.192 371.12 126.046 371.382C125.903 371.644 125.832 371.947 125.832 372.292V377H124.346ZM136.579 379.864V369.364H138.03V370.602H138.155C138.241 370.442 138.365 370.259 138.528 370.05C138.69 369.841 138.915 369.659 139.204 369.503C139.492 369.344 139.873 369.264 140.347 369.264C140.964 369.264 141.514 369.42 141.998 369.732C142.482 370.043 142.861 370.492 143.136 371.079C143.415 371.665 143.554 372.371 143.554 373.197C143.554 374.022 143.416 374.73 143.141 375.32C142.866 375.906 142.488 376.359 142.008 376.677C141.527 376.992 140.979 377.149 140.362 377.149C139.898 377.149 139.519 377.071 139.224 376.915C138.932 376.76 138.703 376.577 138.537 376.369C138.372 376.16 138.244 375.974 138.155 375.812H138.065V379.864H136.579ZM138.035 373.182C138.035 373.719 138.113 374.189 138.269 374.594C138.425 374.998 138.65 375.315 138.945 375.543C139.24 375.769 139.601 375.881 140.029 375.881C140.473 375.881 140.844 375.764 141.143 375.528C141.441 375.29 141.666 374.967 141.819 374.559C141.974 374.151 142.052 373.692 142.052 373.182C142.052 372.678 141.976 372.226 141.824 371.825C141.675 371.424 141.449 371.107 141.148 370.875C140.849 370.643 140.476 370.527 140.029 370.527C139.598 370.527 139.233 370.638 138.935 370.86C138.64 371.082 138.416 371.392 138.264 371.79C138.112 372.187 138.035 372.652 138.035 373.182ZM148.296 377.154C147.58 377.154 146.955 376.99 146.422 376.662C145.888 376.334 145.474 375.875 145.179 375.285C144.884 374.695 144.736 374.005 144.736 373.217C144.736 372.424 144.884 371.732 145.179 371.138C145.474 370.545 145.888 370.085 146.422 369.756C146.955 369.428 147.58 369.264 148.296 369.264C149.012 369.264 149.637 369.428 150.17 369.756C150.704 370.085 151.118 370.545 151.413 371.138C151.708 371.732 151.856 372.424 151.856 373.217C151.856 374.005 151.708 374.695 151.413 375.285C151.118 375.875 150.704 376.334 150.17 376.662C149.637 376.99 149.012 377.154 148.296 377.154ZM148.301 375.906C148.765 375.906 149.149 375.784 149.454 375.538C149.759 375.293 149.985 374.967 150.13 374.559C150.28 374.151 150.354 373.702 150.354 373.212C150.354 372.724 150.28 372.277 150.13 371.869C149.985 371.458 149.759 371.129 149.454 370.88C149.149 370.631 148.765 370.507 148.301 370.507C147.834 370.507 147.446 370.631 147.138 370.88C146.833 371.129 146.606 371.458 146.456 371.869C146.311 372.277 146.238 372.724 146.238 373.212C146.238 373.702 146.311 374.151 146.456 374.559C146.606 374.967 146.833 375.293 147.138 375.538C147.446 375.784 147.834 375.906 148.301 375.906ZM153.375 377V369.364H154.812V370.577H154.891C155.03 370.166 155.276 369.843 155.627 369.607C155.982 369.369 156.383 369.249 156.83 369.249C156.923 369.249 157.032 369.253 157.158 369.259C157.287 369.266 157.389 369.274 157.461 369.284V370.706C157.402 370.689 157.296 370.671 157.143 370.651C156.991 370.628 156.838 370.616 156.686 370.616C156.335 370.616 156.021 370.691 155.746 370.84C155.475 370.986 155.259 371.19 155.1 371.452C154.941 371.71 154.861 372.005 154.861 372.337V377H153.375ZM162.624 369.364V370.557H158.453V369.364H162.624ZM159.571 367.534H161.058V374.758C161.058 375.046 161.101 375.263 161.187 375.409C161.273 375.552 161.384 375.649 161.52 375.702C161.659 375.752 161.81 375.777 161.972 375.777C162.092 375.777 162.196 375.769 162.286 375.752C162.375 375.736 162.445 375.722 162.494 375.712L162.763 376.94C162.677 376.973 162.554 377.007 162.395 377.04C162.236 377.076 162.037 377.096 161.798 377.099C161.407 377.106 161.043 377.036 160.705 376.891C160.367 376.745 160.093 376.519 159.884 376.214C159.676 375.91 159.571 375.527 159.571 375.066V367.534ZM166.35 377.169C165.866 377.169 165.429 377.08 165.038 376.901C164.647 376.718 164.337 376.455 164.108 376.11C163.883 375.765 163.77 375.343 163.77 374.842C163.77 374.411 163.853 374.057 164.019 373.778C164.184 373.5 164.408 373.28 164.69 373.117C164.972 372.955 165.286 372.832 165.634 372.749C165.982 372.666 166.337 372.603 166.698 372.56C167.156 372.507 167.527 372.464 167.812 372.431C168.097 372.395 168.304 372.337 168.433 372.257C168.563 372.178 168.627 372.048 168.627 371.869V371.835C168.627 371.4 168.505 371.064 168.259 370.825C168.017 370.587 167.656 370.467 167.176 370.467C166.675 370.467 166.281 370.578 165.992 370.8C165.707 371.019 165.51 371.263 165.401 371.531L164.004 371.213C164.169 370.749 164.411 370.375 164.73 370.089C165.051 369.801 165.421 369.592 165.838 369.463C166.256 369.33 166.695 369.264 167.156 369.264C167.461 369.264 167.784 369.301 168.125 369.374C168.47 369.443 168.791 369.572 169.09 369.761C169.391 369.95 169.638 370.22 169.83 370.572C170.023 370.92 170.119 371.372 170.119 371.929V377H168.667V375.956H168.607C168.511 376.148 168.367 376.337 168.175 376.523C167.983 376.708 167.736 376.862 167.434 376.985C167.133 377.108 166.771 377.169 166.35 377.169ZM166.673 375.976C167.084 375.976 167.436 375.895 167.727 375.732C168.022 375.57 168.246 375.358 168.399 375.096C168.554 374.831 168.632 374.547 168.632 374.246V373.261C168.579 373.314 168.477 373.364 168.324 373.411C168.175 373.454 168.004 373.492 167.812 373.525C167.62 373.555 167.432 373.583 167.25 373.609C167.068 373.633 166.915 373.652 166.793 373.669C166.504 373.705 166.241 373.767 166.002 373.853C165.767 373.939 165.578 374.063 165.436 374.226C165.296 374.385 165.227 374.597 165.227 374.862C165.227 375.23 165.363 375.509 165.634 375.697C165.906 375.883 166.253 375.976 166.673 375.976ZM173.445 372.466V377H171.959V369.364H173.386V370.607H173.48C173.656 370.202 173.931 369.877 174.305 369.632C174.683 369.387 175.159 369.264 175.732 369.264C176.253 369.264 176.708 369.374 177.099 369.592C177.49 369.808 177.794 370.129 178.009 370.557C178.225 370.984 178.332 371.513 178.332 372.143V377H176.846V372.322C176.846 371.768 176.702 371.336 176.413 371.024C176.125 370.709 175.729 370.552 175.225 370.552C174.88 370.552 174.574 370.626 174.305 370.776C174.04 370.925 173.83 371.143 173.674 371.432C173.521 371.717 173.445 372.062 173.445 372.466ZM183.751 369.364V370.557H179.579V369.364H183.751ZM180.698 367.534H182.185V374.758C182.185 375.046 182.228 375.263 182.314 375.409C182.4 375.552 182.511 375.649 182.647 375.702C182.786 375.752 182.937 375.777 183.099 375.777C183.219 375.777 183.323 375.769 183.412 375.752C183.502 375.736 183.572 375.722 183.621 375.712L183.89 376.94C183.804 376.973 183.681 377.007 183.522 377.04C183.363 377.076 183.164 377.096 182.925 377.099C182.534 377.106 182.17 377.036 181.832 376.891C181.493 376.745 181.22 376.519 181.011 376.214C180.802 375.91 180.698 375.527 180.698 375.066V367.534ZM189.494 372.053V373.341H184.98V372.053H189.494ZM194.194 377.149C193.578 377.149 193.028 376.992 192.544 376.677C192.063 376.359 191.685 375.906 191.41 375.32C191.138 374.73 191.003 374.022 191.003 373.197C191.003 372.371 191.14 371.665 191.415 371.079C191.694 370.492 192.075 370.043 192.559 369.732C193.043 369.42 193.591 369.264 194.204 369.264C194.678 369.264 195.059 369.344 195.348 369.503C195.639 369.659 195.865 369.841 196.024 370.05C196.186 370.259 196.312 370.442 196.402 370.602H196.491V366.818H197.978V377H196.526V375.812H196.402C196.312 375.974 196.183 376.16 196.014 376.369C195.848 376.577 195.619 376.76 195.328 376.915C195.036 377.071 194.658 377.149 194.194 377.149ZM194.522 375.881C194.95 375.881 195.311 375.769 195.606 375.543C195.905 375.315 196.13 374.998 196.282 374.594C196.438 374.189 196.516 373.719 196.516 373.182C196.516 372.652 196.44 372.187 196.287 371.79C196.135 371.392 195.911 371.082 195.616 370.86C195.321 370.638 194.957 370.527 194.522 370.527C194.075 370.527 193.702 370.643 193.404 370.875C193.106 371.107 192.88 371.424 192.728 371.825C192.579 372.226 192.504 372.678 192.504 373.182C192.504 373.692 192.58 374.151 192.733 374.559C192.885 374.967 193.11 375.29 193.409 375.528C193.71 375.764 194.082 375.881 194.522 375.881ZM203.25 377.154C202.498 377.154 201.85 376.993 201.307 376.672C200.766 376.347 200.349 375.891 200.054 375.305C199.762 374.715 199.616 374.024 199.616 373.232C199.616 372.449 199.762 371.76 200.054 371.163C200.349 370.567 200.76 370.101 201.287 369.766C201.817 369.432 202.437 369.264 203.146 369.264C203.577 369.264 203.995 369.335 204.399 369.478C204.803 369.621 205.166 369.844 205.488 370.149C205.809 370.454 206.063 370.85 206.248 371.337C206.434 371.821 206.527 372.41 206.527 373.102V373.629H200.456V372.516H205.07C205.07 372.125 204.991 371.778 204.831 371.477C204.672 371.172 204.449 370.931 204.16 370.756C203.875 370.58 203.54 370.492 203.156 370.492C202.738 370.492 202.374 370.595 202.062 370.8C201.754 371.003 201.515 371.268 201.346 371.596C201.181 371.921 201.098 372.274 201.098 372.655V373.525C201.098 374.035 201.187 374.469 201.366 374.827C201.549 375.185 201.802 375.459 202.127 375.648C202.452 375.833 202.831 375.926 203.265 375.926C203.547 375.926 203.804 375.886 204.036 375.807C204.268 375.724 204.469 375.601 204.638 375.439C204.807 375.277 204.936 375.076 205.025 374.837L206.432 375.091C206.32 375.505 206.117 375.868 205.826 376.18C205.537 376.488 205.174 376.728 204.737 376.901C204.303 377.07 203.807 377.154 203.25 377.154ZM211.253 377.154C210.514 377.154 209.877 376.987 209.344 376.652C208.813 376.314 208.406 375.848 208.121 375.255C207.836 374.662 207.693 373.982 207.693 373.217C207.693 372.441 207.839 371.757 208.131 371.163C208.422 370.567 208.833 370.101 209.364 369.766C209.894 369.432 210.519 369.264 211.238 369.264C211.818 369.264 212.335 369.372 212.789 369.587C213.243 369.799 213.609 370.098 213.888 370.482C214.169 370.867 214.337 371.316 214.39 371.83H212.943C212.864 371.472 212.681 371.163 212.396 370.905C212.114 370.646 211.737 370.517 211.263 370.517C210.848 370.517 210.485 370.626 210.174 370.845C209.866 371.061 209.625 371.369 209.453 371.77C209.281 372.168 209.194 372.638 209.194 373.182C209.194 373.739 209.279 374.219 209.448 374.624C209.617 375.028 209.856 375.341 210.164 375.563C210.475 375.785 210.842 375.896 211.263 375.896C211.544 375.896 211.8 375.845 212.028 375.742C212.26 375.636 212.454 375.485 212.61 375.29C212.769 375.094 212.88 374.859 212.943 374.584H214.39C214.337 375.078 214.176 375.518 213.908 375.906C213.639 376.294 213.279 376.599 212.829 376.821C212.381 377.043 211.856 377.154 211.253 377.154ZM217.207 374.41L217.197 372.595H217.455L220.498 369.364H222.278L218.807 373.043H218.574L217.207 374.41ZM215.839 377V366.818H217.326V377H215.839ZM220.662 377L217.928 373.371L218.952 372.332L222.486 377H220.662ZM224.472 377.094C224.2 377.094 223.966 376.998 223.771 376.806C223.575 376.611 223.478 376.375 223.478 376.1C223.478 375.828 223.575 375.596 223.771 375.404C223.966 375.209 224.2 375.111 224.472 375.111C224.744 375.111 224.977 375.209 225.173 375.404C225.368 375.596 225.466 375.828 225.466 376.1C225.466 376.282 225.42 376.45 225.327 376.602C225.237 376.751 225.118 376.871 224.969 376.96C224.82 377.05 224.654 377.094 224.472 377.094ZM227.317 379.864V369.364H228.769V370.602H228.893C228.979 370.442 229.104 370.259 229.266 370.05C229.429 369.841 229.654 369.659 229.942 369.503C230.231 369.344 230.612 369.264 231.086 369.264C231.702 369.264 232.252 369.42 232.736 369.732C233.22 370.043 233.6 370.492 233.875 371.079C234.153 371.665 234.292 372.371 234.292 373.197C234.292 374.022 234.155 374.73 233.88 375.32C233.605 375.906 233.227 376.359 232.746 376.677C232.266 376.992 231.717 377.149 231.101 377.149C230.637 377.149 230.257 377.071 229.962 376.915C229.67 376.76 229.442 376.577 229.276 376.369C229.11 376.16 228.983 375.974 228.893 375.812H228.804V379.864H227.317ZM228.774 373.182C228.774 373.719 228.852 374.189 229.008 374.594C229.163 374.998 229.389 375.315 229.684 375.543C229.979 375.769 230.34 375.881 230.768 375.881C231.212 375.881 231.583 375.764 231.881 375.528C232.179 375.29 232.405 374.967 232.557 374.559C232.713 374.151 232.791 373.692 232.791 373.182C232.791 372.678 232.715 372.226 232.562 371.825C232.413 371.424 232.188 371.107 231.886 370.875C231.588 370.643 231.215 370.527 230.768 370.527C230.337 370.527 229.972 370.638 229.674 370.86C229.379 371.082 229.155 371.392 229.003 371.79C228.85 372.187 228.774 372.652 228.774 373.182ZM235.818 379.864V369.364H237.27V370.602H237.394C237.48 370.442 237.604 370.259 237.767 370.05C237.929 369.841 238.155 369.659 238.443 369.503C238.731 369.344 239.112 369.264 239.586 369.264C240.203 369.264 240.753 369.42 241.237 369.732C241.721 370.043 242.1 370.492 242.375 371.079C242.654 371.665 242.793 372.371 242.793 373.197C242.793 374.022 242.655 374.73 242.38 375.32C242.105 375.906 241.727 376.359 241.247 376.677C240.766 376.992 240.218 377.149 239.601 377.149C239.137 377.149 238.758 377.071 238.463 376.915C238.171 376.76 237.942 376.577 237.777 376.369C237.611 376.16 237.483 375.974 237.394 375.812H237.304V379.864H235.818ZM237.275 373.182C237.275 373.719 237.352 374.189 237.508 374.594C237.664 374.998 237.889 375.315 238.184 375.543C238.479 375.769 238.841 375.881 239.268 375.881C239.712 375.881 240.084 375.764 240.382 375.528C240.68 375.29 240.905 374.967 241.058 374.559C241.214 374.151 241.292 373.692 241.292 373.182C241.292 372.678 241.215 372.226 241.063 371.825C240.914 371.424 240.688 371.107 240.387 370.875C240.088 370.643 239.716 370.527 239.268 370.527C238.837 370.527 238.473 370.638 238.174 370.86C237.879 371.082 237.656 371.392 237.503 371.79C237.351 372.187 237.275 372.652 237.275 373.182ZM247.883 369.364V370.557H243.712V369.364H247.883ZM244.831 367.534H246.317V374.758C246.317 375.046 246.36 375.263 246.446 375.409C246.533 375.552 246.644 375.649 246.779 375.702C246.919 375.752 247.069 375.777 247.232 375.777C247.351 375.777 247.456 375.769 247.545 375.752C247.635 375.736 247.704 375.722 247.754 375.712L248.022 376.94C247.936 376.973 247.814 377.007 247.654 377.04C247.495 377.076 247.296 377.096 247.058 377.099C246.667 377.106 246.302 377.036 245.964 376.891C245.626 376.745 245.353 376.519 245.144 376.214C244.935 375.91 244.831 375.527 244.831 375.066V367.534Z" fill="#383C43"/>
<path d="M120.839 397V396.045L123.793 392.986C124.108 392.653 124.368 392.362 124.572 392.112C124.78 391.859 124.935 391.619 125.037 391.392C125.139 391.165 125.19 390.923 125.19 390.668C125.19 390.378 125.122 390.128 124.986 389.918C124.849 389.705 124.663 389.541 124.428 389.428C124.192 389.311 123.926 389.253 123.631 389.253C123.318 389.253 123.045 389.317 122.812 389.445C122.58 389.572 122.401 389.753 122.276 389.986C122.151 390.219 122.088 390.491 122.088 390.804H120.831C120.831 390.273 120.953 389.808 121.197 389.411C121.442 389.013 121.777 388.705 122.203 388.486C122.629 388.264 123.114 388.153 123.656 388.153C124.205 388.153 124.688 388.263 125.105 388.482C125.526 388.697 125.854 388.993 126.089 389.368C126.325 389.74 126.443 390.161 126.443 390.629C126.443 390.953 126.382 391.27 126.26 391.58C126.141 391.889 125.932 392.234 125.634 392.615C125.335 392.993 124.92 393.452 124.389 393.991L122.655 395.807V395.871H126.584V397H120.839ZM128.935 397.081C128.702 397.081 128.502 396.999 128.335 396.834C128.167 396.666 128.083 396.464 128.083 396.229C128.083 395.996 128.167 395.797 128.335 395.632C128.502 395.464 128.702 395.381 128.935 395.381C129.168 395.381 129.369 395.464 129.536 395.632C129.704 395.797 129.788 395.996 129.788 396.229C129.788 396.385 129.748 396.528 129.668 396.659C129.592 396.787 129.489 396.889 129.362 396.966C129.234 397.043 129.092 397.081 128.935 397.081ZM134.097 397.119C133.563 397.119 133.083 397.017 132.657 396.812C132.234 396.605 131.896 396.321 131.643 395.96C131.39 395.599 131.255 395.188 131.238 394.724H132.516C132.548 395.099 132.714 395.408 133.015 395.649C133.316 395.891 133.677 396.011 134.097 396.011C134.433 396.011 134.729 395.935 134.988 395.781C135.249 395.625 135.454 395.411 135.602 395.138C135.752 394.865 135.827 394.554 135.827 394.205C135.827 393.849 135.751 393.533 135.597 393.254C135.444 392.976 135.232 392.757 134.962 392.598C134.695 392.439 134.389 392.358 134.042 392.355C133.778 392.355 133.512 392.401 133.245 392.491C132.978 392.582 132.762 392.702 132.597 392.849L131.391 392.67L131.881 388.273H136.68V389.402H132.977L132.7 391.844H132.751C132.921 391.679 133.147 391.541 133.428 391.43C133.712 391.32 134.016 391.264 134.34 391.264C134.872 391.264 135.345 391.391 135.759 391.643C136.177 391.896 136.505 392.241 136.744 392.679C136.985 393.114 137.104 393.614 137.102 394.179C137.104 394.744 136.977 395.249 136.718 395.692C136.462 396.135 136.107 396.484 135.653 396.74C135.201 396.993 134.683 397.119 134.097 397.119ZM141.713 388.273H143.311L146.09 395.057H146.192L148.97 388.273H150.568V397H149.315V390.685H149.234L146.661 396.987H145.621L143.047 390.68H142.966V397H141.713V388.273ZM152.363 397V388.273H155.559C156.178 388.273 156.691 388.375 157.097 388.58C157.503 388.781 157.807 389.055 158.009 389.402C158.211 389.746 158.312 390.134 158.312 390.565C158.312 390.929 158.245 391.236 158.111 391.486C157.978 391.733 157.799 391.932 157.574 392.082C157.353 392.23 157.108 392.338 156.841 392.406V392.491C157.131 392.506 157.414 392.599 157.689 392.773C157.968 392.943 158.198 393.186 158.38 393.501C158.562 393.817 158.652 394.2 158.652 394.652C158.652 395.098 158.547 395.499 158.337 395.854C158.13 396.206 157.809 396.486 157.374 396.693C156.939 396.898 156.384 397 155.708 397H152.363ZM153.679 395.871H155.58C156.211 395.871 156.662 395.749 156.935 395.504C157.208 395.26 157.344 394.955 157.344 394.588C157.344 394.312 157.275 394.06 157.135 393.83C156.996 393.599 156.797 393.416 156.539 393.28C156.283 393.143 155.979 393.075 155.627 393.075H153.679V395.871ZM153.679 392.048H155.444C155.739 392.048 156.005 391.991 156.241 391.878C156.479 391.764 156.668 391.605 156.807 391.401C156.949 391.193 157.02 390.949 157.02 390.668C157.02 390.307 156.894 390.004 156.641 389.76C156.388 389.516 156 389.393 155.478 389.393H153.679V392.048Z" fill="#8A8C91"/>
<g filter="url(#filter0_d_6149_58000)">
<path d="M277 40H58C52.4772 40 48 44.4772 48 50V122C48 127.523 52.4772 132 58 132H277C282.523 132 287 127.523 287 122V50C287 44.4772 282.523 40 277 40Z" fill="white"/>
<path fill-rule="evenodd" clip-rule="evenodd" d="M166.986 65.4908C167.953 64.5349 169.263 64 170.626 64C171.989 64 173.298 64.5349 174.266 65.4908C175.234 66.4471 175.779 67.7467 175.779 69.1043C175.779 70.462 175.234 71.7615 174.266 72.7178L167.902 79.0059C167.324 79.577 166.543 79.8957 165.731 79.8957C164.918 79.8957 164.137 79.577 163.559 79.0059C162.981 78.4345 162.654 77.6569 162.654 76.8435C162.654 76.0301 162.981 75.2525 163.559 74.6811L169.923 68.393C170.316 68.0048 170.949 68.0086 171.337 68.4015C171.725 68.7943 171.721 69.4275 171.329 69.8156L164.965 76.1037C164.764 76.302 164.654 76.5683 164.654 76.8435C164.654 77.1187 164.764 77.385 164.965 77.5833C165.166 77.782 165.441 77.8957 165.731 77.8957C166.02 77.8957 166.295 77.782 166.496 77.5833L172.86 71.2952C173.45 70.7121 173.779 69.9238 173.779 69.1043C173.779 68.2849 173.45 67.4966 172.86 66.9135C172.269 66.3299 171.466 66 170.626 66C169.786 66 168.982 66.3299 168.392 66.9135L162.028 73.2015C161.048 74.1695 160.5 75.4798 160.5 76.8435C160.5 78.2072 161.048 79.5175 162.028 80.4855C163.008 81.4539 164.34 82 165.731 82C167.122 82 168.453 81.4539 169.433 80.4855L175.797 74.1974C176.19 73.8092 176.823 73.813 177.211 74.2059C177.6 74.5987 177.596 75.2319 177.203 75.62L170.839 81.9081C169.482 83.2489 167.644 84 165.731 84C163.817 84 161.979 83.2489 160.622 81.9081C159.265 80.567 158.5 78.7454 158.5 76.8435C158.5 74.9416 159.265 73.1201 160.622 71.7789L166.986 65.4908Z" fill="#383C43"/>
<path d="M135.408 105H133.778L137.442 94.8181H139.217L142.881 105H141.25L138.371 96.6675H138.292L135.408 105ZM135.682 101.013H140.972V102.305H135.682V101.013ZM147.318 97.3635V98.5567H143.147V97.3635H147.318ZM144.265 95.534H145.752V102.758C145.752 103.046 145.795 103.263 145.881 103.409C145.967 103.552 146.078 103.649 146.214 103.702C146.353 103.752 146.504 103.777 146.667 103.777C146.786 103.777 146.89 103.769 146.98 103.752C147.069 103.736 147.139 103.722 147.189 103.712L147.457 104.94C147.371 104.973 147.248 105.007 147.089 105.04C146.93 105.076 146.731 105.096 146.493 105.099C146.101 105.106 145.737 105.036 145.399 104.891C145.061 104.745 144.787 104.519 144.578 104.214C144.37 103.91 144.265 103.527 144.265 103.066V95.534ZM152.527 97.3635V98.5567H148.356V97.3635H152.527ZM149.474 95.534H150.961V102.758C150.961 103.046 151.004 103.263 151.09 103.409C151.176 103.552 151.287 103.649 151.423 103.702C151.562 103.752 151.713 103.777 151.876 103.777C151.995 103.777 152.099 103.769 152.189 103.752C152.278 103.736 152.348 103.722 152.398 103.712L152.666 104.94C152.58 104.973 152.457 105.007 152.298 105.04C152.139 105.076 151.94 105.096 151.702 105.099C151.31 105.106 150.946 105.036 150.608 104.891C150.27 104.745 149.996 104.519 149.787 104.214C149.579 103.91 149.474 103.527 149.474 103.066V95.534ZM156.393 105.169C155.91 105.169 155.472 105.08 155.081 104.901C154.69 104.718 154.38 104.455 154.151 104.11C153.926 103.765 153.813 103.343 153.813 102.842C153.813 102.411 153.896 102.057 154.062 101.778C154.228 101.5 154.451 101.28 154.733 101.117C155.015 100.955 155.33 100.832 155.678 100.749C156.026 100.666 156.38 100.603 156.741 100.56C157.199 100.507 157.57 100.464 157.855 100.431C158.14 100.395 158.347 100.337 158.477 100.257C158.606 100.178 158.67 100.048 158.67 99.8692V99.8344C158.67 99.4002 158.548 99.0638 158.303 98.8252C158.061 98.5865 157.699 98.4672 157.219 98.4672C156.718 98.4672 156.324 98.5783 156.036 98.8003C155.75 99.0191 155.553 99.2627 155.444 99.5311L154.047 99.213C154.213 98.749 154.455 98.3744 154.773 98.0894C155.094 97.801 155.464 97.5922 155.881 97.463C156.299 97.3304 156.738 97.2641 157.199 97.2641C157.504 97.2641 157.827 97.3006 158.168 97.3735C158.513 97.4431 158.835 97.5723 159.133 97.7613C159.434 97.9502 159.681 98.2203 159.874 98.5716C160.066 98.9196 160.162 99.3721 160.162 99.9289V105H158.71V103.956H158.651C158.554 104.148 158.41 104.337 158.218 104.523C158.026 104.708 157.779 104.862 157.477 104.985C157.176 105.108 156.814 105.169 156.393 105.169ZM156.717 103.976C157.128 103.976 157.479 103.895 157.771 103.732C158.066 103.57 158.289 103.358 158.442 103.096C158.598 102.831 158.675 102.547 158.675 102.246V101.261C158.622 101.314 158.52 101.364 158.367 101.411C158.218 101.454 158.047 101.492 157.855 101.525C157.663 101.555 157.476 101.583 157.293 101.609C157.111 101.633 156.959 101.652 156.836 101.669C156.548 101.705 156.284 101.767 156.045 101.853C155.81 101.939 155.621 102.063 155.479 102.226C155.339 102.385 155.27 102.597 155.27 102.862C155.27 103.23 155.406 103.509 155.678 103.697C155.949 103.883 156.296 103.976 156.717 103.976ZM165.358 105.154C164.619 105.154 163.983 104.987 163.449 104.652C162.919 104.314 162.511 103.848 162.226 103.255C161.941 102.662 161.799 101.982 161.799 101.217C161.799 100.441 161.945 99.7565 162.236 99.1633C162.528 98.5667 162.939 98.101 163.469 97.7662C164 97.4315 164.624 97.2641 165.344 97.2641C165.924 97.2641 166.441 97.3718 166.895 97.5873C167.349 97.7994 167.715 98.0977 167.993 98.4821C168.275 98.8666 168.443 99.3157 168.496 99.8294H167.049C166.969 99.4715 166.787 99.1633 166.502 98.9047C166.22 98.6462 165.842 98.5169 165.368 98.5169C164.954 98.5169 164.591 98.6263 164.28 98.8451C163.971 99.0605 163.731 99.3687 163.559 99.7698C163.386 100.168 163.3 100.638 163.3 101.182C163.3 101.739 163.385 102.219 163.554 102.624C163.723 103.028 163.961 103.341 164.27 103.563C164.581 103.785 164.948 103.896 165.368 103.896C165.65 103.896 165.905 103.845 166.134 103.742C166.366 103.636 166.56 103.485 166.716 103.29C166.875 103.094 166.986 102.859 167.049 102.584H168.496C168.443 103.078 168.282 103.518 168.013 103.906C167.745 104.294 167.385 104.599 166.934 104.821C166.487 105.043 165.962 105.154 165.358 105.154ZM171.572 100.466V105H170.085V94.8181H171.552V98.6064H171.646C171.825 98.1954 172.099 97.869 172.467 97.627C172.835 97.3851 173.315 97.2641 173.908 97.2641C174.432 97.2641 174.889 97.3718 175.281 97.5873C175.675 97.8027 175.98 98.1242 176.195 98.5517C176.414 98.976 176.523 99.5063 176.523 100.143V105H175.037V100.322C175.037 99.7615 174.893 99.3273 174.604 99.0191C174.316 98.7075 173.915 98.5517 173.401 98.5517C173.05 98.5517 172.735 98.6263 172.457 98.7755C172.182 98.9246 171.964 99.1434 171.805 99.4317C171.65 99.7168 171.572 100.062 171.572 100.466ZM185.846 97.3635V98.5567H181.531V97.3635H185.846ZM182.714 105V96.4786C182.714 96.0013 182.819 95.6052 183.028 95.2904C183.236 94.9722 183.513 94.7352 183.858 94.5794C184.202 94.4204 184.577 94.3408 184.981 94.3408C185.28 94.3408 185.535 94.3657 185.747 94.4154C185.959 94.4618 186.117 94.5049 186.219 94.5446L185.871 95.7478C185.802 95.7279 185.712 95.7047 185.603 95.6782C185.493 95.6483 185.361 95.6334 185.205 95.6334C184.844 95.6334 184.585 95.7229 184.43 95.9019C184.277 96.0809 184.201 96.3394 184.201 96.6775V105H182.714ZM187.38 105V97.3635H188.867V105H187.38ZM188.131 96.1853C187.872 96.1853 187.65 96.0991 187.465 95.9267C187.282 95.7511 187.191 95.5423 187.191 95.3003C187.191 95.0551 187.282 94.8463 187.465 94.6739C187.65 94.4982 187.872 94.4104 188.131 94.4104C188.389 94.4104 188.61 94.4982 188.792 94.6739C188.978 94.8463 189.07 95.0551 189.07 95.3003C189.07 95.5423 188.978 95.7511 188.792 95.9267C188.61 96.0991 188.389 96.1853 188.131 96.1853ZM192.353 94.8181V105H190.866V94.8181H192.353ZM197.644 105.154C196.892 105.154 196.244 104.993 195.7 104.672C195.16 104.347 194.742 103.891 194.447 103.305C194.156 102.715 194.01 102.024 194.01 101.232C194.01 100.449 194.156 99.7598 194.447 99.1633C194.742 98.5667 195.153 98.101 195.68 97.7662C196.211 97.4315 196.83 97.2641 197.54 97.2641C197.97 97.2641 198.388 97.3354 198.792 97.4779C199.197 97.6204 199.56 97.8441 199.881 98.149C200.203 98.454 200.456 98.85 200.642 99.3373C200.827 99.8212 200.92 100.41 200.92 101.102V101.629H194.85V100.516H199.464C199.464 100.125 199.384 99.7781 199.225 99.4765C199.066 99.1715 198.842 98.9312 198.554 98.7556C198.269 98.5799 197.934 98.4921 197.55 98.4921C197.132 98.4921 196.767 98.5948 196.456 98.8003C196.148 99.0025 195.909 99.2677 195.74 99.5958C195.574 99.9206 195.491 100.274 195.491 100.655V101.525C195.491 102.035 195.581 102.469 195.76 102.827C195.942 103.185 196.196 103.459 196.52 103.648C196.845 103.833 197.225 103.926 197.659 103.926C197.941 103.926 198.198 103.886 198.43 103.807C198.662 103.724 198.862 103.601 199.031 103.439C199.2 103.277 199.329 103.076 199.419 102.837L200.826 103.091C200.713 103.505 200.511 103.868 200.219 104.18C199.931 104.488 199.568 104.728 199.131 104.901C198.696 105.07 198.201 105.154 197.644 105.154Z" fill="#333740"/>
<path d="M277 40.5H58C52.7533 40.5 48.5 44.7533 48.5 50V122C48.5 127.247 52.7533 131.5 58 131.5H277C282.247 131.5 286.5 127.247 286.5 122V50C286.5 44.7533 282.247 40.5 277 40.5Z" stroke="#EAEDF0"/>
</g>
<path d="M501 50.5H313C307.753 50.5 303.5 54.7533 303.5 60V112C303.5 117.247 307.753 121.5 313 121.5H501C506.247 121.5 510.5 117.247 510.5 112V60C510.5 54.7533 506.247 50.5 501 50.5Z" fill="white"/>
<path d="M398.994 74C398.448 74 398.003 74.4389 398.001 74.9855C398 75.3077 398 75.6455 398 76V77C398 80.7712 398 82.6569 399.172 83.8284C400.343 85 402.229 85 406 85H408C411.771 85 413.657 85 414.828 83.8284C416 82.6569 416 80.7712 416 77V76C416 75.6455 416 75.3077 415.999 74.9855C415.997 74.4389 415.552 74 415.006 74C414.448 74 413.997 74.4567 413.999 75.0147C414 75.3222 414 75.6499 414 76V77C414 78.9422 413.996 80.1976 413.871 81.1226C413.755 81.9901 413.566 82.262 413.414 82.4142C413.262 82.5665 412.99 82.7548 412.123 82.8714C411.198 82.9958 409.942 83 408 83H406C404.058 83 402.802 82.9958 401.877 82.8714C401.01 82.7548 400.738 82.5665 400.586 82.4142C400.434 82.262 400.245 81.9901 400.129 81.1226C400.004 80.1976 400 78.9422 400 77V76C400 75.6499 400 75.3222 400.001 75.0147C400.003 74.4567 399.552 74 398.994 74Z" fill="#383C43"/>
<path fill-rule="evenodd" clip-rule="evenodd" d="M403.269 71.7059C402.892 71.3142 402.914 70.7002 403.318 70.3346L407 67L410.682 70.3346C411.086 70.7002 411.108 71.3142 410.731 71.7059C410.354 72.0977 409.721 72.1188 409.318 71.7532L408 70.56V78.0297C408 78.5656 407.544 79 407 79C406.456 79 406 78.5656 406 78.0297V70.56L404.682 71.7532C404.279 72.1188 403.646 72.0977 403.269 71.7059Z" fill="#383C43"/>
<path d="M396.125 97.5652C396.08 97.1618 395.892 96.8493 395.562 96.6277C395.233 96.4033 394.818 96.2911 394.318 96.2911C393.96 96.2911 393.651 96.3479 393.389 96.4615C393.128 96.5723 392.925 96.7258 392.78 96.9218C392.638 97.115 392.567 97.3351 392.567 97.5823C392.567 97.7897 392.615 97.9686 392.712 98.1192C392.811 98.2698 392.94 98.3962 393.099 98.4985C393.261 98.5979 393.435 98.6817 393.619 98.7499C393.804 98.8152 393.982 98.8692 394.152 98.9118L395.004 99.1334C395.283 99.2016 395.568 99.2939 395.861 99.4104C396.153 99.5269 396.425 99.6803 396.675 99.8706C396.925 100.061 397.126 100.297 397.28 100.578C397.436 100.859 397.514 101.196 397.514 101.588C397.514 102.082 397.386 102.521 397.131 102.905C396.878 103.288 396.51 103.591 396.027 103.812C395.547 104.034 394.966 104.145 394.284 104.145C393.631 104.145 393.065 104.041 392.588 103.834C392.111 103.626 391.737 103.332 391.467 102.952C391.197 102.568 391.048 102.114 391.02 101.588H392.341C392.366 101.903 392.469 102.166 392.648 102.376C392.83 102.584 393.061 102.739 393.342 102.841C393.626 102.94 393.938 102.99 394.276 102.99C394.648 102.99 394.979 102.932 395.268 102.815C395.561 102.696 395.791 102.531 395.959 102.321C396.126 102.108 396.21 101.859 396.21 101.575C396.21 101.317 396.136 101.105 395.989 100.94C395.844 100.776 395.646 100.639 395.396 100.531C395.149 100.423 394.869 100.328 394.557 100.246L393.526 99.9644C392.827 99.774 392.273 99.4942 391.864 99.1249C391.457 98.7556 391.254 98.2669 391.254 97.659C391.254 97.1561 391.391 96.7172 391.663 96.3422C391.936 95.9672 392.305 95.676 392.771 95.4687C393.237 95.2584 393.763 95.1533 394.348 95.1533C394.939 95.1533 395.46 95.257 395.912 95.4644C396.366 95.6718 396.724 95.9573 396.986 96.3209C397.247 96.6817 397.384 97.0965 397.395 97.5652H396.125ZM400.26 100.114V104H398.985V95.2726H400.243V98.5198H400.324C400.477 98.1675 400.711 97.8877 401.027 97.6803C401.342 97.4729 401.754 97.3692 402.262 97.3692C402.711 97.3692 403.103 97.4615 403.439 97.6462C403.777 97.8309 404.038 98.1064 404.223 98.4729C404.41 98.8365 404.504 99.2911 404.504 99.8365V104H403.23V99.99C403.23 99.5098 403.106 99.1377 402.859 98.8735C402.612 98.6064 402.268 98.4729 401.828 98.4729C401.527 98.4729 401.257 98.5368 401.018 98.6647C400.782 98.7925 400.596 98.98 400.46 99.2272C400.326 99.4715 400.26 99.7669 400.26 100.114ZM408.109 104.145C407.694 104.145 407.319 104.068 406.984 103.915C406.649 103.759 406.383 103.533 406.187 103.237C405.994 102.942 405.897 102.58 405.897 102.151C405.897 101.781 405.968 101.477 406.11 101.239C406.252 101 406.444 100.811 406.686 100.672C406.927 100.533 407.197 100.428 407.495 100.357C407.794 100.286 408.098 100.232 408.407 100.195C408.799 100.149 409.118 100.112 409.362 100.084C409.606 100.053 409.784 100.003 409.895 99.9346C410.005 99.8664 410.061 99.7556 410.061 99.6022V99.5723C410.061 99.2002 409.956 98.9118 409.745 98.7073C409.538 98.5027 409.228 98.4005 408.816 98.4005C408.387 98.4005 408.049 98.4956 407.802 98.686C407.558 98.8735 407.389 99.0823 407.295 99.3124L406.098 99.0397C406.24 98.6419 406.447 98.3209 406.72 98.0766C406.995 97.8294 407.312 97.6505 407.67 97.5397C408.028 97.426 408.404 97.3692 408.799 97.3692C409.061 97.3692 409.338 97.4005 409.63 97.463C409.926 97.5226 410.201 97.6334 410.457 97.7954C410.716 97.9573 410.927 98.1888 411.092 98.49C411.257 98.7883 411.339 99.176 411.339 99.6533V104H410.095V103.105H410.044C409.961 103.27 409.838 103.432 409.673 103.591C409.508 103.75 409.297 103.882 409.038 103.987C408.779 104.092 408.47 104.145 408.109 104.145ZM408.386 103.122C408.738 103.122 409.039 103.053 409.289 102.913C409.542 102.774 409.734 102.592 409.865 102.368C409.998 102.141 410.065 101.898 410.065 101.639V100.795C410.02 100.841 409.931 100.884 409.801 100.923C409.673 100.96 409.527 100.993 409.362 101.021C409.197 101.047 409.037 101.071 408.88 101.094C408.724 101.114 408.593 101.131 408.488 101.145C408.241 101.176 408.015 101.229 407.811 101.303C407.609 101.376 407.447 101.483 407.325 101.622C407.206 101.759 407.146 101.94 407.146 102.168C407.146 102.483 407.262 102.722 407.495 102.884C407.728 103.043 408.025 103.122 408.386 103.122ZM413.036 104V97.4544H414.268V98.4942H414.336C414.455 98.1419 414.665 97.865 414.967 97.6633C415.271 97.4587 415.614 97.3564 415.998 97.3564C416.077 97.3564 416.171 97.3593 416.279 97.365C416.39 97.3706 416.477 97.3777 416.539 97.3863V98.605C416.488 98.5908 416.397 98.5752 416.266 98.5581C416.136 98.5383 416.005 98.5283 415.874 98.5283C415.573 98.5283 415.305 98.5922 415.069 98.7201C414.836 98.8451 414.651 99.0198 414.515 99.2442C414.379 99.4658 414.31 99.7186 414.31 100.003V104H413.036ZM420.228 104.132C419.583 104.132 419.028 103.994 418.562 103.719C418.099 103.44 417.741 103.05 417.488 102.547C417.238 102.041 417.113 101.449 417.113 100.77C417.113 100.099 417.238 99.5084 417.488 98.9971C417.741 98.4857 418.093 98.0865 418.545 97.7996C419 97.5127 419.531 97.3692 420.139 97.3692C420.508 97.3692 420.866 97.4303 421.213 97.5525C421.559 97.6746 421.87 97.8664 422.146 98.1277C422.422 98.3891 422.639 98.7286 422.798 99.1462C422.957 99.561 423.037 100.065 423.037 100.659V101.111H417.833V100.156H421.788C421.788 99.8209 421.72 99.524 421.583 99.2655C421.447 99.0042 421.255 98.7982 421.008 98.6476C420.764 98.4971 420.477 98.4218 420.147 98.4218C419.789 98.4218 419.477 98.5098 419.21 98.686C418.946 98.8593 418.741 99.0865 418.596 99.3678C418.454 99.6462 418.383 99.9488 418.383 100.276V101.021C418.383 101.459 418.46 101.831 418.613 102.138C418.77 102.445 418.987 102.679 419.265 102.841C419.544 103 419.869 103.08 420.241 103.08C420.483 103.08 420.703 103.045 420.902 102.977C421.1 102.906 421.272 102.801 421.417 102.662C421.562 102.523 421.673 102.351 421.75 102.146L422.956 102.364C422.859 102.719 422.686 103.03 422.436 103.297C422.189 103.561 421.877 103.767 421.502 103.915C421.13 104.06 420.706 104.132 420.228 104.132Z" fill="#333740"/>
<path d="M501 50.5H313C307.753 50.5 303.5 54.7533 303.5 60V112C303.5 117.247 307.753 121.5 313 121.5H501C506.247 121.5 510.5 117.247 510.5 112V60C510.5 54.7533 506.247 50.5 501 50.5Z" stroke="#EAEDF0"/>
<path d="M725 50.5H537C531.753 50.5 527.5 54.7533 527.5 60V112C527.5 117.247 531.753 121.5 537 121.5H725C730.247 121.5 734.5 117.247 734.5 112V60C734.5 54.7533 730.247 50.5 725 50.5Z" fill="white"/>
<path d="M725 50.5H537C531.753 50.5 527.5 54.7533 527.5 60V112C527.5 117.247 531.753 121.5 537 121.5H725C730.247 121.5 734.5 117.247 734.5 112V60C734.5 54.7533 730.247 50.5 725 50.5Z" stroke="#EAEDF0"/>
<path d="M251.469 142.156C251.703 142.703 251.531 143.281 251 143.484L248.422 144.531C247.922 144.734 247.375 144.516 247.156 143.953L242.578 132.656L238.734 136.922C238.047 137.734 236.844 137.281 236.844 136.219L237.109 115.328C237.109 114.328 238.172 113.938 238.859 114.641L253.562 129.656C254.312 130.406 253.797 131.531 252.766 131.469L246.734 131.125L251.469 142.156Z" fill="black"/>
</g>
</g>
<defs>
<filter id="filter0_d_6149_58000" x="13" y="19" width="309" height="162" filterUnits="userSpaceOnUse" color-interpolation-filters="sRGB">
<feFlood flood-opacity="0" result="BackgroundImageFix"/>
<feColorMatrix in="SourceAlpha" type="matrix" values="0 0 0 0 0 0 0 0 0 0 0 0 0 0 0 0 0 0 127 0" result="hardAlpha"/>
<feOffset dy="14"/>
<feGaussianBlur stdDeviation="17.5"/>
<feColorMatrix type="matrix" values="0 0 0 0 0 0 0 0 0 0 0 0 0 0 0 0 0 0 0.1 0"/>
<feBlend mode="normal" in2="BackgroundImageFix" result="effect1_dropShadow_6149_58000"/>
<feBlend mode="normal" in="SourceGraphic" in2="effect1_dropShadow_6149_58000" result="shape"/>
</filter>
<clipPath id="clip0_6149_58000">
<rect width="578" height="398" fill="white"/>
</clipPath>
</defs>
</svg>
