<svg viewBox="0 0 976 423" fill="none" xmlns="http://www.w3.org/2000/svg">
<g clip-path="url(#clip0_6206_34141)">
<mask id="path-1-outside-1_6206_34141" maskUnits="userSpaceOnUse" x="0" y="0" width="976" height="423" fill="black">
<rect fill="white" width="976" height="423"/>
<path d="M0 1H965C970.523 1 975 5.47715 975 11V423H0V1Z"/>
</mask>
<path d="M0 1H965C970.523 1 975 5.47715 975 11V423H0V1Z" fill="white"/>
<path d="M-465 17C-465 11.3995 -465 8.59921 -463.91 6.46009C-462.951 4.57847 -461.422 3.04867 -459.54 2.08993C-457.401 1 -454.601 1 -449 1H959C964.601 1 967.401 1 969.54 2.08993C971.422 3.04867 972.951 4.57847 973.91 6.46009C975 8.59921 975 11.3995 975 17V53H-465V17Z" fill="#FDFDFD"/>
<g clip-path="url(#clip1_6206_34141)">
<path d="M875.008 28.3736C875.431 28.3736 875.779 28.0253 875.779 27.6107V19.2676L875.721 18.0402L876.227 18.6456L877.387 19.8813C877.519 20.0306 877.71 20.1052 877.901 20.1052C878.282 20.1052 878.597 19.8315 878.597 19.4417C878.597 19.2344 878.514 19.0851 878.373 18.9441L875.597 16.2654C875.398 16.0663 875.207 16 875.008 16C874.801 16 874.619 16.0663 874.42 16.2654L871.635 18.9441C871.494 19.0851 871.412 19.2344 871.412 19.4417C871.412 19.8315 871.718 20.1052 872.099 20.1052C872.29 20.1052 872.489 20.0306 872.622 19.8813L873.782 18.6456L874.296 18.0319L874.229 19.2676V27.6107C874.229 28.0253 874.577 28.3736 875.008 28.3736ZM870.227 35H879.773C881.572 35 882.5 34.0711 882.5 32.2964V24.144C882.5 22.3693 881.572 21.4404 879.773 21.4404H877.536V23.0908H879.666C880.42 23.0908 880.851 23.4889 880.851 24.285V32.1471C880.851 32.9433 880.42 33.3413 879.666 33.3413H870.334C869.572 33.3413 869.149 32.9433 869.149 32.1471V24.285C869.149 23.4889 869.572 23.0908 870.334 23.0908H872.489V21.4404H870.227C868.436 21.4404 867.5 22.361 867.5 24.144V32.2964C867.5 34.0711 868.436 35 870.227 35Z" fill="#717171"/>
<path d="M910 33C910.527 33 910.953 32.5723 910.953 32.087V26.9377H916.055C916.565 26.9377 917 26.5182 917 26C917 25.49 916.565 25.0623 916.055 25.0623H910.953V19.913C910.953 19.4195 910.527 19 910 19C909.481 19 909.047 19.4195 909.047 19.913V25.0623H903.945C903.452 25.0623 903 25.49 903 26C903 26.5182 903.452 26.9377 903.945 26.9377H909.047V32.087C909.047 32.5723 909.481 33 910 33Z" fill="#717171"/>
<path d="M940.728 31.0346H942.137V32.2866C942.137 34.0609 943.074 34.9895 944.865 34.9895H953.272C955.063 34.9895 956 34.0609 956 32.2866V23.8213C956 22.047 955.063 21.1184 953.272 21.1184H951.863V19.8748C951.863 18.1005 950.926 17.1719 949.135 17.1719H940.728C938.929 17.1719 938 18.1005 938 19.8748V28.3317C938 30.1143 938.929 31.0346 940.728 31.0346ZM940.836 29.3847C940.073 29.3847 939.65 28.9867 939.65 28.1825V20.024C939.65 19.2198 940.073 18.8301 940.836 18.8301H949.027C949.782 18.8301 950.213 19.2198 950.213 20.024V21.1184H944.865C943.074 21.1184 942.137 22.047 942.137 23.8213V29.3847H940.836ZM944.973 33.3312C944.21 33.3312 943.795 32.9333 943.795 32.1373V23.9706C943.795 23.1746 944.21 22.7767 944.973 22.7767H953.164C953.927 22.7767 954.35 23.1746 954.35 23.9706V32.1373C954.35 32.9333 953.927 33.3312 953.164 33.3312H944.973Z" fill="#717171"/>
</g>
<path d="M-24.75 22.6C-24.75 19.2397 -24.75 17.5595 -24.096 16.2761C-23.5208 15.1471 -22.6029 14.2292 -21.4739 13.654C-20.1905 13 -18.5103 13 -15.15 13H524.65C528.01 13 529.69 13 530.974 13.654C532.103 14.2292 533.021 15.1471 533.596 16.2761C534.25 17.5595 534.25 19.2397 534.25 22.6V31.4C534.25 34.7603 534.25 36.4405 533.596 37.7239C533.021 38.8529 532.103 39.7708 530.974 40.346C529.69 41 528.01 41 524.65 41H-15.15C-18.5103 41 -20.1905 41 -21.4739 40.346C-22.6029 39.7708 -23.5208 38.8529 -24.096 37.7239C-24.75 36.4405 -24.75 34.7603 -24.75 31.4V22.6Z" fill="#F0F0F0"/>
<path d="M212.395 32.9121H218.078C218.863 32.9121 219.25 32.5254 219.25 31.6699V27.2812C219.25 26.5078 218.934 26.1152 218.277 26.0508V24.6035C218.277 22.377 216.795 21.3047 215.236 21.3047C213.678 21.3047 212.195 22.377 212.195 24.6035V26.0684C211.586 26.1621 211.223 26.5488 211.223 27.2812V31.6699C211.223 32.5254 211.609 32.9121 212.395 32.9121ZM213.32 24.498C213.32 23.1328 214.188 22.3828 215.236 22.3828C216.279 22.3828 217.152 23.1328 217.152 24.498V26.0391L213.32 26.0449V24.498Z" fill="#9C9C9C"/>
<path d="M229.52 25.0488C230.094 25.0488 230.595 25.1901 231.023 25.4727C231.256 25.6322 231.493 25.8646 231.734 26.1699V25.2471H232.869V31.9053C232.869 32.835 232.732 33.5687 232.459 34.1064C231.949 35.0999 230.985 35.5967 229.567 35.5967C228.779 35.5967 228.116 35.4189 227.578 35.0635C227.04 34.7126 226.74 34.1611 226.676 33.4092H227.927C227.986 33.7373 228.104 33.9902 228.282 34.168C228.56 34.4414 228.998 34.5781 229.595 34.5781C230.538 34.5781 231.156 34.2454 231.447 33.5801C231.62 33.1882 231.7 32.4886 231.687 31.4814C231.44 31.8551 231.144 32.1331 230.798 32.3154C230.451 32.4977 229.993 32.5889 229.424 32.5889C228.631 32.5889 227.936 32.3086 227.339 31.748C226.746 31.1829 226.45 30.251 226.45 28.9521C226.45 27.7262 226.749 26.7692 227.346 26.0811C227.947 25.3929 228.672 25.0488 229.52 25.0488ZM231.734 28.8086C231.734 27.9017 231.548 27.2295 231.174 26.792C230.8 26.3545 230.324 26.1357 229.745 26.1357C228.879 26.1357 228.287 26.5413 227.968 27.3525C227.799 27.7855 227.715 28.3529 227.715 29.0547C227.715 29.8796 227.881 30.5085 228.214 30.9414C228.551 31.3698 229.002 31.584 229.567 31.584C230.451 31.584 231.074 31.1852 231.434 30.3877C231.634 29.9365 231.734 29.4102 231.734 28.8086ZM237.634 31.707C238.45 31.707 239.008 31.3994 239.309 30.7842C239.614 30.1644 239.767 29.4762 239.767 28.7197C239.767 28.0361 239.657 27.4801 239.438 27.0518C239.092 26.3773 238.495 26.04 237.647 26.04C236.896 26.04 236.349 26.3271 236.007 26.9014C235.665 27.4756 235.494 28.1683 235.494 28.9795C235.494 29.7588 235.665 30.4082 236.007 30.9277C236.349 31.4473 236.891 31.707 237.634 31.707ZM237.682 24.9668C238.625 24.9668 239.423 25.2812 240.074 25.9102C240.726 26.5391 241.052 27.4642 241.052 28.6855C241.052 29.8659 240.765 30.8411 240.19 31.6113C239.616 32.3815 238.725 32.7666 237.518 32.7666C236.51 32.7666 235.711 32.4271 235.118 31.748C234.526 31.0645 234.229 30.1484 234.229 29C234.229 27.7695 234.542 26.7897 235.166 26.0605C235.79 25.3314 236.629 24.9668 237.682 24.9668ZM245.427 31.707C246.243 31.707 246.801 31.3994 247.102 30.7842C247.407 30.1644 247.56 29.4762 247.56 28.7197C247.56 28.0361 247.45 27.4801 247.231 27.0518C246.885 26.3773 246.288 26.04 245.44 26.04C244.688 26.04 244.142 26.3271 243.8 26.9014C243.458 27.4756 243.287 28.1683 243.287 28.9795C243.287 29.7588 243.458 30.4082 243.8 30.9277C244.142 31.4473 244.684 31.707 245.427 31.707ZM245.475 24.9668C246.418 24.9668 247.215 25.2812 247.867 25.9102C248.519 26.5391 248.845 27.4642 248.845 28.6855C248.845 29.8659 248.558 30.8411 247.983 31.6113C247.409 32.3815 246.518 32.7666 245.311 32.7666C244.303 32.7666 243.504 32.4271 242.911 31.748C242.319 31.0645 242.022 30.1484 242.022 29C242.022 27.7695 242.335 26.7897 242.959 26.0605C243.583 25.3314 244.422 24.9668 245.475 24.9668ZM252.898 25.0488C253.473 25.0488 253.974 25.1901 254.402 25.4727C254.635 25.6322 254.872 25.8646 255.113 26.1699V25.2471H256.248V31.9053C256.248 32.835 256.111 33.5687 255.838 34.1064C255.327 35.0999 254.364 35.5967 252.946 35.5967C252.158 35.5967 251.495 35.4189 250.957 35.0635C250.419 34.7126 250.118 34.1611 250.055 33.4092H251.306C251.365 33.7373 251.483 33.9902 251.661 34.168C251.939 34.4414 252.377 34.5781 252.974 34.5781C253.917 34.5781 254.535 34.2454 254.826 33.5801C254.999 33.1882 255.079 32.4886 255.065 31.4814C254.819 31.8551 254.523 32.1331 254.177 32.3154C253.83 32.4977 253.372 32.5889 252.803 32.5889C252.01 32.5889 251.315 32.3086 250.718 31.748C250.125 31.1829 249.829 30.251 249.829 28.9521C249.829 27.7262 250.128 26.7692 250.725 26.0811C251.326 25.3929 252.051 25.0488 252.898 25.0488ZM255.113 28.8086C255.113 27.9017 254.926 27.2295 254.553 26.792C254.179 26.3545 253.703 26.1357 253.124 26.1357C252.258 26.1357 251.666 26.5413 251.347 27.3525C251.178 27.7855 251.094 28.3529 251.094 29.0547C251.094 29.8796 251.26 30.5085 251.593 30.9414C251.93 31.3698 252.381 31.584 252.946 31.584C253.83 31.584 254.452 31.1852 254.812 30.3877C255.013 29.9365 255.113 29.4102 255.113 28.8086ZM258.142 22.458H259.372V32.5H258.142V22.458ZM264.273 25.0146C264.793 25.0146 265.297 25.1377 265.784 25.3838C266.272 25.6253 266.643 25.9398 266.898 26.3271C267.145 26.6963 267.309 27.127 267.391 27.6191C267.464 27.9564 267.5 28.4941 267.5 29.2324H262.134C262.157 29.9753 262.332 30.5723 262.66 31.0234C262.988 31.4701 263.496 31.6934 264.185 31.6934C264.827 31.6934 265.34 31.4814 265.723 31.0576C265.941 30.8115 266.096 30.5267 266.188 30.2031H267.397C267.366 30.472 267.258 30.7728 267.076 31.1055C266.898 31.4336 266.698 31.7025 266.475 31.9121C266.101 32.2767 265.638 32.5228 265.087 32.6504C264.791 32.7233 264.456 32.7598 264.082 32.7598C263.171 32.7598 262.398 32.4294 261.765 31.7686C261.131 31.1032 260.814 30.1735 260.814 28.9795C260.814 27.8037 261.133 26.849 261.771 26.1152C262.41 25.3815 263.243 25.0146 264.273 25.0146ZM266.235 28.2549C266.185 27.7217 266.069 27.2956 265.887 26.9766C265.549 26.3841 264.987 26.0879 264.198 26.0879C263.633 26.0879 263.159 26.293 262.776 26.7031C262.394 27.1087 262.191 27.626 262.168 28.2549H266.235ZM269.312 31.0098H270.74V32.5H269.312V31.0098ZM275.737 24.9668C276.562 24.9668 277.232 25.1673 277.747 25.5684C278.267 25.9694 278.579 26.6598 278.684 27.6396H277.487C277.414 27.1885 277.248 26.8148 276.988 26.5186C276.729 26.2178 276.312 26.0674 275.737 26.0674C274.953 26.0674 274.393 26.4502 274.056 27.2158C273.837 27.7126 273.728 28.3255 273.728 29.0547C273.728 29.7884 273.882 30.4059 274.192 30.9072C274.502 31.4085 274.99 31.6592 275.655 31.6592C276.166 31.6592 276.569 31.5042 276.865 31.1943C277.166 30.8799 277.373 30.4515 277.487 29.9092H278.684C278.547 30.8799 278.205 31.5908 277.658 32.042C277.111 32.4886 276.412 32.7119 275.56 32.7119C274.603 32.7119 273.839 32.3633 273.27 31.666C272.7 30.9642 272.415 30.0892 272.415 29.041C272.415 27.7559 272.727 26.7555 273.352 26.04C273.976 25.3245 274.771 24.9668 275.737 24.9668ZM282.819 31.707C283.635 31.707 284.193 31.3994 284.494 30.7842C284.799 30.1644 284.952 29.4762 284.952 28.7197C284.952 28.0361 284.843 27.4801 284.624 27.0518C284.278 26.3773 283.681 26.04 282.833 26.04C282.081 26.04 281.534 26.3271 281.192 26.9014C280.851 27.4756 280.68 28.1683 280.68 28.9795C280.68 29.7588 280.851 30.4082 281.192 30.9277C281.534 31.4473 282.076 31.707 282.819 31.707ZM282.867 24.9668C283.811 24.9668 284.608 25.2812 285.26 25.9102C285.911 26.5391 286.237 27.4642 286.237 28.6855C286.237 29.8659 285.95 30.8411 285.376 31.6113C284.802 32.3815 283.911 32.7666 282.703 32.7666C281.696 32.7666 280.896 32.4271 280.304 31.748C279.711 31.0645 279.415 30.1484 279.415 29C279.415 27.7695 279.727 26.7897 280.352 26.0605C280.976 25.3314 281.814 24.9668 282.867 24.9668ZM287.707 25.1787H288.924V26.2178C289.215 25.8577 289.48 25.5957 289.717 25.4316C290.122 25.1536 290.583 25.0146 291.098 25.0146C291.681 25.0146 292.15 25.1582 292.506 25.4453C292.706 25.6094 292.889 25.8509 293.053 26.1699C293.326 25.778 293.647 25.4886 294.017 25.3018C294.386 25.1104 294.8 25.0146 295.261 25.0146C296.245 25.0146 296.915 25.3701 297.271 26.0811C297.462 26.4639 297.558 26.9788 297.558 27.626V32.5H296.279V27.4141C296.279 26.9264 296.156 26.5915 295.91 26.4092C295.669 26.2269 295.372 26.1357 295.021 26.1357C294.538 26.1357 294.121 26.2975 293.771 26.6211C293.424 26.9447 293.251 27.4847 293.251 28.2412V32.5H292V27.7217C292 27.2249 291.941 26.8626 291.822 26.6348C291.635 26.293 291.287 26.1221 290.776 26.1221C290.312 26.1221 289.888 26.3021 289.505 26.6621C289.127 27.0221 288.938 27.6738 288.938 28.6172V32.5H287.707V25.1787Z" fill="#4C4C4C"/>
<path d="M522.08 25.7324C522.25 25.7324 522.385 25.6797 522.49 25.5684L524.893 23.1484C525.021 23.0195 525.08 22.8789 525.08 22.7148C525.08 22.5566 525.016 22.4043 524.893 22.2871L522.49 19.8438C522.385 19.7266 522.25 19.668 522.08 19.668C521.764 19.668 521.512 19.9316 521.512 20.2539C521.512 20.4121 521.57 20.541 521.67 20.6523L523.07 22.0234C522.795 21.9824 522.514 21.959 522.232 21.959C519.332 21.959 517.012 24.2793 517.012 27.1855C517.012 30.0918 519.35 32.4297 522.25 32.4297C525.156 32.4297 527.488 30.0918 527.488 27.1855C527.488 26.834 527.242 26.582 526.891 26.582C526.551 26.582 526.322 26.834 526.322 27.1855C526.322 29.4473 524.512 31.2637 522.25 31.2637C519.994 31.2637 518.178 29.4473 518.178 27.1855C518.178 24.9062 519.977 23.1016 522.232 23.1016C522.613 23.1016 522.965 23.1309 523.275 23.1836L521.676 24.7656C521.57 24.8711 521.512 25 521.512 25.1582C521.512 25.4805 521.764 25.7324 522.08 25.7324Z" fill="#787878"/>
<g filter="url(#filter0_d_6206_34141)">
<rect x="551" y="77" width="400" height="304" rx="20" fill="white"/>
<path fill-rule="evenodd" clip-rule="evenodd" d="M579.665 127.5C577.989 125.173 577 122.31 577 119.214C577 111.419 583.268 105.1 591 105.1C598.732 105.1 605 111.419 605 119.214C605 122.31 604.011 125.173 602.335 127.5L595.611 116.491L594.962 117.596L595.621 120.67L591 112.7L588.142 117.565L588.807 120.67L586.385 116.497L579.665 127.5Z" fill="#0CAAAB"/>
<rect x="895.5" y="101.5" width="31" height="31" rx="15.5" fill="white"/>
<path d="M905.578 121.289C905.284 121.583 905.27 122.109 905.585 122.417C905.893 122.725 906.418 122.718 906.712 122.424L910.997 118.132L915.289 122.424C915.59 122.725 916.108 122.725 916.416 122.417C916.717 122.102 916.724 121.59 916.416 121.289L912.131 116.998L916.416 112.713C916.724 112.412 916.724 111.894 916.416 111.585C916.101 111.284 915.59 111.277 915.289 111.578L910.997 115.87L906.712 111.578C906.418 111.284 905.886 111.27 905.585 111.585C905.277 111.894 905.284 112.419 905.578 112.713L909.87 116.998L905.578 121.289Z" fill="#44474E"/>
<rect x="895.5" y="101.5" width="31" height="31" rx="15.5" stroke="#B9BABD"/>
<path d="M576.264 168V153.455H579.339V165.464H585.575V168H576.264ZM592.284 168.213C591.181 168.213 590.227 167.979 589.422 167.51C588.622 167.036 588.004 166.378 587.568 165.536C587.133 164.688 586.915 163.705 586.915 162.588C586.915 161.461 587.133 160.476 587.568 159.634C588.004 158.786 588.622 158.128 589.422 157.659C590.227 157.186 591.181 156.949 592.284 156.949C593.387 156.949 594.339 157.186 595.139 157.659C595.944 158.128 596.564 158.786 597 159.634C597.436 160.476 597.653 161.461 597.653 162.588C597.653 163.705 597.436 164.688 597 165.536C596.564 166.378 595.944 167.036 595.139 167.51C594.339 167.979 593.387 168.213 592.284 168.213ZM592.298 165.869C592.8 165.869 593.219 165.727 593.555 165.443C593.892 165.154 594.145 164.761 594.315 164.264C594.49 163.767 594.578 163.201 594.578 162.567C594.578 161.932 594.49 161.366 594.315 160.869C594.145 160.372 593.892 159.979 593.555 159.69C593.219 159.402 592.8 159.257 592.298 159.257C591.792 159.257 591.365 159.402 591.02 159.69C590.679 159.979 590.421 160.372 590.246 160.869C590.075 161.366 589.99 161.932 589.99 162.567C589.99 163.201 590.075 163.767 590.246 164.264C590.421 164.761 590.679 165.154 591.02 165.443C591.365 165.727 591.792 165.869 592.298 165.869ZM604.335 172.318C603.355 172.318 602.515 172.183 601.814 171.913C601.118 171.648 600.564 171.286 600.152 170.827C599.74 170.367 599.473 169.851 599.35 169.278L602.148 168.902C602.233 169.12 602.368 169.323 602.553 169.513C602.737 169.702 602.981 169.854 603.284 169.967C603.592 170.086 603.966 170.145 604.406 170.145C605.065 170.145 605.607 169.984 606.033 169.662C606.464 169.345 606.679 168.812 606.679 168.064V166.068H606.551C606.419 166.371 606.22 166.658 605.955 166.928C605.69 167.197 605.349 167.418 604.932 167.588C604.515 167.759 604.018 167.844 603.441 167.844C602.621 167.844 601.876 167.654 601.203 167.276C600.536 166.892 600.003 166.307 599.605 165.521C599.212 164.731 599.016 163.732 599.016 162.524C599.016 161.288 599.217 160.256 599.62 159.428C600.022 158.599 600.557 157.979 601.225 157.567C601.897 157.155 602.633 156.949 603.433 156.949C604.044 156.949 604.556 157.053 604.968 157.261C605.379 157.465 605.711 157.721 605.962 158.028C606.218 158.331 606.414 158.63 606.551 158.923H606.665V157.091H609.669V168.107C609.669 169.035 609.442 169.811 608.987 170.436C608.533 171.061 607.903 171.53 607.098 171.842C606.298 172.16 605.377 172.318 604.335 172.318ZM604.399 165.571C604.887 165.571 605.299 165.45 605.635 165.209C605.976 164.963 606.236 164.612 606.416 164.158C606.601 163.698 606.693 163.149 606.693 162.51C606.693 161.871 606.603 161.317 606.424 160.848C606.244 160.375 605.983 160.008 605.642 159.747C605.301 159.487 604.887 159.357 604.399 159.357C603.902 159.357 603.483 159.491 603.142 159.761C602.801 160.027 602.543 160.396 602.368 160.869C602.193 161.343 602.105 161.89 602.105 162.51C602.105 163.14 602.193 163.684 602.368 164.143C602.548 164.598 602.806 164.951 603.142 165.202C603.483 165.448 603.902 165.571 604.399 165.571ZM616.306 168V157.091H619.331V168H616.306ZM617.826 155.685C617.376 155.685 616.99 155.536 616.668 155.237C616.351 154.934 616.192 154.572 616.192 154.151C616.192 153.734 616.351 153.376 616.668 153.078C616.99 152.775 617.376 152.624 617.826 152.624C618.276 152.624 618.659 152.775 618.976 153.078C619.298 153.376 619.459 153.734 619.459 154.151C619.459 154.572 619.298 154.934 618.976 155.237C618.659 155.536 618.276 155.685 617.826 155.685ZM624.581 161.693V168H621.555V157.091H624.439V159.016H624.566C624.808 158.381 625.213 157.879 625.781 157.51C626.349 157.136 627.038 156.949 627.848 156.949C628.605 156.949 629.266 157.115 629.829 157.446C630.393 157.777 630.831 158.251 631.143 158.866C631.456 159.477 631.612 160.206 631.612 161.054V168H628.586V161.594C628.591 160.926 628.421 160.405 628.075 160.031C627.729 159.652 627.253 159.463 626.647 159.463C626.24 159.463 625.88 159.551 625.568 159.726C625.26 159.901 625.019 160.157 624.843 160.493C624.673 160.824 624.585 161.224 624.581 161.693ZM640.377 168L637.409 157.091H640.47L642.16 164.42H642.259L644.021 157.091H647.025L648.815 164.378H648.907L650.569 157.091H653.623L650.661 168H647.458L645.583 161.139H645.448L643.573 168H640.377ZM655.037 168V157.091H658.063V168H655.037ZM656.557 155.685C656.107 155.685 655.721 155.536 655.399 155.237C655.082 154.934 654.923 154.572 654.923 154.151C654.923 153.734 655.082 153.376 655.399 153.078C655.721 152.775 656.107 152.624 656.557 152.624C657.007 152.624 657.39 152.775 657.708 153.078C658.029 153.376 658.19 153.734 658.19 154.151C658.19 154.572 658.029 154.934 657.708 155.237C657.39 155.536 657.007 155.685 656.557 155.685ZM666.089 157.091V159.364H659.519V157.091H666.089ZM661.011 154.477H664.036V164.648C664.036 164.927 664.079 165.145 664.164 165.301C664.249 165.453 664.368 165.559 664.519 165.621C664.675 165.682 664.855 165.713 665.059 165.713C665.201 165.713 665.343 165.701 665.485 165.678C665.627 165.649 665.736 165.628 665.812 165.614L666.288 167.865C666.136 167.912 665.923 167.967 665.649 168.028C665.374 168.095 665.04 168.135 664.647 168.149C663.918 168.178 663.279 168.08 662.729 167.858C662.185 167.635 661.761 167.29 661.458 166.821C661.155 166.352 661.006 165.76 661.011 165.045V154.477ZM671.12 161.693V168H668.094V153.455H671.034V159.016H671.162C671.408 158.372 671.806 157.867 672.355 157.503C672.905 157.134 673.594 156.949 674.422 156.949C675.18 156.949 675.84 157.115 676.404 157.446C676.972 157.773 677.412 158.244 677.725 158.859C678.042 159.47 678.198 160.202 678.194 161.054V168H675.168V161.594C675.173 160.921 675.002 160.398 674.657 160.024C674.316 159.65 673.837 159.463 673.222 159.463C672.81 159.463 672.445 159.551 672.128 159.726C671.816 159.901 671.569 160.157 671.39 160.493C671.214 160.824 671.124 161.224 671.12 161.693ZM684.803 172.091V157.091H687.786V158.923H687.921C688.054 158.63 688.246 158.331 688.497 158.028C688.752 157.721 689.084 157.465 689.491 157.261C689.903 157.053 690.414 156.949 691.025 156.949C691.821 156.949 692.554 157.157 693.227 157.574C693.899 157.986 694.437 158.608 694.839 159.442C695.241 160.27 695.443 161.31 695.443 162.56C695.443 163.777 695.246 164.804 694.853 165.642C694.465 166.475 693.935 167.107 693.262 167.538C692.595 167.964 691.847 168.178 691.018 168.178C690.431 168.178 689.931 168.08 689.519 167.886C689.112 167.692 688.778 167.448 688.518 167.155C688.258 166.857 688.059 166.556 687.921 166.253H687.829V172.091H684.803ZM687.765 162.545C687.765 163.194 687.855 163.76 688.035 164.243C688.215 164.726 688.475 165.102 688.816 165.372C689.157 165.637 689.571 165.77 690.059 165.77C690.552 165.77 690.968 165.635 691.309 165.365C691.65 165.09 691.908 164.712 692.083 164.229C692.263 163.741 692.353 163.18 692.353 162.545C692.353 161.916 692.266 161.362 692.09 160.884C691.915 160.405 691.657 160.031 691.316 159.761C690.975 159.491 690.556 159.357 690.059 159.357C689.567 159.357 689.15 159.487 688.809 159.747C688.473 160.008 688.215 160.377 688.035 160.855C687.855 161.333 687.765 161.897 687.765 162.545ZM700.371 168.206C699.675 168.206 699.054 168.085 698.51 167.844C697.965 167.598 697.534 167.235 697.217 166.757C696.905 166.274 696.748 165.673 696.748 164.953C696.748 164.347 696.86 163.838 697.082 163.426C697.305 163.014 697.608 162.683 697.991 162.432C698.375 162.181 698.81 161.991 699.298 161.864C699.791 161.736 700.307 161.646 700.846 161.594C701.481 161.527 701.992 161.466 702.38 161.409C702.769 161.348 703.05 161.258 703.226 161.139C703.401 161.021 703.488 160.846 703.488 160.614V160.571C703.488 160.121 703.346 159.773 703.062 159.527C702.783 159.281 702.385 159.158 701.869 159.158C701.325 159.158 700.891 159.278 700.569 159.52C700.247 159.757 700.034 160.055 699.93 160.415L697.132 160.188C697.274 159.525 697.553 158.952 697.97 158.469C698.387 157.981 698.924 157.607 699.582 157.347C700.245 157.081 701.012 156.949 701.883 156.949C702.489 156.949 703.069 157.02 703.623 157.162C704.182 157.304 704.677 157.524 705.108 157.822C705.543 158.121 705.887 158.504 706.138 158.973C706.389 159.437 706.514 159.993 706.514 160.642V168H703.645V166.487H703.559C703.384 166.828 703.15 167.129 702.856 167.389C702.563 167.645 702.21 167.846 701.798 167.993C701.386 168.135 700.91 168.206 700.371 168.206ZM701.237 166.118C701.682 166.118 702.075 166.03 702.416 165.855C702.757 165.675 703.024 165.434 703.219 165.131C703.413 164.828 703.51 164.484 703.51 164.101V162.943C703.415 163.005 703.285 163.062 703.119 163.114C702.958 163.161 702.776 163.206 702.572 163.249C702.369 163.286 702.165 163.322 701.961 163.355C701.758 163.384 701.573 163.41 701.407 163.433C701.052 163.485 700.742 163.568 700.477 163.682C700.212 163.795 700.006 163.949 699.859 164.143C699.712 164.333 699.639 164.57 699.639 164.854C699.639 165.266 699.788 165.58 700.086 165.798C700.389 166.011 700.773 166.118 701.237 166.118ZM717.738 160.202L714.968 160.372C714.921 160.135 714.819 159.922 714.663 159.733C714.506 159.539 714.3 159.385 714.045 159.271C713.794 159.153 713.493 159.094 713.143 159.094C712.674 159.094 712.279 159.193 711.957 159.392C711.635 159.586 711.474 159.847 711.474 160.173C711.474 160.434 711.578 160.654 711.786 160.834C711.995 161.014 712.352 161.158 712.859 161.267L714.833 161.665C715.894 161.883 716.684 162.233 717.205 162.716C717.726 163.199 717.987 163.833 717.987 164.619C717.987 165.334 717.776 165.962 717.354 166.501C716.938 167.041 716.365 167.463 715.636 167.766C714.911 168.064 714.076 168.213 713.129 168.213C711.684 168.213 710.534 167.912 709.677 167.311C708.825 166.705 708.325 165.881 708.178 164.839L711.154 164.683C711.244 165.124 711.462 165.46 711.808 165.692C712.153 165.919 712.596 166.033 713.136 166.033C713.666 166.033 714.092 165.931 714.414 165.727C714.741 165.519 714.907 165.251 714.911 164.925C714.907 164.65 714.791 164.425 714.563 164.25C714.336 164.07 713.986 163.933 713.512 163.838L711.623 163.462C710.558 163.249 709.765 162.879 709.244 162.354C708.728 161.828 708.47 161.158 708.47 160.344C708.47 159.643 708.659 159.039 709.038 158.533C709.421 158.026 709.959 157.635 710.65 157.361C711.346 157.086 712.16 156.949 713.093 156.949C714.471 156.949 715.555 157.24 716.346 157.822C717.141 158.405 717.605 159.198 717.738 160.202ZM728.768 160.202L725.999 160.372C725.951 160.135 725.849 159.922 725.693 159.733C725.537 159.539 725.331 159.385 725.075 159.271C724.824 159.153 724.524 159.094 724.173 159.094C723.705 159.094 723.309 159.193 722.987 159.392C722.665 159.586 722.504 159.847 722.504 160.173C722.504 160.434 722.608 160.654 722.817 160.834C723.025 161.014 723.383 161.158 723.889 161.267L725.864 161.665C726.924 161.883 727.715 162.233 728.236 162.716C728.757 163.199 729.017 163.833 729.017 164.619C729.017 165.334 728.806 165.962 728.385 166.501C727.968 167.041 727.395 167.463 726.666 167.766C725.942 168.064 725.106 168.213 724.159 168.213C722.715 168.213 721.564 167.912 720.707 167.311C719.855 166.705 719.356 165.881 719.209 164.839L722.185 164.683C722.275 165.124 722.492 165.46 722.838 165.692C723.184 165.919 723.626 166.033 724.166 166.033C724.696 166.033 725.123 165.931 725.445 165.727C725.771 165.519 725.937 165.251 725.942 164.925C725.937 164.65 725.821 164.425 725.594 164.25C725.366 164.07 725.016 163.933 724.543 163.838L722.653 163.462C721.588 163.249 720.795 162.879 720.274 162.354C719.758 161.828 719.5 161.158 719.5 160.344C719.5 159.643 719.689 159.039 720.068 158.533C720.452 158.026 720.989 157.635 721.68 157.361C722.376 157.086 723.191 156.949 724.124 156.949C725.501 156.949 726.586 157.24 727.376 157.822C728.172 158.405 728.636 159.198 728.768 160.202ZM733.464 164.861L733.471 161.232H733.911L737.405 157.091H740.878L736.184 162.574H735.467L733.464 164.861ZM730.722 168V153.455H733.748V168H730.722ZM737.54 168L734.33 163.249L736.347 161.111L741.084 168H737.54ZM746.685 168.213C745.563 168.213 744.597 167.986 743.788 167.531C742.983 167.072 742.362 166.423 741.927 165.585C741.491 164.742 741.273 163.746 741.273 162.595C741.273 161.473 741.491 160.488 741.927 159.641C742.362 158.793 742.975 158.133 743.766 157.659C744.562 157.186 745.494 156.949 746.564 156.949C747.284 156.949 747.954 157.065 748.574 157.297C749.199 157.524 749.744 157.867 750.208 158.327C750.677 158.786 751.041 159.364 751.302 160.06C751.562 160.751 751.692 161.561 751.692 162.489V163.32H742.481V161.445H748.844C748.844 161.009 748.75 160.623 748.56 160.287C748.371 159.951 748.108 159.688 747.772 159.499C747.44 159.304 747.055 159.207 746.614 159.207C746.155 159.207 745.748 159.314 745.393 159.527C745.042 159.735 744.768 160.017 744.569 160.372C744.37 160.723 744.268 161.113 744.263 161.544V163.327C744.263 163.866 744.363 164.333 744.562 164.726C744.765 165.119 745.052 165.422 745.421 165.635C745.79 165.848 746.228 165.955 746.735 165.955C747.071 165.955 747.379 165.907 747.658 165.812C747.938 165.718 748.177 165.576 748.376 165.386C748.574 165.197 748.726 164.965 748.83 164.69L751.628 164.875C751.486 165.547 751.195 166.134 750.755 166.636C750.319 167.134 749.756 167.522 749.064 167.801C748.378 168.076 747.585 168.213 746.685 168.213ZM755.042 172.091C754.658 172.091 754.298 172.06 753.962 171.999C753.631 171.942 753.356 171.868 753.138 171.778L753.82 169.52C754.175 169.629 754.495 169.688 754.779 169.697C755.068 169.707 755.316 169.641 755.525 169.499C755.738 169.357 755.911 169.115 756.043 168.774L756.221 168.312L752.307 157.091H755.489L757.748 165.102H757.861L760.141 157.091H763.344L759.104 169.179C758.901 169.766 758.624 170.277 758.273 170.713C757.928 171.153 757.49 171.492 756.959 171.729C756.429 171.97 755.79 172.091 755.042 172.091ZM767.292 163.639V163.398C767.297 162.569 767.37 161.909 767.512 161.416C767.659 160.924 767.872 160.526 768.151 160.223C768.431 159.92 768.767 159.645 769.16 159.399C769.453 159.21 769.716 159.013 769.948 158.81C770.18 158.606 770.365 158.381 770.502 158.135C770.64 157.884 770.708 157.605 770.708 157.297C770.708 156.97 770.63 156.684 770.474 156.438C770.318 156.191 770.107 156.002 769.842 155.869C769.581 155.737 769.292 155.67 768.975 155.67C768.667 155.67 768.376 155.739 768.102 155.876C767.827 156.009 767.602 156.208 767.427 156.473C767.252 156.733 767.157 157.058 767.143 157.446H764.245C764.269 156.499 764.496 155.718 764.927 155.102C765.358 154.482 765.928 154.02 766.639 153.717C767.349 153.41 768.132 153.256 768.989 153.256C769.932 153.256 770.765 153.412 771.489 153.724C772.214 154.032 772.782 154.48 773.194 155.067C773.606 155.654 773.812 156.362 773.812 157.19C773.812 157.744 773.72 158.237 773.535 158.668C773.355 159.094 773.102 159.473 772.775 159.804C772.448 160.131 772.062 160.427 771.617 160.692C771.243 160.914 770.935 161.146 770.694 161.388C770.457 161.629 770.28 161.909 770.161 162.226C770.048 162.543 769.988 162.934 769.984 163.398V163.639H767.292ZM768.698 168.185C768.225 168.185 767.82 168.019 767.484 167.688C767.152 167.351 766.989 166.949 766.994 166.48C766.989 166.016 767.152 165.618 767.484 165.287C767.82 164.955 768.225 164.79 768.698 164.79C769.148 164.79 769.543 164.955 769.884 165.287C770.225 165.618 770.398 166.016 770.403 166.48C770.398 166.793 770.315 167.079 770.154 167.339C769.998 167.595 769.792 167.801 769.536 167.957C769.281 168.109 769.001 168.185 768.698 168.185Z" fill="black"/>
<g filter="url(#filter1_ii_6206_34141)">
<rect width="400" height="64" transform="translate(551 189)" fill="#F8F8F8"/>
<g filter="url(#filter2_i_6206_34141)">
<rect width="376" height="64" transform="translate(575 189)" fill="#F8F8F8"/>
<mask id="mask0_6206_34141" style="mask-type:alpha" maskUnits="userSpaceOnUse" x="575" y="205" width="32" height="32">
<path d="M575 217C575 211.343 575 208.515 576.757 206.757C578.515 205 581.343 205 587 205H595C600.657 205 603.485 205 605.243 206.757C607 208.515 607 211.343 607 217V225C607 230.657 607 233.485 605.243 235.243C603.485 237 600.657 237 595 237H587C581.343 237 578.515 237 576.757 235.243C575 233.485 575 230.657 575 225V217Z" fill="#C4C4C4"/>
</mask>
<g mask="url(#mask0_6206_34141)">
<mask id="mask1_6206_34141" style="mask-type:luminance" maskUnits="userSpaceOnUse" x="577" y="206" width="28" height="29">
<path fill-rule="evenodd" clip-rule="evenodd" d="M604.674 218.442H591.326V223.855H599.009C598.293 227.294 595.298 229.268 591.326 229.268C586.637 229.268 582.86 225.575 582.86 220.99C582.86 216.405 586.637 212.711 591.326 212.711C593.344 212.711 595.167 213.411 596.6 214.558L600.767 210.482C598.228 208.317 594.972 206.979 591.326 206.979C583.381 206.979 577 213.22 577 220.99C577 228.759 583.381 235 591.326 235C598.488 235 605 229.905 605 220.99C605 220.162 604.87 219.27 604.674 218.442Z" fill="white"/>
</mask>
<g mask="url(#mask1_6206_34141)">
<path fill-rule="evenodd" clip-rule="evenodd" d="M575.698 229.268V212.711L586.767 220.99L575.698 229.268Z" fill="#FBBC05"/>
</g>
<mask id="mask2_6206_34141" style="mask-type:luminance" maskUnits="userSpaceOnUse" x="577" y="206" width="28" height="29">
<path fill-rule="evenodd" clip-rule="evenodd" d="M604.674 218.442H591.326V223.855H599.009C598.293 227.294 595.298 229.268 591.326 229.268C586.637 229.268 582.86 225.575 582.86 220.99C582.86 216.405 586.637 212.711 591.326 212.711C593.344 212.711 595.167 213.411 596.6 214.558L600.767 210.482C598.228 208.317 594.972 206.979 591.326 206.979C583.381 206.979 577 213.22 577 220.99C577 228.759 583.381 235 591.326 235C598.488 235 605 229.905 605 220.99C605 220.162 604.87 219.27 604.674 218.442Z" fill="white"/>
</mask>
<g mask="url(#mask2_6206_34141)">
<path fill-rule="evenodd" clip-rule="evenodd" d="M575.698 212.711L586.767 220.99L591.326 217.105L606.953 214.622V205.706H575.698V212.711Z" fill="#EA4335"/>
</g>
<mask id="mask3_6206_34141" style="mask-type:luminance" maskUnits="userSpaceOnUse" x="577" y="206" width="28" height="29">
<path fill-rule="evenodd" clip-rule="evenodd" d="M604.674 218.442H591.326V223.855H599.009C598.293 227.294 595.298 229.268 591.326 229.268C586.637 229.268 582.86 225.575 582.86 220.99C582.86 216.405 586.637 212.711 591.326 212.711C593.344 212.711 595.167 213.411 596.6 214.558L600.767 210.482C598.228 208.317 594.972 206.979 591.326 206.979C583.381 206.979 577 213.22 577 220.99C577 228.759 583.381 235 591.326 235C598.488 235 605 229.905 605 220.99C605 220.162 604.87 219.27 604.674 218.442Z" fill="white"/>
</mask>
<g mask="url(#mask3_6206_34141)">
<path fill-rule="evenodd" clip-rule="evenodd" d="M575.698 229.269L595.233 214.622L600.377 215.258L606.953 205.706V236.274H575.698V229.269Z" fill="#34A853"/>
</g>
<mask id="mask4_6206_34141" style="mask-type:luminance" maskUnits="userSpaceOnUse" x="577" y="206" width="28" height="29">
<path fill-rule="evenodd" clip-rule="evenodd" d="M604.674 218.442H591.326V223.855H599.009C598.293 227.294 595.298 229.268 591.326 229.268C586.637 229.268 582.86 225.575 582.86 220.99C582.86 216.405 586.637 212.711 591.326 212.711C593.344 212.711 595.167 213.411 596.6 214.558L600.767 210.482C598.228 208.317 594.972 206.979 591.326 206.979C583.381 206.979 577 213.22 577 220.99C577 228.759 583.381 235 591.326 235C598.488 235 605 229.905 605 220.99C605 220.162 604.87 219.27 604.674 218.442Z" fill="white"/>
</mask>
<g mask="url(#mask4_6206_34141)">
<path fill-rule="evenodd" clip-rule="evenodd" d="M606.954 236.274L586.768 220.99L584.163 219.079L606.954 212.711V236.274Z" fill="#4285F4"/>
</g>
</g>
<path d="M631.009 210.035C630.913 209.733 630.784 209.463 630.621 209.224C630.462 208.982 630.272 208.777 630.05 208.608C629.828 208.436 629.574 208.305 629.289 208.215C629.007 208.126 628.697 208.081 628.359 208.081C627.786 208.081 627.269 208.228 626.808 208.523C626.348 208.818 625.983 209.251 625.714 209.821C625.449 210.388 625.317 211.082 625.317 211.904C625.317 212.729 625.451 213.427 625.719 213.997C625.988 214.567 626.356 215 626.823 215.295C627.29 215.59 627.822 215.737 628.419 215.737C628.973 215.737 629.455 215.625 629.866 215.399C630.28 215.174 630.6 214.856 630.825 214.445C631.054 214.03 631.168 213.543 631.168 212.983L631.566 213.058H628.653V211.79H632.655V212.948C632.655 213.803 632.473 214.546 632.108 215.175C631.747 215.802 631.246 216.286 630.607 216.627C629.97 216.969 629.241 217.139 628.419 217.139C627.498 217.139 626.689 216.927 625.993 216.503C625.3 216.079 624.76 215.477 624.372 214.698C623.984 213.916 623.79 212.988 623.79 211.914C623.79 211.102 623.903 210.373 624.129 209.727C624.354 209.08 624.67 208.532 625.078 208.081C625.489 207.627 625.971 207.281 626.525 207.042C627.082 206.8 627.69 206.679 628.349 206.679C628.9 206.679 629.412 206.76 629.886 206.923C630.363 207.085 630.787 207.315 631.158 207.614C631.533 207.912 631.843 208.267 632.088 208.678C632.333 209.085 632.499 209.538 632.585 210.035H631.009ZM637.562 217.154C636.846 217.154 636.222 216.99 635.688 216.662C635.154 216.334 634.74 215.875 634.445 215.285C634.15 214.695 634.003 214.005 634.003 213.217C634.003 212.424 634.15 211.732 634.445 211.138C634.74 210.545 635.154 210.085 635.688 209.756C636.222 209.428 636.846 209.264 637.562 209.264C638.278 209.264 638.903 209.428 639.437 209.756C639.97 210.085 640.384 210.545 640.679 211.138C640.974 211.732 641.122 212.424 641.122 213.217C641.122 214.005 640.974 214.695 640.679 215.285C640.384 215.875 639.97 216.334 639.437 216.662C638.903 216.99 638.278 217.154 637.562 217.154ZM637.567 215.906C638.031 215.906 638.416 215.784 638.721 215.538C639.026 215.293 639.251 214.967 639.397 214.559C639.546 214.151 639.62 213.702 639.62 213.212C639.62 212.724 639.546 212.277 639.397 211.869C639.251 211.458 639.026 211.129 638.721 210.88C638.416 210.631 638.031 210.507 637.567 210.507C637.1 210.507 636.712 210.631 636.404 210.88C636.099 211.129 635.872 211.458 635.723 211.869C635.577 212.277 635.504 212.724 635.504 213.212C635.504 213.702 635.577 214.151 635.723 214.559C635.872 214.967 636.099 215.293 636.404 215.538C636.712 215.784 637.1 215.906 637.567 215.906ZM645.858 217.154C645.142 217.154 644.517 216.99 643.983 216.662C643.45 216.334 643.036 215.875 642.741 215.285C642.446 214.695 642.298 214.005 642.298 213.217C642.298 212.424 642.446 211.732 642.741 211.138C643.036 210.545 643.45 210.085 643.983 209.756C644.517 209.428 645.142 209.264 645.858 209.264C646.574 209.264 647.198 209.428 647.732 209.756C648.266 210.085 648.68 210.545 648.975 211.138C649.27 211.732 649.417 212.424 649.417 213.217C649.417 214.005 649.27 214.695 648.975 215.285C648.68 215.875 648.266 216.334 647.732 216.662C647.198 216.99 646.574 217.154 645.858 217.154ZM645.863 215.906C646.327 215.906 646.711 215.784 647.016 215.538C647.321 215.293 647.546 214.967 647.692 214.559C647.841 214.151 647.916 213.702 647.916 213.212C647.916 212.724 647.841 212.277 647.692 211.869C647.546 211.458 647.321 211.129 647.016 210.88C646.711 210.631 646.327 210.507 645.863 210.507C645.395 210.507 645.008 210.631 644.699 210.88C644.394 211.129 644.167 211.458 644.018 211.869C643.872 212.277 643.8 212.724 643.8 213.212C643.8 213.702 643.872 214.151 644.018 214.559C644.167 214.967 644.394 215.293 644.699 215.538C645.008 215.784 645.395 215.906 645.863 215.906ZM654.138 220.023C653.532 220.023 653.01 219.943 652.572 219.784C652.138 219.625 651.784 219.415 651.508 219.153C651.233 218.891 651.028 218.604 650.892 218.293L652.17 217.766C652.259 217.911 652.378 218.066 652.528 218.228C652.68 218.394 652.886 218.535 653.144 218.651C653.406 218.767 653.742 218.825 654.153 218.825C654.717 218.825 655.182 218.687 655.55 218.412C655.918 218.14 656.102 217.706 656.102 217.109V215.608H656.008C655.918 215.77 655.789 215.951 655.62 216.15C655.454 216.349 655.226 216.521 654.934 216.667C654.642 216.813 654.263 216.886 653.795 216.886C653.192 216.886 652.649 216.745 652.165 216.463C651.684 216.178 651.303 215.759 651.021 215.205C650.743 214.648 650.604 213.964 650.604 213.152C650.604 212.34 650.741 211.644 651.016 211.064C651.295 210.484 651.676 210.04 652.16 209.732C652.644 209.42 653.192 209.264 653.805 209.264C654.279 209.264 654.662 209.344 654.954 209.503C655.245 209.659 655.472 209.841 655.635 210.05C655.801 210.259 655.928 210.442 656.018 210.602H656.127V209.364H657.584V217.169C657.584 217.825 657.431 218.364 657.126 218.785C656.821 219.206 656.409 219.517 655.888 219.719C655.371 219.922 654.788 220.023 654.138 220.023ZM654.124 215.653C654.551 215.653 654.912 215.553 655.207 215.354C655.506 215.152 655.731 214.864 655.883 214.489C656.039 214.112 656.117 213.659 656.117 213.132C656.117 212.618 656.041 212.166 655.888 211.775C655.736 211.384 655.512 211.079 655.217 210.86C654.922 210.638 654.558 210.527 654.124 210.527C653.676 210.527 653.303 210.643 653.005 210.875C652.707 211.104 652.481 211.415 652.329 211.81C652.18 212.204 652.105 212.645 652.105 213.132C652.105 213.633 652.181 214.072 652.334 214.45C652.486 214.827 652.712 215.122 653.01 215.335C653.311 215.547 653.683 215.653 654.124 215.653ZM660.924 206.818V217H659.437V206.818H660.924ZM666.075 217.154C665.322 217.154 664.675 216.993 664.131 216.672C663.591 216.347 663.173 215.891 662.878 215.305C662.586 214.715 662.441 214.024 662.441 213.232C662.441 212.449 662.586 211.76 662.878 211.163C663.173 210.567 663.584 210.101 664.111 209.766C664.641 209.432 665.261 209.264 665.97 209.264C666.401 209.264 666.819 209.335 667.223 209.478C667.628 209.621 667.991 209.844 668.312 210.149C668.634 210.454 668.887 210.85 669.073 211.337C669.258 211.821 669.351 212.41 669.351 213.102V213.629H663.281V212.516H667.894C667.894 212.125 667.815 211.778 667.656 211.477C667.497 211.172 667.273 210.931 666.985 210.756C666.7 210.58 666.365 210.492 665.98 210.492C665.563 210.492 665.198 210.595 664.887 210.8C664.578 211.003 664.34 211.268 664.171 211.596C664.005 211.921 663.922 212.274 663.922 212.655V213.525C663.922 214.035 664.012 214.469 664.191 214.827C664.373 215.185 664.626 215.459 664.951 215.648C665.276 215.833 665.656 215.926 666.09 215.926C666.371 215.926 666.628 215.886 666.86 215.807C667.092 215.724 667.293 215.601 667.462 215.439C667.631 215.277 667.76 215.076 667.85 214.837L669.257 215.091C669.144 215.505 668.942 215.868 668.65 216.18C668.362 216.488 667.999 216.728 667.561 216.901C667.127 217.07 666.632 217.154 666.075 217.154Z" fill="#383C43"/>
<path d="M623.857 228.455H625.131V235.426C625.131 235.864 625.051 236.233 624.892 236.534C624.736 236.835 624.503 237.064 624.193 237.22C623.886 237.376 623.507 237.455 623.055 237.455C623.01 237.455 622.967 237.455 622.928 237.455C622.885 237.455 622.841 237.453 622.795 237.45V236.355C622.835 236.355 622.871 236.355 622.902 236.355C622.93 236.355 622.963 236.355 623 236.355C623.301 236.355 623.518 236.274 623.652 236.112C623.788 235.953 623.857 235.722 623.857 235.418V228.455ZM624.487 227.445C624.266 227.445 624.075 227.371 623.916 227.223C623.76 227.072 623.682 226.893 623.682 226.686C623.682 226.476 623.76 226.297 623.916 226.149C624.075 225.999 624.266 225.923 624.487 225.923C624.709 225.923 624.898 225.999 625.054 226.149C625.213 226.297 625.293 226.476 625.293 226.686C625.293 226.893 625.213 227.072 625.054 227.223C624.898 227.371 624.709 227.445 624.487 227.445ZM629.482 235.132C628.868 235.132 628.333 234.991 627.875 234.71C627.418 234.429 627.063 234.036 626.81 233.53C626.557 233.024 626.431 232.433 626.431 231.757C626.431 231.078 626.557 230.484 626.81 229.976C627.063 229.467 627.418 229.072 627.875 228.791C628.333 228.51 628.868 228.369 629.482 228.369C630.096 228.369 630.631 228.51 631.088 228.791C631.546 229.072 631.901 229.467 632.154 229.976C632.407 230.484 632.533 231.078 632.533 231.757C632.533 232.433 632.407 233.024 632.154 233.53C631.901 234.036 631.546 234.429 631.088 234.71C630.631 234.991 630.096 235.132 629.482 235.132ZM629.486 234.062C629.884 234.062 630.213 233.957 630.475 233.747C630.736 233.537 630.929 233.257 631.054 232.908C631.182 232.558 631.246 232.173 631.246 231.753C631.246 231.335 631.182 230.952 631.054 230.602C630.929 230.25 630.736 229.967 630.475 229.754C630.213 229.541 629.884 229.435 629.486 229.435C629.086 229.435 628.753 229.541 628.489 229.754C628.228 229.967 628.033 230.25 627.905 230.602C627.78 230.952 627.718 231.335 627.718 231.753C627.718 232.173 627.78 232.558 627.905 232.908C628.033 233.257 628.228 233.537 628.489 233.747C628.753 233.957 629.086 234.062 629.486 234.062ZM635.109 231.114V235H633.835V226.273H635.092V229.52H635.173C635.327 229.168 635.561 228.888 635.876 228.68C636.192 228.473 636.604 228.369 637.112 228.369C637.561 228.369 637.953 228.462 638.288 228.646C638.626 228.831 638.888 229.107 639.073 229.473C639.26 229.837 639.354 230.291 639.354 230.837V235H638.08V230.99C638.08 230.51 637.956 230.138 637.709 229.874C637.462 229.607 637.118 229.473 636.678 229.473C636.376 229.473 636.107 229.537 635.868 229.665C635.632 229.793 635.446 229.98 635.31 230.227C635.176 230.472 635.109 230.767 635.109 231.114ZM642.208 231.114V235H640.934V228.455H642.157V229.52H642.238C642.389 229.173 642.624 228.895 642.945 228.685C643.269 228.474 643.677 228.369 644.168 228.369C644.614 228.369 645.005 228.463 645.34 228.651C645.676 228.835 645.935 229.111 646.12 229.477C646.305 229.844 646.397 230.297 646.397 230.837V235H645.123V230.99C645.123 230.516 644.999 230.145 644.752 229.878C644.505 229.608 644.166 229.473 643.734 229.473C643.438 229.473 643.176 229.537 642.945 229.665C642.718 229.793 642.538 229.98 642.404 230.227C642.274 230.472 642.208 230.767 642.208 231.114ZM648.825 235.081C648.592 235.081 648.392 234.999 648.225 234.834C648.057 234.666 647.973 234.464 647.973 234.229C647.973 233.996 648.057 233.797 648.225 233.632C648.392 233.464 648.592 233.381 648.825 233.381C649.058 233.381 649.259 233.464 649.426 233.632C649.594 233.797 649.678 233.996 649.678 234.229C649.678 234.385 649.638 234.528 649.558 234.659C649.482 234.787 649.379 234.889 649.252 234.966C649.124 235.043 648.982 235.081 648.825 235.081ZM656.169 230.053L655.014 230.257C654.966 230.109 654.889 229.969 654.784 229.835C654.682 229.702 654.543 229.592 654.367 229.507C654.19 229.422 653.97 229.379 653.706 229.379C653.345 229.379 653.044 229.46 652.803 229.622C652.561 229.781 652.44 229.987 652.44 230.24C652.44 230.459 652.521 230.635 652.683 230.768C652.845 230.902 653.107 231.011 653.467 231.097L654.507 231.335C655.11 231.474 655.558 231.689 655.854 231.979C656.149 232.268 656.297 232.645 656.297 233.108C656.297 233.5 656.183 233.849 655.956 234.156C655.732 234.46 655.418 234.699 655.014 234.872C654.614 235.045 654.149 235.132 653.621 235.132C652.888 235.132 652.29 234.976 651.827 234.663C651.364 234.348 651.08 233.901 650.975 233.321L652.206 233.134C652.283 233.455 652.44 233.697 652.679 233.862C652.918 234.024 653.229 234.105 653.612 234.105C654.03 234.105 654.364 234.018 654.614 233.845C654.864 233.669 654.989 233.455 654.989 233.202C654.989 232.997 654.912 232.825 654.759 232.686C654.608 232.547 654.377 232.442 654.064 232.371L652.956 232.128C652.345 231.989 651.894 231.767 651.601 231.463C651.311 231.159 651.166 230.774 651.166 230.308C651.166 229.922 651.274 229.584 651.49 229.294C651.706 229.004 652.004 228.778 652.385 228.616C652.766 228.452 653.202 228.369 653.693 228.369C654.401 228.369 654.958 228.523 655.364 228.83C655.77 229.134 656.038 229.541 656.169 230.053ZM657.578 235V228.455H658.801V229.52H658.882C659.018 229.159 659.241 228.878 659.551 228.676C659.861 228.472 660.231 228.369 660.663 228.369C661.101 228.369 661.467 228.472 661.763 228.676C662.061 228.881 662.281 229.162 662.423 229.52H662.491C662.648 229.17 662.896 228.892 663.237 228.685C663.578 228.474 663.984 228.369 664.456 228.369C665.05 228.369 665.534 228.555 665.909 228.928C666.287 229.3 666.476 229.861 666.476 230.611V235H665.202V230.73C665.202 230.287 665.081 229.966 664.839 229.767C664.598 229.568 664.309 229.469 663.974 229.469C663.559 229.469 663.237 229.597 663.007 229.852C662.777 230.105 662.662 230.43 662.662 230.828V235H661.392V230.649C661.392 230.294 661.281 230.009 661.059 229.793C660.838 229.577 660.55 229.469 660.194 229.469C659.953 229.469 659.73 229.533 659.525 229.661C659.324 229.786 659.16 229.96 659.035 230.185C658.913 230.409 658.852 230.669 658.852 230.964V235H657.578ZM668.063 235V228.455H669.338V235H668.063ZM668.707 227.445C668.485 227.445 668.295 227.371 668.136 227.223C667.98 227.072 667.901 226.893 667.901 226.686C667.901 226.476 667.98 226.297 668.136 226.149C668.295 225.999 668.485 225.923 668.707 225.923C668.928 225.923 669.117 225.999 669.274 226.149C669.433 226.297 669.512 226.476 669.512 226.686C669.512 226.893 669.433 227.072 669.274 227.223C669.117 227.371 668.928 227.445 668.707 227.445ZM673.987 228.455V229.477H670.412V228.455H673.987ZM671.371 226.886H672.645V233.078C672.645 233.325 672.682 233.511 672.756 233.636C672.829 233.759 672.925 233.842 673.041 233.888C673.16 233.93 673.29 233.952 673.429 233.952C673.531 233.952 673.621 233.945 673.697 233.93C673.774 233.916 673.834 233.905 673.876 233.896L674.106 234.949C674.033 234.977 673.927 235.006 673.791 235.034C673.655 235.065 673.484 235.082 673.28 235.085C672.944 235.091 672.632 235.031 672.342 234.906C672.052 234.781 671.818 234.588 671.639 234.327C671.46 234.065 671.371 233.737 671.371 233.342V226.886ZM676.691 231.114V235H675.417V226.273H676.674V229.52H676.755C676.909 229.168 677.143 228.888 677.458 228.68C677.774 228.473 678.186 228.369 678.694 228.369C679.143 228.369 679.535 228.462 679.87 228.646C680.208 228.831 680.47 229.107 680.654 229.473C680.842 229.837 680.936 230.291 680.936 230.837V235H679.661V230.99C679.661 230.51 679.538 230.138 679.291 229.874C679.044 229.607 678.7 229.473 678.259 229.473C677.958 229.473 677.688 229.537 677.45 229.665C677.214 229.793 677.028 229.98 676.892 230.227C676.758 230.472 676.691 230.767 676.691 231.114ZM687.77 237.374C686.889 237.374 686.108 237.253 685.426 237.011C684.747 236.773 684.175 236.42 683.709 235.955C683.243 235.491 682.889 234.923 682.648 234.25C682.407 233.577 682.286 232.808 682.286 231.945C682.286 231.104 682.408 230.348 682.652 229.678C682.897 229.007 683.252 228.436 683.718 227.964C684.186 227.49 684.756 227.128 685.426 226.878C686.097 226.628 686.858 226.503 687.711 226.503C688.526 226.503 689.245 226.631 689.867 226.886C690.489 227.142 691.012 227.493 691.435 227.939C691.861 228.385 692.182 228.896 692.398 229.473C692.614 230.05 692.722 230.659 692.722 231.301C692.722 231.75 692.693 232.189 692.637 232.618C692.58 233.044 692.475 233.43 692.321 233.777C692.171 234.121 691.952 234.396 691.665 234.604C691.381 234.808 691.012 234.915 690.557 234.923C690.316 234.932 690.081 234.903 689.854 234.838C689.627 234.773 689.434 234.668 689.274 234.523C689.115 234.375 689.019 234.188 688.985 233.96H688.934C688.865 234.128 688.752 234.284 688.593 234.429C688.434 234.571 688.23 234.685 687.983 234.77C687.739 234.852 687.455 234.886 687.131 234.872C686.773 234.858 686.451 234.777 686.164 234.629C685.877 234.482 685.631 234.277 685.426 234.016C685.225 233.754 685.07 233.445 684.962 233.087C684.854 232.729 684.8 232.331 684.8 231.893C684.8 231.473 684.861 231.097 684.983 230.764C685.105 230.429 685.272 230.141 685.482 229.899C685.695 229.655 685.939 229.462 686.215 229.32C686.49 229.178 686.782 229.088 687.088 229.051C687.387 229.017 687.661 229.026 687.911 229.077C688.161 229.128 688.368 229.206 688.533 229.311C688.701 229.416 688.806 229.531 688.848 229.656H688.904V229.179H689.952V233.134C689.952 233.358 690.01 233.548 690.127 233.705C690.246 233.861 690.415 233.939 690.634 233.939C690.892 233.939 691.094 233.844 691.239 233.653C691.387 233.463 691.49 233.17 691.55 232.776C691.612 232.381 691.644 231.875 691.644 231.259C691.644 230.827 691.586 230.42 691.469 230.04C691.355 229.656 691.186 229.31 690.962 229C690.74 228.688 690.468 228.419 690.144 228.195C689.82 227.97 689.451 227.797 689.036 227.675C688.624 227.553 688.168 227.491 687.668 227.491C686.989 227.491 686.385 227.597 685.857 227.807C685.328 228.014 684.882 228.314 684.519 228.706C684.158 229.098 683.884 229.568 683.696 230.116C683.512 230.662 683.419 231.274 683.419 231.953C683.419 232.661 683.514 233.288 683.705 233.837C683.895 234.382 684.176 234.842 684.549 235.217C684.921 235.592 685.381 235.876 685.929 236.07C686.478 236.266 687.11 236.364 687.826 236.364C688.144 236.364 688.456 236.335 688.763 236.278C689.07 236.224 689.343 236.162 689.581 236.091C689.823 236.023 690.003 235.967 690.122 235.925L690.421 236.858C690.245 236.94 690.01 237.021 689.718 237.101C689.428 237.18 689.112 237.246 688.772 237.297C688.434 237.348 688.1 237.374 687.77 237.374ZM687.378 233.828C687.747 233.828 688.044 233.754 688.269 233.607C688.496 233.459 688.659 233.239 688.759 232.946C688.861 232.651 688.912 232.281 688.912 231.838C688.909 231.406 688.854 231.062 688.746 230.807C688.641 230.548 688.476 230.364 688.252 230.253C688.03 230.139 687.745 230.082 687.395 230.082C687.074 230.082 686.8 230.161 686.573 230.317C686.348 230.473 686.176 230.685 686.057 230.952C685.941 231.219 685.881 231.516 685.878 231.842C685.881 232.186 685.929 232.51 686.023 232.814C686.12 233.115 686.276 233.359 686.492 233.547C686.711 233.734 687.006 233.828 687.378 233.828ZM696.754 237.591C696.234 237.591 695.786 237.523 695.411 237.386C695.039 237.25 694.735 237.07 694.499 236.845C694.263 236.621 694.087 236.375 693.971 236.108L695.066 235.656C695.143 235.781 695.245 235.913 695.373 236.053C695.504 236.195 695.68 236.315 695.901 236.415C696.126 236.514 696.414 236.564 696.766 236.564C697.249 236.564 697.648 236.446 697.964 236.21C698.279 235.977 698.437 235.605 698.437 235.094V233.807H698.356C698.279 233.946 698.168 234.101 698.023 234.271C697.881 234.442 697.685 234.589 697.435 234.714C697.185 234.839 696.86 234.902 696.459 234.902C695.942 234.902 695.477 234.781 695.062 234.54C694.65 234.295 694.323 233.936 694.082 233.462C693.843 232.984 693.724 232.398 693.724 231.702C693.724 231.006 693.842 230.409 694.077 229.912C694.316 229.415 694.643 229.034 695.057 228.77C695.472 228.503 695.942 228.369 696.468 228.369C696.874 228.369 697.202 228.438 697.452 228.574C697.702 228.707 697.897 228.864 698.036 229.043C698.178 229.222 698.288 229.379 698.364 229.516H698.458V228.455H699.707V235.145C699.707 235.707 699.576 236.169 699.315 236.53C699.053 236.891 698.7 237.158 698.254 237.331C697.81 237.504 697.31 237.591 696.754 237.591ZM696.741 233.845C697.107 233.845 697.417 233.76 697.67 233.589C697.925 233.416 698.119 233.169 698.249 232.848C698.383 232.524 698.45 232.136 698.45 231.685C698.45 231.244 698.384 230.857 698.254 230.521C698.123 230.186 697.931 229.925 697.678 229.737C697.425 229.547 697.113 229.452 696.741 229.452C696.357 229.452 696.038 229.551 695.782 229.75C695.526 229.946 695.333 230.213 695.202 230.551C695.075 230.889 695.011 231.267 695.011 231.685C695.011 232.114 695.076 232.49 695.207 232.814C695.337 233.138 695.53 233.391 695.786 233.572C696.045 233.754 696.363 233.845 696.741 233.845ZM701.295 235V228.455H702.518V229.52H702.599C702.736 229.159 702.959 228.878 703.268 228.676C703.578 228.472 703.949 228.369 704.381 228.369C704.818 228.369 705.185 228.472 705.48 228.676C705.778 228.881 705.999 229.162 706.141 229.52H706.209C706.365 229.17 706.614 228.892 706.955 228.685C707.295 228.474 707.702 228.369 708.173 228.369C708.767 228.369 709.251 228.555 709.626 228.928C710.004 229.3 710.193 229.861 710.193 230.611V235H708.919V230.73C708.919 230.287 708.798 229.966 708.557 229.767C708.315 229.568 708.027 229.469 707.692 229.469C707.277 229.469 706.955 229.597 706.724 229.852C706.494 230.105 706.379 230.43 706.379 230.828V235H705.109V230.649C705.109 230.294 704.999 230.009 704.777 229.793C704.555 229.577 704.267 229.469 703.912 229.469C703.67 229.469 703.447 229.533 703.243 229.661C703.041 229.786 702.878 229.96 702.753 230.185C702.631 230.409 702.57 230.669 702.57 230.964V235H701.295ZM713.686 235.145C713.271 235.145 712.896 235.068 712.561 234.915C712.226 234.759 711.96 234.533 711.764 234.237C711.571 233.942 711.474 233.58 711.474 233.151C711.474 232.781 711.545 232.477 711.687 232.239C711.829 232 712.021 231.811 712.262 231.672C712.504 231.533 712.774 231.428 713.072 231.357C713.37 231.286 713.674 231.232 713.984 231.195C714.376 231.149 714.694 231.112 714.939 231.084C715.183 231.053 715.36 231.003 715.471 230.935C715.582 230.866 715.637 230.756 715.637 230.602V230.572C715.637 230.2 715.532 229.912 715.322 229.707C715.115 229.503 714.805 229.401 714.393 229.401C713.964 229.401 713.626 229.496 713.379 229.686C713.135 229.874 712.966 230.082 712.872 230.312L711.674 230.04C711.816 229.642 712.024 229.321 712.297 229.077C712.572 228.83 712.889 228.651 713.247 228.54C713.605 228.426 713.981 228.369 714.376 228.369C714.637 228.369 714.914 228.401 715.207 228.463C715.503 228.523 715.778 228.634 716.034 228.795C716.292 228.957 716.504 229.189 716.669 229.49C716.833 229.788 716.916 230.176 716.916 230.653V235H715.672V234.105H715.62C715.538 234.27 715.414 234.432 715.25 234.591C715.085 234.75 714.873 234.882 714.615 234.987C714.356 235.092 714.047 235.145 713.686 235.145ZM713.963 234.122C714.315 234.122 714.616 234.053 714.866 233.913C715.119 233.774 715.311 233.592 715.441 233.368C715.575 233.141 715.642 232.898 715.642 232.639V231.795C715.596 231.841 715.508 231.884 715.378 231.923C715.25 231.96 715.103 231.993 714.939 232.021C714.774 232.047 714.613 232.071 714.457 232.094C714.301 232.114 714.17 232.131 714.065 232.145C713.818 232.176 713.592 232.229 713.387 232.303C713.186 232.376 713.024 232.483 712.902 232.622C712.782 232.759 712.723 232.94 712.723 233.168C712.723 233.483 712.839 233.722 713.072 233.884C713.305 234.043 713.602 234.122 713.963 234.122ZM718.493 235V228.455H719.767V235H718.493ZM719.136 227.445C718.915 227.445 718.724 227.371 718.565 227.223C718.409 227.072 718.331 226.893 718.331 226.686C718.331 226.476 718.409 226.297 718.565 226.149C718.724 225.999 718.915 225.923 719.136 225.923C719.358 225.923 719.547 225.999 719.703 226.149C719.862 226.297 719.942 226.476 719.942 226.686C719.942 226.893 719.862 227.072 719.703 227.223C719.547 227.371 719.358 227.445 719.136 227.445ZM722.635 226.273V235H721.361V226.273H722.635ZM725.069 235.081C724.836 235.081 724.636 234.999 724.468 234.834C724.301 234.666 724.217 234.464 724.217 234.229C724.217 233.996 724.301 233.797 724.468 233.632C724.636 233.464 724.836 233.381 725.069 233.381C725.302 233.381 725.502 233.464 725.67 233.632C725.837 233.797 725.921 233.996 725.921 234.229C725.921 234.385 725.881 234.528 725.802 234.659C725.725 234.787 725.623 234.889 725.495 234.966C725.367 235.043 725.225 235.081 725.069 235.081ZM730.265 235.132C729.632 235.132 729.086 234.989 728.629 234.702C728.174 234.412 727.825 234.013 727.58 233.504C727.336 232.996 727.214 232.413 727.214 231.757C727.214 231.092 727.339 230.506 727.589 229.997C727.839 229.486 728.191 229.087 728.646 228.8C729.1 228.513 729.636 228.369 730.252 228.369C730.749 228.369 731.193 228.462 731.582 228.646C731.971 228.828 732.285 229.084 732.524 229.413C732.765 229.743 732.909 230.128 732.954 230.568H731.714C731.646 230.261 731.489 229.997 731.245 229.776C731.004 229.554 730.68 229.443 730.274 229.443C729.918 229.443 729.607 229.537 729.34 229.724C729.076 229.909 728.87 230.173 728.722 230.517C728.575 230.858 728.501 231.261 728.501 231.727C728.501 232.205 728.573 232.616 728.718 232.963C728.863 233.31 729.068 233.578 729.332 233.768C729.599 233.959 729.913 234.054 730.274 234.054C730.515 234.054 730.734 234.01 730.93 233.922C731.129 233.831 731.295 233.702 731.428 233.534C731.565 233.366 731.66 233.165 731.714 232.929H732.954C732.909 233.352 732.771 233.73 732.541 234.062C732.31 234.395 732.002 234.656 731.616 234.847C731.232 235.037 730.782 235.132 730.265 235.132ZM736.954 235.132C736.34 235.132 735.804 234.991 735.347 234.71C734.89 234.429 734.535 234.036 734.282 233.53C734.029 233.024 733.902 232.433 733.902 231.757C733.902 231.078 734.029 230.484 734.282 229.976C734.535 229.467 734.89 229.072 735.347 228.791C735.804 228.51 736.34 228.369 736.954 228.369C737.567 228.369 738.103 228.51 738.56 228.791C739.018 229.072 739.373 229.467 739.626 229.976C739.878 230.484 740.005 231.078 740.005 231.757C740.005 232.433 739.878 233.024 739.626 233.53C739.373 234.036 739.018 234.429 738.56 234.71C738.103 234.991 737.567 235.132 736.954 235.132ZM736.958 234.062C737.356 234.062 737.685 233.957 737.947 233.747C738.208 233.537 738.401 233.257 738.526 232.908C738.654 232.558 738.718 232.173 738.718 231.753C738.718 231.335 738.654 230.952 738.526 230.602C738.401 230.25 738.208 229.967 737.947 229.754C737.685 229.541 737.356 229.435 736.958 229.435C736.557 229.435 736.225 229.541 735.961 229.754C735.699 229.967 735.505 230.25 735.377 230.602C735.252 230.952 735.189 231.335 735.189 231.753C735.189 232.173 735.252 232.558 735.377 232.908C735.505 233.257 735.699 233.537 735.961 233.747C736.225 233.957 736.557 234.062 736.958 234.062ZM741.307 235V228.455H742.53V229.52H742.611C742.747 229.159 742.97 228.878 743.28 228.676C743.59 228.472 743.96 228.369 744.392 228.369C744.83 228.369 745.196 228.472 745.492 228.676C745.79 228.881 746.01 229.162 746.152 229.52H746.22C746.377 229.17 746.625 228.892 746.966 228.685C747.307 228.474 747.713 228.369 748.185 228.369C748.779 228.369 749.263 228.555 749.638 228.928C750.016 229.3 750.205 229.861 750.205 230.611V235H748.931V230.73C748.931 230.287 748.81 229.966 748.568 229.767C748.327 229.568 748.039 229.469 747.703 229.469C747.289 229.469 746.966 229.597 746.736 229.852C746.506 230.105 746.391 230.43 746.391 230.828V235H745.121V230.649C745.121 230.294 745.01 230.009 744.789 229.793C744.567 229.577 744.279 229.469 743.923 229.469C743.682 229.469 743.459 229.533 743.254 229.661C743.053 229.786 742.889 229.96 742.764 230.185C742.642 230.409 742.581 230.669 742.581 230.964V235H741.307Z" fill="#8A8C91"/>
</g>
</g>
<rect x="575.5" y="277.5" width="351" height="35" rx="17.5" fill="#0CAAAB"/>
<path d="M732.056 300V289.818H733.593V298.678H738.206V300H732.056ZM742.916 300.154C742.2 300.154 741.575 299.99 741.042 299.662C740.508 299.334 740.094 298.875 739.799 298.285C739.504 297.695 739.356 297.005 739.356 296.217C739.356 295.424 739.504 294.732 739.799 294.138C740.094 293.545 740.508 293.085 741.042 292.756C741.575 292.428 742.2 292.264 742.916 292.264C743.632 292.264 744.257 292.428 744.79 292.756C745.324 293.085 745.738 293.545 746.033 294.138C746.328 294.732 746.476 295.424 746.476 296.217C746.476 297.005 746.328 297.695 746.033 298.285C745.738 298.875 745.324 299.334 744.79 299.662C744.257 299.99 743.632 300.154 742.916 300.154ZM742.921 298.906C743.385 298.906 743.77 298.784 744.075 298.538C744.379 298.293 744.605 297.967 744.751 297.559C744.9 297.151 744.974 296.702 744.974 296.212C744.974 295.724 744.9 295.277 744.751 294.869C744.605 294.458 744.379 294.129 744.075 293.88C743.77 293.631 743.385 293.507 742.921 293.507C742.454 293.507 742.066 293.631 741.758 293.88C741.453 294.129 741.226 294.458 741.077 294.869C740.931 295.277 740.858 295.724 740.858 296.212C740.858 296.702 740.931 297.151 741.077 297.559C741.226 297.967 741.453 298.293 741.758 298.538C742.066 298.784 742.454 298.906 742.921 298.906ZM751.197 303.023C750.59 303.023 750.068 302.943 749.631 302.784C749.197 302.625 748.842 302.415 748.567 302.153C748.292 301.891 748.086 301.604 747.95 301.293L749.228 300.766C749.318 300.911 749.437 301.066 749.586 301.228C749.738 301.394 749.944 301.535 750.202 301.651C750.464 301.767 750.801 301.825 751.212 301.825C751.775 301.825 752.241 301.687 752.609 301.412C752.977 301.14 753.161 300.706 753.161 300.109V298.608H753.066C752.977 298.77 752.847 298.951 752.678 299.15C752.513 299.349 752.284 299.521 751.992 299.667C751.701 299.813 751.321 299.886 750.854 299.886C750.251 299.886 749.707 299.745 749.223 299.463C748.742 299.178 748.361 298.759 748.08 298.205C747.801 297.648 747.662 296.964 747.662 296.152C747.662 295.34 747.8 294.644 748.075 294.064C748.353 293.484 748.734 293.04 749.218 292.732C749.702 292.42 750.251 292.264 750.864 292.264C751.338 292.264 751.72 292.344 752.012 292.503C752.304 292.659 752.531 292.841 752.693 293.05C752.859 293.259 752.987 293.442 753.076 293.602H753.185V292.364H754.642V300.169C754.642 300.825 754.49 301.364 754.185 301.785C753.88 302.206 753.467 302.517 752.947 302.719C752.43 302.922 751.846 303.023 751.197 303.023ZM751.182 298.653C751.609 298.653 751.971 298.553 752.266 298.354C752.564 298.152 752.789 297.864 752.942 297.489C753.098 297.112 753.175 296.659 753.175 296.132C753.175 295.618 753.099 295.166 752.947 294.775C752.794 294.384 752.571 294.079 752.276 293.86C751.981 293.638 751.616 293.527 751.182 293.527C750.734 293.527 750.362 293.643 750.063 293.875C749.765 294.104 749.54 294.415 749.387 294.81C749.238 295.204 749.163 295.645 749.163 296.132C749.163 296.633 749.24 297.072 749.392 297.45C749.545 297.827 749.77 298.122 750.068 298.335C750.37 298.547 750.741 298.653 751.182 298.653ZM761.716 289.818V300H760.18V289.818H761.716ZM765.181 295.466V300H763.694V292.364H765.121V293.607H765.216C765.391 293.202 765.666 292.877 766.041 292.632C766.419 292.387 766.894 292.264 767.468 292.264C767.988 292.264 768.444 292.374 768.835 292.592C769.226 292.808 769.529 293.129 769.745 293.557C769.96 293.984 770.068 294.513 770.068 295.143V300H768.581V295.322C768.581 294.768 768.437 294.336 768.149 294.024C767.86 293.709 767.464 293.552 766.961 293.552C766.616 293.552 766.309 293.626 766.041 293.776C765.776 293.925 765.565 294.143 765.409 294.432C765.257 294.717 765.181 295.062 765.181 295.466Z" fill="white"/>
<rect x="575.5" y="277.5" width="351" height="35" rx="17.5" stroke="#0CAAAB"/>
<rect x="575.5" y="321.5" width="351" height="35" rx="17.5" fill="white"/>
<path d="M681.752 333.818H683.293V340.515C683.293 341.228 683.126 341.859 682.791 342.409C682.456 342.956 681.986 343.387 681.379 343.702C680.773 344.013 680.062 344.169 679.246 344.169C678.434 344.169 677.725 344.013 677.119 343.702C676.512 343.387 676.041 342.956 675.707 342.409C675.372 341.859 675.204 341.228 675.204 340.515V333.818H676.741V340.391C676.741 340.851 676.842 341.261 677.044 341.619C677.249 341.977 677.539 342.258 677.914 342.464C678.289 342.666 678.733 342.767 679.246 342.767C679.763 342.767 680.209 342.666 680.584 342.464C680.962 342.258 681.25 341.977 681.449 341.619C681.651 341.261 681.752 340.851 681.752 340.391V333.818ZM690.99 338.228L689.642 338.467C689.586 338.294 689.497 338.13 689.374 337.974C689.255 337.819 689.092 337.691 688.887 337.592C688.681 337.492 688.424 337.442 688.116 337.442C687.695 337.442 687.344 337.537 687.062 337.726C686.78 337.911 686.64 338.152 686.64 338.447C686.64 338.702 686.734 338.907 686.923 339.063C687.112 339.219 687.417 339.347 687.838 339.446L689.051 339.724C689.753 339.887 690.277 340.137 690.622 340.475C690.967 340.813 691.139 341.252 691.139 341.793C691.139 342.25 691.006 342.658 690.741 343.016C690.479 343.37 690.113 343.649 689.642 343.851C689.175 344.053 688.633 344.154 688.017 344.154C687.162 344.154 686.464 343.972 685.924 343.607C685.383 343.239 685.052 342.717 684.929 342.041L686.366 341.822C686.456 342.197 686.64 342.48 686.918 342.673C687.196 342.862 687.559 342.956 688.007 342.956C688.494 342.956 688.883 342.855 689.175 342.653C689.467 342.447 689.613 342.197 689.613 341.902C689.613 341.663 689.523 341.463 689.344 341.3C689.168 341.138 688.898 341.015 688.534 340.933L687.241 340.649C686.529 340.487 686.002 340.228 685.66 339.874C685.322 339.519 685.153 339.07 685.153 338.526C685.153 338.076 685.279 337.681 685.531 337.343C685.783 337.005 686.131 336.741 686.575 336.553C687.019 336.36 687.528 336.264 688.101 336.264C688.927 336.264 689.576 336.443 690.05 336.801C690.524 337.156 690.837 337.631 690.99 338.228ZM695.924 344.154C695.172 344.154 694.524 343.993 693.981 343.672C693.44 343.347 693.023 342.891 692.728 342.305C692.436 341.715 692.29 341.024 692.29 340.232C692.29 339.449 692.436 338.76 692.728 338.163C693.023 337.567 693.434 337.101 693.961 336.766C694.491 336.432 695.111 336.264 695.82 336.264C696.251 336.264 696.669 336.335 697.073 336.478C697.477 336.621 697.84 336.844 698.162 337.149C698.483 337.454 698.737 337.85 698.922 338.337C699.108 338.821 699.201 339.41 699.201 340.102V340.629H693.13V339.516H697.744C697.744 339.125 697.665 338.778 697.505 338.477C697.346 338.172 697.123 337.931 696.834 337.756C696.549 337.58 696.214 337.492 695.83 337.492C695.412 337.492 695.048 337.595 694.736 337.8C694.428 338.003 694.189 338.268 694.02 338.596C693.855 338.921 693.772 339.274 693.772 339.655V340.525C693.772 341.035 693.861 341.469 694.04 341.827C694.223 342.185 694.476 342.459 694.801 342.648C695.126 342.833 695.505 342.926 695.939 342.926C696.221 342.926 696.478 342.886 696.71 342.807C696.942 342.724 697.143 342.601 697.312 342.439C697.481 342.277 697.61 342.076 697.699 341.837L699.106 342.091C698.994 342.505 698.791 342.868 698.5 343.18C698.211 343.488 697.848 343.728 697.411 343.901C696.977 344.07 696.481 344.154 695.924 344.154ZM712.613 333.818V344H711.201L706.025 336.533H705.931V344H704.394V333.818H705.816L710.997 341.295H711.091V333.818H712.613ZM717.811 344.154C717.095 344.154 716.47 343.99 715.936 343.662C715.403 343.334 714.989 342.875 714.694 342.285C714.399 341.695 714.251 341.005 714.251 340.217C714.251 339.424 714.399 338.732 714.694 338.138C714.989 337.545 715.403 337.085 715.936 336.756C716.47 336.428 717.095 336.264 717.811 336.264C718.527 336.264 719.151 336.428 719.685 336.756C720.219 337.085 720.633 337.545 720.928 338.138C721.223 338.732 721.37 339.424 721.37 340.217C721.37 341.005 721.223 341.695 720.928 342.285C720.633 342.875 720.219 343.334 719.685 343.662C719.151 343.99 718.527 344.154 717.811 344.154ZM717.816 342.906C718.28 342.906 718.664 342.784 718.969 342.538C719.274 342.293 719.499 341.967 719.645 341.559C719.794 341.151 719.869 340.702 719.869 340.212C719.869 339.724 719.794 339.277 719.645 338.869C719.499 338.458 719.274 338.129 718.969 337.88C718.664 337.631 718.28 337.507 717.816 337.507C717.348 337.507 716.961 337.631 716.652 337.88C716.347 338.129 716.12 338.458 715.971 338.869C715.825 339.277 715.753 339.724 715.753 340.212C715.753 340.702 715.825 341.151 715.971 341.559C716.12 341.967 716.347 342.293 716.652 342.538C716.961 342.784 717.348 342.906 717.816 342.906ZM724.376 339.466V344H722.89V336.364H724.317V337.607H724.411C724.587 337.202 724.862 336.877 725.236 336.632C725.614 336.387 726.09 336.264 726.663 336.264C727.183 336.264 727.639 336.374 728.03 336.592C728.421 336.808 728.725 337.129 728.94 337.557C729.156 337.984 729.263 338.513 729.263 339.143V344H727.777V339.322C727.777 338.768 727.633 338.336 727.344 338.024C727.056 337.709 726.66 337.552 726.156 337.552C725.811 337.552 725.505 337.626 725.236 337.776C724.971 337.925 724.761 338.143 724.605 338.432C724.452 338.717 724.376 339.062 724.376 339.466ZM735.616 339.053V340.341H731.102V339.053H735.616ZM745.795 333.818V344H744.383L739.207 336.533H739.113V344H737.577V333.818H738.999L744.179 341.295H744.273V333.818H745.795ZM750.993 344.154C750.277 344.154 749.652 343.99 749.119 343.662C748.585 343.334 748.171 342.875 747.876 342.285C747.581 341.695 747.433 341.005 747.433 340.217C747.433 339.424 747.581 338.732 747.876 338.138C748.171 337.545 748.585 337.085 749.119 336.756C749.652 336.428 750.277 336.264 750.993 336.264C751.709 336.264 752.334 336.428 752.867 336.756C753.401 337.085 753.815 337.545 754.11 338.138C754.405 338.732 754.553 339.424 754.553 340.217C754.553 341.005 754.405 341.695 754.11 342.285C753.815 342.875 753.401 343.334 752.867 343.662C752.334 343.99 751.709 344.154 750.993 344.154ZM750.998 342.906C751.462 342.906 751.846 342.784 752.151 342.538C752.456 342.293 752.682 341.967 752.827 341.559C752.977 341.151 753.051 340.702 753.051 340.212C753.051 339.724 752.977 339.277 752.827 338.869C752.682 338.458 752.456 338.129 752.151 337.88C751.846 337.631 751.462 337.507 750.998 337.507C750.531 337.507 750.143 337.631 749.835 337.88C749.53 338.129 749.303 338.458 749.153 338.869C749.008 339.277 748.935 339.724 748.935 340.212C748.935 340.702 749.008 341.151 749.153 341.559C749.303 341.967 749.53 342.293 749.835 342.538C750.143 342.784 750.531 342.906 750.998 342.906ZM756.072 344V336.364H757.509V337.577H757.588C757.727 337.166 757.973 336.843 758.324 336.607C758.679 336.369 759.08 336.249 759.527 336.249C759.62 336.249 759.729 336.253 759.855 336.259C759.985 336.266 760.086 336.274 760.159 336.284V337.706C760.099 337.689 759.993 337.671 759.84 337.651C759.688 337.628 759.535 337.616 759.383 337.616C759.032 337.616 758.718 337.691 758.443 337.84C758.172 337.986 757.956 338.19 757.797 338.452C757.638 338.71 757.558 339.005 757.558 339.337V344H756.072ZM763.89 344.149C763.274 344.149 762.723 343.992 762.24 343.677C761.759 343.359 761.381 342.906 761.106 342.32C760.834 341.73 760.698 341.022 760.698 340.197C760.698 339.371 760.836 338.665 761.111 338.079C761.389 337.492 761.771 337.043 762.254 336.732C762.738 336.42 763.287 336.264 763.9 336.264C764.374 336.264 764.755 336.344 765.044 336.503C765.335 336.659 765.561 336.841 765.72 337.05C765.882 337.259 766.008 337.442 766.098 337.602H766.187V333.818H767.674V344H766.222V342.812H766.098C766.008 342.974 765.879 343.16 765.71 343.369C765.544 343.577 765.315 343.76 765.024 343.915C764.732 344.071 764.354 344.149 763.89 344.149ZM764.218 342.881C764.646 342.881 765.007 342.769 765.302 342.543C765.6 342.315 765.826 341.998 765.978 341.594C766.134 341.189 766.212 340.719 766.212 340.182C766.212 339.652 766.136 339.187 765.983 338.79C765.831 338.392 765.607 338.082 765.312 337.86C765.017 337.638 764.652 337.527 764.218 337.527C763.771 337.527 763.398 337.643 763.1 337.875C762.801 338.107 762.576 338.424 762.424 338.825C762.274 339.226 762.2 339.678 762.2 340.182C762.2 340.692 762.276 341.151 762.428 341.559C762.581 341.967 762.806 342.29 763.105 342.528C763.406 342.764 763.777 342.881 764.218 342.881ZM769.774 344V333.818H773.404C774.196 333.818 774.852 333.962 775.372 334.251C775.893 334.539 776.282 334.933 776.541 335.434C776.799 335.931 776.929 336.491 776.929 337.114C776.929 337.741 776.798 338.304 776.536 338.805C776.277 339.302 775.886 339.696 775.363 339.988C774.842 340.276 774.188 340.42 773.399 340.42H770.903V339.118H773.26C773.76 339.118 774.166 339.032 774.478 338.859C774.789 338.684 775.018 338.445 775.164 338.143C775.31 337.842 775.382 337.499 775.382 337.114C775.382 336.73 775.31 336.388 775.164 336.09C775.018 335.792 774.787 335.558 774.473 335.389C774.161 335.22 773.75 335.136 773.24 335.136H771.311V344H769.774ZM780.624 344.169C780.14 344.169 779.703 344.08 779.312 343.901C778.921 343.718 778.611 343.455 778.382 343.11C778.157 342.765 778.044 342.343 778.044 341.842C778.044 341.411 778.127 341.057 778.292 340.778C778.458 340.5 778.682 340.28 778.964 340.117C779.245 339.955 779.56 339.832 779.908 339.749C780.256 339.666 780.611 339.603 780.972 339.56C781.43 339.507 781.801 339.464 782.086 339.431C782.371 339.395 782.578 339.337 782.707 339.257C782.837 339.178 782.901 339.048 782.901 338.869V338.835C782.901 338.4 782.779 338.064 782.533 337.825C782.291 337.587 781.93 337.467 781.449 337.467C780.949 337.467 780.555 337.578 780.266 337.8C779.981 338.019 779.784 338.263 779.675 338.531L778.278 338.213C778.443 337.749 778.685 337.375 779.003 337.089C779.325 336.801 779.694 336.592 780.112 336.463C780.53 336.33 780.969 336.264 781.43 336.264C781.734 336.264 782.058 336.301 782.399 336.374C782.744 336.443 783.065 336.572 783.364 336.761C783.665 336.95 783.912 337.22 784.104 337.572C784.297 337.92 784.393 338.372 784.393 338.929V344H782.941V342.956H782.881C782.785 343.148 782.641 343.337 782.449 343.523C782.257 343.708 782.01 343.862 781.708 343.985C781.406 344.108 781.045 344.169 780.624 344.169ZM780.947 342.976C781.358 342.976 781.71 342.895 782.001 342.732C782.296 342.57 782.52 342.358 782.672 342.096C782.828 341.831 782.906 341.547 782.906 341.246V340.261C782.853 340.314 782.75 340.364 782.598 340.411C782.449 340.454 782.278 340.492 782.086 340.525C781.894 340.555 781.706 340.583 781.524 340.609C781.342 340.633 781.189 340.652 781.067 340.669C780.778 340.705 780.515 340.767 780.276 340.853C780.041 340.939 779.852 341.063 779.709 341.226C779.57 341.385 779.501 341.597 779.501 341.862C779.501 342.23 779.636 342.509 779.908 342.697C780.18 342.883 780.526 342.976 780.947 342.976ZM791.955 338.228L790.608 338.467C790.551 338.294 790.462 338.13 790.339 337.974C790.22 337.819 790.057 337.691 789.852 337.592C789.646 337.492 789.39 337.442 789.081 337.442C788.66 337.442 788.309 337.537 788.027 337.726C787.746 337.911 787.605 338.152 787.605 338.447C787.605 338.702 787.699 338.907 787.888 339.063C788.077 339.219 788.382 339.347 788.803 339.446L790.016 339.724C790.719 339.887 791.242 340.137 791.587 340.475C791.932 340.813 792.104 341.252 792.104 341.793C792.104 342.25 791.971 342.658 791.706 343.016C791.444 343.37 791.078 343.649 790.608 343.851C790.14 344.053 789.598 344.154 788.982 344.154C788.127 344.154 787.429 343.972 786.889 343.607C786.349 343.239 786.017 342.717 785.895 342.041L787.331 341.822C787.421 342.197 787.605 342.48 787.883 342.673C788.162 342.862 788.524 342.956 788.972 342.956C789.459 342.956 789.849 342.855 790.14 342.653C790.432 342.447 790.578 342.197 790.578 341.902C790.578 341.663 790.488 341.463 790.309 341.3C790.134 341.138 789.863 341.015 789.499 340.933L788.206 340.649C787.494 340.487 786.967 340.228 786.625 339.874C786.287 339.519 786.118 339.07 786.118 338.526C786.118 338.076 786.244 337.681 786.496 337.343C786.748 337.005 787.096 336.741 787.54 336.553C787.984 336.36 788.493 336.264 789.066 336.264C789.892 336.264 790.541 336.443 791.015 336.801C791.489 337.156 791.802 337.631 791.955 338.228ZM799.321 338.228L797.973 338.467C797.917 338.294 797.828 338.13 797.705 337.974C797.586 337.819 797.423 337.691 797.218 337.592C797.012 337.492 796.755 337.442 796.447 337.442C796.026 337.442 795.675 337.537 795.393 337.726C795.111 337.911 794.971 338.152 794.971 338.447C794.971 338.702 795.065 338.907 795.254 339.063C795.443 339.219 795.748 339.347 796.169 339.446L797.382 339.724C798.084 339.887 798.608 340.137 798.953 340.475C799.298 340.813 799.47 341.252 799.47 341.793C799.47 342.25 799.337 342.658 799.072 343.016C798.81 343.37 798.444 343.649 797.973 343.851C797.506 344.053 796.964 344.154 796.348 344.154C795.493 344.154 794.795 343.972 794.255 343.607C793.714 343.239 793.383 342.717 793.26 342.041L794.697 341.822C794.787 342.197 794.971 342.48 795.249 342.673C795.527 342.862 795.89 342.956 796.338 342.956C796.825 342.956 797.214 342.855 797.506 342.653C797.798 342.447 797.944 342.197 797.944 341.902C797.944 341.663 797.854 341.463 797.675 341.3C797.499 341.138 797.229 341.015 796.865 340.933L795.572 340.649C794.86 340.487 794.333 340.228 793.991 339.874C793.653 339.519 793.484 339.07 793.484 338.526C793.484 338.076 793.61 337.681 793.862 337.343C794.114 337.005 794.462 336.741 794.906 336.553C795.35 336.36 795.859 336.264 796.432 336.264C797.258 336.264 797.907 336.443 798.381 336.801C798.855 337.156 799.168 337.631 799.321 338.228ZM804.649 344V333.818H806.185V338.68H806.309L810.58 333.818H812.514L808.407 338.402L812.529 344H810.679L807.388 339.451L806.185 340.833V344H804.649ZM816.417 344.154C815.665 344.154 815.017 343.993 814.473 343.672C813.933 343.347 813.515 342.891 813.22 342.305C812.928 341.715 812.783 341.024 812.783 340.232C812.783 339.449 812.928 338.76 813.22 338.163C813.515 337.567 813.926 337.101 814.453 336.766C814.983 336.432 815.603 336.264 816.312 336.264C816.743 336.264 817.161 336.335 817.565 336.478C817.97 336.621 818.333 336.844 818.654 337.149C818.976 337.454 819.229 337.85 819.415 338.337C819.6 338.821 819.693 339.41 819.693 340.102V340.629H813.623V339.516H818.236C818.236 339.125 818.157 338.778 817.998 338.477C817.839 338.172 817.615 337.931 817.327 337.756C817.042 337.58 816.707 337.492 816.322 337.492C815.905 337.492 815.54 337.595 815.229 337.8C814.92 338.003 814.682 338.268 814.513 338.596C814.347 338.921 814.264 339.274 814.264 339.655V340.525C814.264 341.035 814.354 341.469 814.533 341.827C814.715 342.185 814.968 342.459 815.293 342.648C815.618 342.833 815.998 342.926 816.432 342.926C816.714 342.926 816.97 342.886 817.202 342.807C817.434 342.724 817.635 342.601 817.804 342.439C817.973 342.277 818.102 342.076 818.192 341.837L819.599 342.091C819.486 342.505 819.284 342.868 818.992 343.18C818.704 343.488 818.341 343.728 817.903 343.901C817.469 344.07 816.974 344.154 816.417 344.154ZM821.923 346.864C821.701 346.864 821.499 346.845 821.317 346.809C821.135 346.776 820.999 346.739 820.909 346.7L821.267 345.482C821.539 345.554 821.781 345.586 821.993 345.576C822.205 345.566 822.392 345.487 822.555 345.337C822.72 345.188 822.866 344.945 822.992 344.607L823.176 344.099L820.382 336.364H821.973L823.907 342.29H823.987L825.921 336.364H827.516L824.369 345.019C824.224 345.417 824.038 345.753 823.813 346.028C823.587 346.307 823.319 346.516 823.007 346.655C822.696 346.794 822.334 346.864 821.923 346.864Z" fill="#383C43"/>
<rect x="575.5" y="321.5" width="351" height="35" rx="17.5" stroke="#B9BABD"/>
</g>
</g>
<path d="M0 0.5H965C970.799 0.5 975.5 5.20101 975.5 11H974.5C974.5 5.75329 970.247 1.5 965 1.5H0V0.5ZM975 423H0H975ZM0 423V1V423ZM965 0.5C970.799 0.5 975.5 5.20101 975.5 11V423H974.5V11C974.5 5.75329 970.247 1.5 965 1.5V0.5Z" fill="#9E9E9E" mask="url(#path-1-outside-1_6206_34141)"/>
<defs>
<filter id="filter0_d_6206_34141" x="516" y="56" width="470" height="374" filterUnits="userSpaceOnUse" color-interpolation-filters="sRGB">
<feFlood flood-opacity="0" result="BackgroundImageFix"/>
<feColorMatrix in="SourceAlpha" type="matrix" values="0 0 0 0 0 0 0 0 0 0 0 0 0 0 0 0 0 0 127 0" result="hardAlpha"/>
<feOffset dy="14"/>
<feGaussianBlur stdDeviation="17.5"/>
<feColorMatrix type="matrix" values="0 0 0 0 0 0 0 0 0 0 0 0 0 0 0 0 0 0 0.1 0"/>
<feBlend mode="normal" in2="BackgroundImageFix" result="effect1_dropShadow_6206_34141"/>
<feBlend mode="normal" in="SourceGraphic" in2="effect1_dropShadow_6206_34141" result="shape"/>
</filter>
<filter id="filter1_ii_6206_34141" x="551" y="189" width="400" height="64" filterUnits="userSpaceOnUse" color-interpolation-filters="sRGB">
<feFlood flood-opacity="0" result="BackgroundImageFix"/>
<feBlend mode="normal" in="SourceGraphic" in2="BackgroundImageFix" result="shape"/>
<feColorMatrix in="SourceAlpha" type="matrix" values="0 0 0 0 0 0 0 0 0 0 0 0 0 0 0 0 0 0 127 0" result="hardAlpha"/>
<feOffset dy="-1"/>
<feComposite in2="hardAlpha" operator="arithmetic" k2="-1" k3="1"/>
<feColorMatrix type="matrix" values="0 0 0 0 0.909804 0 0 0 0 0.909804 0 0 0 0 0.913725 0 0 0 1 0"/>
<feBlend mode="normal" in2="shape" result="effect1_innerShadow_6206_34141"/>
<feColorMatrix in="SourceAlpha" type="matrix" values="0 0 0 0 0 0 0 0 0 0 0 0 0 0 0 0 0 0 127 0" result="hardAlpha"/>
<feOffset dy="1"/>
<feComposite in2="hardAlpha" operator="arithmetic" k2="-1" k3="1"/>
<feColorMatrix type="matrix" values="0 0 0 0 0.909804 0 0 0 0 0.909804 0 0 0 0 0.913725 0 0 0 1 0"/>
<feBlend mode="normal" in2="effect1_innerShadow_6206_34141" result="effect2_innerShadow_6206_34141"/>
</filter>
<filter id="filter2_i_6206_34141" x="575" y="189" width="376" height="64" filterUnits="userSpaceOnUse" color-interpolation-filters="sRGB">
<feFlood flood-opacity="0" result="BackgroundImageFix"/>
<feBlend mode="normal" in="SourceGraphic" in2="BackgroundImageFix" result="shape"/>
<feColorMatrix in="SourceAlpha" type="matrix" values="0 0 0 0 0 0 0 0 0 0 0 0 0 0 0 0 0 0 127 0" result="hardAlpha"/>
<feOffset dy="1"/>
<feComposite in2="hardAlpha" operator="arithmetic" k2="-1" k3="1"/>
<feColorMatrix type="matrix" values="0 0 0 0 0.909804 0 0 0 0 0.909804 0 0 0 0 0.913725 0 0 0 1 0"/>
<feBlend mode="normal" in2="shape" result="effect1_innerShadow_6206_34141"/>
</filter>
<clipPath id="clip0_6206_34141">
<path d="M0 1H965C970.523 1 975 5.47715 975 11V423H0V1Z" fill="white"/>
</clipPath>
<clipPath id="clip1_6206_34141">
<rect width="96" height="24" fill="white" transform="translate(863 14)"/>
</clipPath>
</defs>
</svg>
